M48
; DRILL file KiCad 10.0.4 date 2026-07-28T00:21:43
; FORMAT={-:-/ absolute / metric / decimal}
; #@! TF.CreationDate,2026-07-28T00:21:43+02:00
; #@! TF.GenerationSoftware,Kicad,Pcbnew,10.0.4
; #@! TF.FileFunction,MixedPlating,1,4
FMAT,2
METRIC
; #@! TA.AperFunction,Plated,PTH,ViaDrill
T1C0.300
; #@! TA.AperFunction,Plated,PTH,ComponentDrill
T2C0.900
; #@! TA.AperFunction,Plated,PTH,ComponentDrill
T3C1.000
; #@! TA.AperFunction,NonPlated,NPTH,ComponentDrill
T4C3.200
%
G90
G05
T1
X10.215Y-66.733
X13.162Y-60.792
X16.146Y-60.756
X28.737Y-62.9
X37.087Y-16.0
X37.087Y-23.0
X37.087Y-30.0
X37.087Y-40.0
X37.087Y-47.0
X37.087Y-54.0
X37.087Y-61.0
X37.087Y-68.0
X48.72Y-60.792
X49.461Y-31.088
X49.461Y-34.059
X54.087Y-24.0
X54.087Y-60.0
X54.421Y-37.029
X56.087Y-22.29
X57.54Y-39.868
X63.087Y-24.0
X63.087Y-60.0
X63.349Y-25.753
X64.095Y-21.995
X64.468Y-18.54
X80.087Y-16.0
X80.087Y-23.0
X80.087Y-30.0
X80.087Y-40.0
X80.087Y-47.0
X80.087Y-54.0
X80.087Y-61.0
X80.087Y-68.0
T2
X44.0Y-16.0
X44.0Y-23.0
X44.0Y-30.0
X44.0Y-40.0
X44.0Y-47.0
X44.0Y-54.0
X44.0Y-61.0
X44.0Y-68.0
X46.54Y-16.0
X46.54Y-23.0
X46.54Y-30.0
X46.54Y-40.0
X46.54Y-47.0
X46.54Y-54.0
X46.54Y-61.0
X46.54Y-68.0
X55.0Y-16.0
X55.0Y-68.0
X57.54Y-16.0
X57.54Y-68.0
X64.0Y-16.0
X64.0Y-68.0
X66.54Y-16.0
X66.54Y-68.0
X74.0Y-16.0
X74.0Y-23.0
X74.0Y-30.0
X74.0Y-40.0
X74.0Y-47.0
X74.0Y-54.0
X74.0Y-61.0
X74.0Y-68.0
X76.54Y-16.0
X76.54Y-23.0
X76.54Y-30.0
X76.54Y-40.0
X76.54Y-47.0
X76.54Y-54.0
X76.54Y-61.0
X76.54Y-68.0
T3
X8.0Y-16.0
X8.0Y-18.54
X8.0Y-21.08
X8.0Y-23.62
X8.0Y-26.16
X8.0Y-28.7
X8.0Y-31.24
X8.0Y-33.78
X8.0Y-36.32
X8.0Y-38.86
X8.0Y-41.4
X8.0Y-43.94
X8.0Y-46.48
X8.0Y-49.02
X8.0Y-51.56
X8.0Y-54.1
X8.0Y-56.64
X8.0Y-59.18
X8.0Y-61.72
X8.0Y-64.26
X30.86Y-16.0
X30.86Y-18.54
X30.86Y-21.08
X30.86Y-23.62
X30.86Y-26.16
X30.86Y-28.7
X30.86Y-31.24
X30.86Y-33.78
X30.86Y-36.32
X30.86Y-38.86
X30.86Y-41.4
X30.86Y-43.94
X30.86Y-46.48
X30.86Y-49.02
X30.86Y-51.56
X30.86Y-54.1
X30.86Y-56.64
X30.86Y-59.18
X30.86Y-61.72
X30.86Y-64.26
X85.0Y-16.0
X85.0Y-18.54
X85.0Y-21.08
X85.0Y-23.62
X85.0Y-26.16
X85.0Y-28.7
X85.0Y-31.24
X85.0Y-33.78
X85.0Y-36.32
X85.0Y-38.86
X85.0Y-41.4
X85.0Y-43.94
X85.0Y-46.48
X85.0Y-49.02
X85.0Y-51.56
X85.0Y-54.1
X85.0Y-56.64
X85.0Y-59.18
X85.0Y-61.72
X85.0Y-64.26
X87.54Y-16.0
X87.54Y-18.54
X87.54Y-21.08
X87.54Y-23.62
X87.54Y-26.16
X87.54Y-28.7
X87.54Y-31.24
X87.54Y-33.78
X87.54Y-36.32
X87.54Y-38.86
X87.54Y-41.4
X87.54Y-43.94
X87.54Y-46.48
X87.54Y-49.02
X87.54Y-51.56
X87.54Y-54.1
X87.54Y-56.64
X87.54Y-59.18
X87.54Y-61.72
X87.54Y-64.26
T4
X5.0Y-5.0
X5.0Y-75.0
X95.0Y-5.0
X95.0Y-75.0
M30
