%TF.GenerationSoftware,KiCad,Pcbnew,10.0.4*%
%TF.CreationDate,2026-07-28T00:21:43+02:00*%
%TF.ProjectId,AmpelKreuzungLernplatine,416d7065-6c4b-4726-9575-7a756e674c65,rev?*%
%TF.SameCoordinates,Original*%
%TF.FileFunction,Legend,Top*%
%TF.FilePolarity,Positive*%
%FSLAX46Y46*%
G04 Gerber Fmt 4.6, Leading zero omitted, Abs format (unit mm)*
G04 Created by KiCad (PCBNEW 10.0.4) date 2026-07-28 00:21:43*
%MOMM*%
%LPD*%
G01*
G04 APERTURE LIST*
%ADD10C,0.150000*%
%ADD11C,0.158750*%
%ADD12C,0.120000*%
G04 APERTURE END LIST*
D10*
X45935714Y-43412652D02*
X45502380Y-43412652D01*
X45502380Y-44093604D02*
X45502380Y-42793604D01*
X45502380Y-42793604D02*
X46121428Y-42793604D01*
X47297619Y-42855509D02*
X47173809Y-42793604D01*
X47173809Y-42793604D02*
X46988095Y-42793604D01*
X46988095Y-42793604D02*
X46802381Y-42855509D01*
X46802381Y-42855509D02*
X46678571Y-42979319D01*
X46678571Y-42979319D02*
X46616666Y-43103128D01*
X46616666Y-43103128D02*
X46554762Y-43350747D01*
X46554762Y-43350747D02*
X46554762Y-43536461D01*
X46554762Y-43536461D02*
X46616666Y-43784080D01*
X46616666Y-43784080D02*
X46678571Y-43907890D01*
X46678571Y-43907890D02*
X46802381Y-44031700D01*
X46802381Y-44031700D02*
X46988095Y-44093604D01*
X46988095Y-44093604D02*
X47111904Y-44093604D01*
X47111904Y-44093604D02*
X47297619Y-44031700D01*
X47297619Y-44031700D02*
X47359523Y-43969795D01*
X47359523Y-43969795D02*
X47359523Y-43536461D01*
X47359523Y-43536461D02*
X47111904Y-43536461D01*
X47916666Y-43598366D02*
X48907143Y-43598366D01*
X49773809Y-42793604D02*
X50021428Y-42793604D01*
X50021428Y-42793604D02*
X50145238Y-42855509D01*
X50145238Y-42855509D02*
X50269047Y-42979319D01*
X50269047Y-42979319D02*
X50330952Y-43226938D01*
X50330952Y-43226938D02*
X50330952Y-43660271D01*
X50330952Y-43660271D02*
X50269047Y-43907890D01*
X50269047Y-43907890D02*
X50145238Y-44031700D01*
X50145238Y-44031700D02*
X50021428Y-44093604D01*
X50021428Y-44093604D02*
X49773809Y-44093604D01*
X49773809Y-44093604D02*
X49650000Y-44031700D01*
X49650000Y-44031700D02*
X49526190Y-43907890D01*
X49526190Y-43907890D02*
X49464286Y-43660271D01*
X49464286Y-43660271D02*
X49464286Y-43226938D01*
X49464286Y-43226938D02*
X49526190Y-42979319D01*
X49526190Y-42979319D02*
X49650000Y-42855509D01*
X49650000Y-42855509D02*
X49773809Y-42793604D01*
X50826191Y-44031700D02*
X51011905Y-44093604D01*
X51011905Y-44093604D02*
X51321429Y-44093604D01*
X51321429Y-44093604D02*
X51445238Y-44031700D01*
X51445238Y-44031700D02*
X51507143Y-43969795D01*
X51507143Y-43969795D02*
X51569048Y-43845985D01*
X51569048Y-43845985D02*
X51569048Y-43722176D01*
X51569048Y-43722176D02*
X51507143Y-43598366D01*
X51507143Y-43598366D02*
X51445238Y-43536461D01*
X51445238Y-43536461D02*
X51321429Y-43474557D01*
X51321429Y-43474557D02*
X51073810Y-43412652D01*
X51073810Y-43412652D02*
X50950000Y-43350747D01*
X50950000Y-43350747D02*
X50888095Y-43288842D01*
X50888095Y-43288842D02*
X50826191Y-43165033D01*
X50826191Y-43165033D02*
X50826191Y-43041223D01*
X50826191Y-43041223D02*
X50888095Y-42917414D01*
X50888095Y-42917414D02*
X50950000Y-42855509D01*
X50950000Y-42855509D02*
X51073810Y-42793604D01*
X51073810Y-42793604D02*
X51383333Y-42793604D01*
X51383333Y-42793604D02*
X51569048Y-42855509D01*
X51940476Y-42793604D02*
X52683333Y-42793604D01*
X52311905Y-44093604D02*
X52311905Y-42793604D01*
X51130952Y-11412652D02*
X50697618Y-11412652D01*
X50697618Y-12093604D02*
X50697618Y-10793604D01*
X50697618Y-10793604D02*
X51316666Y-10793604D01*
X51811904Y-10793604D02*
X51811904Y-11845985D01*
X51811904Y-11845985D02*
X51873809Y-11969795D01*
X51873809Y-11969795D02*
X51935714Y-12031700D01*
X51935714Y-12031700D02*
X52059523Y-12093604D01*
X52059523Y-12093604D02*
X52307142Y-12093604D01*
X52307142Y-12093604D02*
X52430952Y-12031700D01*
X52430952Y-12031700D02*
X52492857Y-11969795D01*
X52492857Y-11969795D02*
X52554761Y-11845985D01*
X52554761Y-11845985D02*
X52554761Y-10793604D01*
X53111905Y-12031700D02*
X53297619Y-12093604D01*
X53297619Y-12093604D02*
X53607143Y-12093604D01*
X53607143Y-12093604D02*
X53730952Y-12031700D01*
X53730952Y-12031700D02*
X53792857Y-11969795D01*
X53792857Y-11969795D02*
X53854762Y-11845985D01*
X53854762Y-11845985D02*
X53854762Y-11722176D01*
X53854762Y-11722176D02*
X53792857Y-11598366D01*
X53792857Y-11598366D02*
X53730952Y-11536461D01*
X53730952Y-11536461D02*
X53607143Y-11474557D01*
X53607143Y-11474557D02*
X53359524Y-11412652D01*
X53359524Y-11412652D02*
X53235714Y-11350747D01*
X53235714Y-11350747D02*
X53173809Y-11288842D01*
X53173809Y-11288842D02*
X53111905Y-11165033D01*
X53111905Y-11165033D02*
X53111905Y-11041223D01*
X53111905Y-11041223D02*
X53173809Y-10917414D01*
X53173809Y-10917414D02*
X53235714Y-10855509D01*
X53235714Y-10855509D02*
X53359524Y-10793604D01*
X53359524Y-10793604D02*
X53669047Y-10793604D01*
X53669047Y-10793604D02*
X53854762Y-10855509D01*
X54350000Y-12031700D02*
X54535714Y-12093604D01*
X54535714Y-12093604D02*
X54845238Y-12093604D01*
X54845238Y-12093604D02*
X54969047Y-12031700D01*
X54969047Y-12031700D02*
X55030952Y-11969795D01*
X55030952Y-11969795D02*
X55092857Y-11845985D01*
X55092857Y-11845985D02*
X55092857Y-11722176D01*
X55092857Y-11722176D02*
X55030952Y-11598366D01*
X55030952Y-11598366D02*
X54969047Y-11536461D01*
X54969047Y-11536461D02*
X54845238Y-11474557D01*
X54845238Y-11474557D02*
X54597619Y-11412652D01*
X54597619Y-11412652D02*
X54473809Y-11350747D01*
X54473809Y-11350747D02*
X54411904Y-11288842D01*
X54411904Y-11288842D02*
X54350000Y-11165033D01*
X54350000Y-11165033D02*
X54350000Y-11041223D01*
X54350000Y-11041223D02*
X54411904Y-10917414D01*
X54411904Y-10917414D02*
X54473809Y-10855509D01*
X54473809Y-10855509D02*
X54597619Y-10793604D01*
X54597619Y-10793604D02*
X54907142Y-10793604D01*
X54907142Y-10793604D02*
X55092857Y-10855509D01*
X56330952Y-10855509D02*
X56207142Y-10793604D01*
X56207142Y-10793604D02*
X56021428Y-10793604D01*
X56021428Y-10793604D02*
X55835714Y-10855509D01*
X55835714Y-10855509D02*
X55711904Y-10979319D01*
X55711904Y-10979319D02*
X55649999Y-11103128D01*
X55649999Y-11103128D02*
X55588095Y-11350747D01*
X55588095Y-11350747D02*
X55588095Y-11536461D01*
X55588095Y-11536461D02*
X55649999Y-11784080D01*
X55649999Y-11784080D02*
X55711904Y-11907890D01*
X55711904Y-11907890D02*
X55835714Y-12031700D01*
X55835714Y-12031700D02*
X56021428Y-12093604D01*
X56021428Y-12093604D02*
X56145237Y-12093604D01*
X56145237Y-12093604D02*
X56330952Y-12031700D01*
X56330952Y-12031700D02*
X56392856Y-11969795D01*
X56392856Y-11969795D02*
X56392856Y-11536461D01*
X56392856Y-11536461D02*
X56145237Y-11536461D01*
X56949999Y-11969795D02*
X57011904Y-12031700D01*
X57011904Y-12031700D02*
X56949999Y-12093604D01*
X56949999Y-12093604D02*
X56888095Y-12031700D01*
X56888095Y-12031700D02*
X56949999Y-11969795D01*
X56949999Y-11969795D02*
X56949999Y-12093604D01*
X58559523Y-12093604D02*
X58559523Y-10793604D01*
X58559523Y-10793604D02*
X59302380Y-12093604D01*
X59302380Y-12093604D02*
X59302380Y-10793604D01*
X51192857Y-73412652D02*
X50759523Y-73412652D01*
X50759523Y-74093604D02*
X50759523Y-72793604D01*
X50759523Y-72793604D02*
X51378571Y-72793604D01*
X51873809Y-72793604D02*
X51873809Y-73845985D01*
X51873809Y-73845985D02*
X51935714Y-73969795D01*
X51935714Y-73969795D02*
X51997619Y-74031700D01*
X51997619Y-74031700D02*
X52121428Y-74093604D01*
X52121428Y-74093604D02*
X52369047Y-74093604D01*
X52369047Y-74093604D02*
X52492857Y-74031700D01*
X52492857Y-74031700D02*
X52554762Y-73969795D01*
X52554762Y-73969795D02*
X52616666Y-73845985D01*
X52616666Y-73845985D02*
X52616666Y-72793604D01*
X53173810Y-74031700D02*
X53359524Y-74093604D01*
X53359524Y-74093604D02*
X53669048Y-74093604D01*
X53669048Y-74093604D02*
X53792857Y-74031700D01*
X53792857Y-74031700D02*
X53854762Y-73969795D01*
X53854762Y-73969795D02*
X53916667Y-73845985D01*
X53916667Y-73845985D02*
X53916667Y-73722176D01*
X53916667Y-73722176D02*
X53854762Y-73598366D01*
X53854762Y-73598366D02*
X53792857Y-73536461D01*
X53792857Y-73536461D02*
X53669048Y-73474557D01*
X53669048Y-73474557D02*
X53421429Y-73412652D01*
X53421429Y-73412652D02*
X53297619Y-73350747D01*
X53297619Y-73350747D02*
X53235714Y-73288842D01*
X53235714Y-73288842D02*
X53173810Y-73165033D01*
X53173810Y-73165033D02*
X53173810Y-73041223D01*
X53173810Y-73041223D02*
X53235714Y-72917414D01*
X53235714Y-72917414D02*
X53297619Y-72855509D01*
X53297619Y-72855509D02*
X53421429Y-72793604D01*
X53421429Y-72793604D02*
X53730952Y-72793604D01*
X53730952Y-72793604D02*
X53916667Y-72855509D01*
X54411905Y-74031700D02*
X54597619Y-74093604D01*
X54597619Y-74093604D02*
X54907143Y-74093604D01*
X54907143Y-74093604D02*
X55030952Y-74031700D01*
X55030952Y-74031700D02*
X55092857Y-73969795D01*
X55092857Y-73969795D02*
X55154762Y-73845985D01*
X55154762Y-73845985D02*
X55154762Y-73722176D01*
X55154762Y-73722176D02*
X55092857Y-73598366D01*
X55092857Y-73598366D02*
X55030952Y-73536461D01*
X55030952Y-73536461D02*
X54907143Y-73474557D01*
X54907143Y-73474557D02*
X54659524Y-73412652D01*
X54659524Y-73412652D02*
X54535714Y-73350747D01*
X54535714Y-73350747D02*
X54473809Y-73288842D01*
X54473809Y-73288842D02*
X54411905Y-73165033D01*
X54411905Y-73165033D02*
X54411905Y-73041223D01*
X54411905Y-73041223D02*
X54473809Y-72917414D01*
X54473809Y-72917414D02*
X54535714Y-72855509D01*
X54535714Y-72855509D02*
X54659524Y-72793604D01*
X54659524Y-72793604D02*
X54969047Y-72793604D01*
X54969047Y-72793604D02*
X55154762Y-72855509D01*
X56392857Y-72855509D02*
X56269047Y-72793604D01*
X56269047Y-72793604D02*
X56083333Y-72793604D01*
X56083333Y-72793604D02*
X55897619Y-72855509D01*
X55897619Y-72855509D02*
X55773809Y-72979319D01*
X55773809Y-72979319D02*
X55711904Y-73103128D01*
X55711904Y-73103128D02*
X55650000Y-73350747D01*
X55650000Y-73350747D02*
X55650000Y-73536461D01*
X55650000Y-73536461D02*
X55711904Y-73784080D01*
X55711904Y-73784080D02*
X55773809Y-73907890D01*
X55773809Y-73907890D02*
X55897619Y-74031700D01*
X55897619Y-74031700D02*
X56083333Y-74093604D01*
X56083333Y-74093604D02*
X56207142Y-74093604D01*
X56207142Y-74093604D02*
X56392857Y-74031700D01*
X56392857Y-74031700D02*
X56454761Y-73969795D01*
X56454761Y-73969795D02*
X56454761Y-73536461D01*
X56454761Y-73536461D02*
X56207142Y-73536461D01*
X57011904Y-73969795D02*
X57073809Y-74031700D01*
X57073809Y-74031700D02*
X57011904Y-74093604D01*
X57011904Y-74093604D02*
X56950000Y-74031700D01*
X56950000Y-74031700D02*
X57011904Y-73969795D01*
X57011904Y-73969795D02*
X57011904Y-74093604D01*
X58559524Y-74031700D02*
X58745238Y-74093604D01*
X58745238Y-74093604D02*
X59054762Y-74093604D01*
X59054762Y-74093604D02*
X59178571Y-74031700D01*
X59178571Y-74031700D02*
X59240476Y-73969795D01*
X59240476Y-73969795D02*
X59302381Y-73845985D01*
X59302381Y-73845985D02*
X59302381Y-73722176D01*
X59302381Y-73722176D02*
X59240476Y-73598366D01*
X59240476Y-73598366D02*
X59178571Y-73536461D01*
X59178571Y-73536461D02*
X59054762Y-73474557D01*
X59054762Y-73474557D02*
X58807143Y-73412652D01*
X58807143Y-73412652D02*
X58683333Y-73350747D01*
X58683333Y-73350747D02*
X58621428Y-73288842D01*
X58621428Y-73288842D02*
X58559524Y-73165033D01*
X58559524Y-73165033D02*
X58559524Y-73041223D01*
X58559524Y-73041223D02*
X58621428Y-72917414D01*
X58621428Y-72917414D02*
X58683333Y-72855509D01*
X58683333Y-72855509D02*
X58807143Y-72793604D01*
X58807143Y-72793604D02*
X59116666Y-72793604D01*
X59116666Y-72793604D02*
X59302381Y-72855509D01*
X62285715Y-43412652D02*
X61852381Y-43412652D01*
X61852381Y-44093604D02*
X61852381Y-42793604D01*
X61852381Y-42793604D02*
X62471429Y-42793604D01*
X63647620Y-42855509D02*
X63523810Y-42793604D01*
X63523810Y-42793604D02*
X63338096Y-42793604D01*
X63338096Y-42793604D02*
X63152382Y-42855509D01*
X63152382Y-42855509D02*
X63028572Y-42979319D01*
X63028572Y-42979319D02*
X62966667Y-43103128D01*
X62966667Y-43103128D02*
X62904763Y-43350747D01*
X62904763Y-43350747D02*
X62904763Y-43536461D01*
X62904763Y-43536461D02*
X62966667Y-43784080D01*
X62966667Y-43784080D02*
X63028572Y-43907890D01*
X63028572Y-43907890D02*
X63152382Y-44031700D01*
X63152382Y-44031700D02*
X63338096Y-44093604D01*
X63338096Y-44093604D02*
X63461905Y-44093604D01*
X63461905Y-44093604D02*
X63647620Y-44031700D01*
X63647620Y-44031700D02*
X63709524Y-43969795D01*
X63709524Y-43969795D02*
X63709524Y-43536461D01*
X63709524Y-43536461D02*
X63461905Y-43536461D01*
X64266667Y-43598366D02*
X65257144Y-43598366D01*
X65752382Y-42793604D02*
X66061906Y-44093604D01*
X66061906Y-44093604D02*
X66309525Y-43165033D01*
X66309525Y-43165033D02*
X66557144Y-44093604D01*
X66557144Y-44093604D02*
X66866668Y-42793604D01*
X67361905Y-43412652D02*
X67795239Y-43412652D01*
X67980953Y-44093604D02*
X67361905Y-44093604D01*
X67361905Y-44093604D02*
X67361905Y-42793604D01*
X67361905Y-42793604D02*
X67980953Y-42793604D01*
X68476191Y-44031700D02*
X68661905Y-44093604D01*
X68661905Y-44093604D02*
X68971429Y-44093604D01*
X68971429Y-44093604D02*
X69095238Y-44031700D01*
X69095238Y-44031700D02*
X69157143Y-43969795D01*
X69157143Y-43969795D02*
X69219048Y-43845985D01*
X69219048Y-43845985D02*
X69219048Y-43722176D01*
X69219048Y-43722176D02*
X69157143Y-43598366D01*
X69157143Y-43598366D02*
X69095238Y-43536461D01*
X69095238Y-43536461D02*
X68971429Y-43474557D01*
X68971429Y-43474557D02*
X68723810Y-43412652D01*
X68723810Y-43412652D02*
X68600000Y-43350747D01*
X68600000Y-43350747D02*
X68538095Y-43288842D01*
X68538095Y-43288842D02*
X68476191Y-43165033D01*
X68476191Y-43165033D02*
X68476191Y-43041223D01*
X68476191Y-43041223D02*
X68538095Y-42917414D01*
X68538095Y-42917414D02*
X68600000Y-42855509D01*
X68600000Y-42855509D02*
X68723810Y-42793604D01*
X68723810Y-42793604D02*
X69033333Y-42793604D01*
X69033333Y-42793604D02*
X69219048Y-42855509D01*
X69590476Y-42793604D02*
X70333333Y-42793604D01*
X69961905Y-44093604D02*
X69961905Y-42793604D01*
X32566666Y-11739866D02*
X33233333Y-11739866D01*
X32433333Y-12139866D02*
X32900000Y-10739866D01*
X32900000Y-10739866D02*
X33366666Y-12139866D01*
X33833333Y-12139866D02*
X33833333Y-10739866D01*
X33833333Y-10739866D02*
X34300000Y-11739866D01*
X34300000Y-11739866D02*
X34766666Y-10739866D01*
X34766666Y-10739866D02*
X34766666Y-12139866D01*
X35433333Y-12139866D02*
X35433333Y-10739866D01*
X35433333Y-10739866D02*
X35966666Y-10739866D01*
X35966666Y-10739866D02*
X36100000Y-10806533D01*
X36100000Y-10806533D02*
X36166666Y-10873200D01*
X36166666Y-10873200D02*
X36233333Y-11006533D01*
X36233333Y-11006533D02*
X36233333Y-11206533D01*
X36233333Y-11206533D02*
X36166666Y-11339866D01*
X36166666Y-11339866D02*
X36100000Y-11406533D01*
X36100000Y-11406533D02*
X35966666Y-11473200D01*
X35966666Y-11473200D02*
X35433333Y-11473200D01*
X36833333Y-11406533D02*
X37300000Y-11406533D01*
X37500000Y-12139866D02*
X36833333Y-12139866D01*
X36833333Y-12139866D02*
X36833333Y-10739866D01*
X36833333Y-10739866D02*
X37500000Y-10739866D01*
X38766667Y-12139866D02*
X38100000Y-12139866D01*
X38100000Y-12139866D02*
X38100000Y-10739866D01*
X40300000Y-12139866D02*
X40300000Y-10739866D01*
X40300000Y-10739866D02*
X41100000Y-12139866D01*
X41100000Y-12139866D02*
X41100000Y-10739866D01*
X42033334Y-10739866D02*
X42300000Y-10739866D01*
X42300000Y-10739866D02*
X42433334Y-10806533D01*
X42433334Y-10806533D02*
X42566667Y-10939866D01*
X42566667Y-10939866D02*
X42633334Y-11206533D01*
X42633334Y-11206533D02*
X42633334Y-11673200D01*
X42633334Y-11673200D02*
X42566667Y-11939866D01*
X42566667Y-11939866D02*
X42433334Y-12073200D01*
X42433334Y-12073200D02*
X42300000Y-12139866D01*
X42300000Y-12139866D02*
X42033334Y-12139866D01*
X42033334Y-12139866D02*
X41900000Y-12073200D01*
X41900000Y-12073200D02*
X41766667Y-11939866D01*
X41766667Y-11939866D02*
X41700000Y-11673200D01*
X41700000Y-11673200D02*
X41700000Y-11206533D01*
X41700000Y-11206533D02*
X41766667Y-10939866D01*
X41766667Y-10939866D02*
X41900000Y-10806533D01*
X41900000Y-10806533D02*
X42033334Y-10739866D01*
X44033334Y-12139866D02*
X43566667Y-11473200D01*
X43233334Y-12139866D02*
X43233334Y-10739866D01*
X43233334Y-10739866D02*
X43766667Y-10739866D01*
X43766667Y-10739866D02*
X43900001Y-10806533D01*
X43900001Y-10806533D02*
X43966667Y-10873200D01*
X43966667Y-10873200D02*
X44033334Y-11006533D01*
X44033334Y-11006533D02*
X44033334Y-11206533D01*
X44033334Y-11206533D02*
X43966667Y-11339866D01*
X43966667Y-11339866D02*
X43900001Y-11406533D01*
X43900001Y-11406533D02*
X43766667Y-11473200D01*
X43766667Y-11473200D02*
X43233334Y-11473200D01*
X44633334Y-12139866D02*
X44633334Y-10739866D01*
X44633334Y-10739866D02*
X44966667Y-10739866D01*
X44966667Y-10739866D02*
X45166667Y-10806533D01*
X45166667Y-10806533D02*
X45300001Y-10939866D01*
X45300001Y-10939866D02*
X45366667Y-11073200D01*
X45366667Y-11073200D02*
X45433334Y-11339866D01*
X45433334Y-11339866D02*
X45433334Y-11539866D01*
X45433334Y-11539866D02*
X45366667Y-11806533D01*
X45366667Y-11806533D02*
X45300001Y-11939866D01*
X45300001Y-11939866D02*
X45166667Y-12073200D01*
X45166667Y-12073200D02*
X44966667Y-12139866D01*
X44966667Y-12139866D02*
X44633334Y-12139866D01*
X33499999Y-73739866D02*
X34166666Y-73739866D01*
X33366666Y-74139866D02*
X33833333Y-72739866D01*
X33833333Y-72739866D02*
X34299999Y-74139866D01*
X34766666Y-74139866D02*
X34766666Y-72739866D01*
X34766666Y-72739866D02*
X35233333Y-73739866D01*
X35233333Y-73739866D02*
X35699999Y-72739866D01*
X35699999Y-72739866D02*
X35699999Y-74139866D01*
X36366666Y-74139866D02*
X36366666Y-72739866D01*
X36366666Y-72739866D02*
X36899999Y-72739866D01*
X36899999Y-72739866D02*
X37033333Y-72806533D01*
X37033333Y-72806533D02*
X37099999Y-72873200D01*
X37099999Y-72873200D02*
X37166666Y-73006533D01*
X37166666Y-73006533D02*
X37166666Y-73206533D01*
X37166666Y-73206533D02*
X37099999Y-73339866D01*
X37099999Y-73339866D02*
X37033333Y-73406533D01*
X37033333Y-73406533D02*
X36899999Y-73473200D01*
X36899999Y-73473200D02*
X36366666Y-73473200D01*
X37766666Y-73406533D02*
X38233333Y-73406533D01*
X38433333Y-74139866D02*
X37766666Y-74139866D01*
X37766666Y-74139866D02*
X37766666Y-72739866D01*
X37766666Y-72739866D02*
X38433333Y-72739866D01*
X39700000Y-74139866D02*
X39033333Y-74139866D01*
X39033333Y-74139866D02*
X39033333Y-72739866D01*
X41500000Y-72739866D02*
X41766666Y-72739866D01*
X41766666Y-72739866D02*
X41900000Y-72806533D01*
X41900000Y-72806533D02*
X42033333Y-72939866D01*
X42033333Y-72939866D02*
X42100000Y-73206533D01*
X42100000Y-73206533D02*
X42100000Y-73673200D01*
X42100000Y-73673200D02*
X42033333Y-73939866D01*
X42033333Y-73939866D02*
X41900000Y-74073200D01*
X41900000Y-74073200D02*
X41766666Y-74139866D01*
X41766666Y-74139866D02*
X41500000Y-74139866D01*
X41500000Y-74139866D02*
X41366666Y-74073200D01*
X41366666Y-74073200D02*
X41233333Y-73939866D01*
X41233333Y-73939866D02*
X41166666Y-73673200D01*
X41166666Y-73673200D02*
X41166666Y-73206533D01*
X41166666Y-73206533D02*
X41233333Y-72939866D01*
X41233333Y-72939866D02*
X41366666Y-72806533D01*
X41366666Y-72806533D02*
X41500000Y-72739866D01*
X42633333Y-74073200D02*
X42833333Y-74139866D01*
X42833333Y-74139866D02*
X43166667Y-74139866D01*
X43166667Y-74139866D02*
X43300000Y-74073200D01*
X43300000Y-74073200D02*
X43366667Y-74006533D01*
X43366667Y-74006533D02*
X43433333Y-73873200D01*
X43433333Y-73873200D02*
X43433333Y-73739866D01*
X43433333Y-73739866D02*
X43366667Y-73606533D01*
X43366667Y-73606533D02*
X43300000Y-73539866D01*
X43300000Y-73539866D02*
X43166667Y-73473200D01*
X43166667Y-73473200D02*
X42900000Y-73406533D01*
X42900000Y-73406533D02*
X42766667Y-73339866D01*
X42766667Y-73339866D02*
X42700000Y-73273200D01*
X42700000Y-73273200D02*
X42633333Y-73139866D01*
X42633333Y-73139866D02*
X42633333Y-73006533D01*
X42633333Y-73006533D02*
X42700000Y-72873200D01*
X42700000Y-72873200D02*
X42766667Y-72806533D01*
X42766667Y-72806533D02*
X42900000Y-72739866D01*
X42900000Y-72739866D02*
X43233333Y-72739866D01*
X43233333Y-72739866D02*
X43433333Y-72806533D01*
X43833333Y-72739866D02*
X44633333Y-72739866D01*
X44233333Y-74139866D02*
X44233333Y-72739866D01*
X62799999Y-11739866D02*
X63466666Y-11739866D01*
X62666666Y-12139866D02*
X63133333Y-10739866D01*
X63133333Y-10739866D02*
X63599999Y-12139866D01*
X64066666Y-12139866D02*
X64066666Y-10739866D01*
X64066666Y-10739866D02*
X64533333Y-11739866D01*
X64533333Y-11739866D02*
X64999999Y-10739866D01*
X64999999Y-10739866D02*
X64999999Y-12139866D01*
X65666666Y-12139866D02*
X65666666Y-10739866D01*
X65666666Y-10739866D02*
X66199999Y-10739866D01*
X66199999Y-10739866D02*
X66333333Y-10806533D01*
X66333333Y-10806533D02*
X66399999Y-10873200D01*
X66399999Y-10873200D02*
X66466666Y-11006533D01*
X66466666Y-11006533D02*
X66466666Y-11206533D01*
X66466666Y-11206533D02*
X66399999Y-11339866D01*
X66399999Y-11339866D02*
X66333333Y-11406533D01*
X66333333Y-11406533D02*
X66199999Y-11473200D01*
X66199999Y-11473200D02*
X65666666Y-11473200D01*
X67066666Y-11406533D02*
X67533333Y-11406533D01*
X67733333Y-12139866D02*
X67066666Y-12139866D01*
X67066666Y-12139866D02*
X67066666Y-10739866D01*
X67066666Y-10739866D02*
X67733333Y-10739866D01*
X69000000Y-12139866D02*
X68333333Y-12139866D01*
X68333333Y-12139866D02*
X68333333Y-10739866D01*
X70400000Y-10739866D02*
X70733333Y-12139866D01*
X70733333Y-12139866D02*
X71000000Y-11139866D01*
X71000000Y-11139866D02*
X71266666Y-12139866D01*
X71266666Y-12139866D02*
X71600000Y-10739866D01*
X72133333Y-11406533D02*
X72600000Y-11406533D01*
X72800000Y-12139866D02*
X72133333Y-12139866D01*
X72133333Y-12139866D02*
X72133333Y-10739866D01*
X72133333Y-10739866D02*
X72800000Y-10739866D01*
X73333333Y-12073200D02*
X73533333Y-12139866D01*
X73533333Y-12139866D02*
X73866667Y-12139866D01*
X73866667Y-12139866D02*
X74000000Y-12073200D01*
X74000000Y-12073200D02*
X74066667Y-12006533D01*
X74066667Y-12006533D02*
X74133333Y-11873200D01*
X74133333Y-11873200D02*
X74133333Y-11739866D01*
X74133333Y-11739866D02*
X74066667Y-11606533D01*
X74066667Y-11606533D02*
X74000000Y-11539866D01*
X74000000Y-11539866D02*
X73866667Y-11473200D01*
X73866667Y-11473200D02*
X73600000Y-11406533D01*
X73600000Y-11406533D02*
X73466667Y-11339866D01*
X73466667Y-11339866D02*
X73400000Y-11273200D01*
X73400000Y-11273200D02*
X73333333Y-11139866D01*
X73333333Y-11139866D02*
X73333333Y-11006533D01*
X73333333Y-11006533D02*
X73400000Y-10873200D01*
X73400000Y-10873200D02*
X73466667Y-10806533D01*
X73466667Y-10806533D02*
X73600000Y-10739866D01*
X73600000Y-10739866D02*
X73933333Y-10739866D01*
X73933333Y-10739866D02*
X74133333Y-10806533D01*
X74533333Y-10739866D02*
X75333333Y-10739866D01*
X74933333Y-12139866D02*
X74933333Y-10739866D01*
X62699999Y-73739866D02*
X63366666Y-73739866D01*
X62566666Y-74139866D02*
X63033333Y-72739866D01*
X63033333Y-72739866D02*
X63499999Y-74139866D01*
X63966666Y-74139866D02*
X63966666Y-72739866D01*
X63966666Y-72739866D02*
X64433333Y-73739866D01*
X64433333Y-73739866D02*
X64899999Y-72739866D01*
X64899999Y-72739866D02*
X64899999Y-74139866D01*
X65566666Y-74139866D02*
X65566666Y-72739866D01*
X65566666Y-72739866D02*
X66099999Y-72739866D01*
X66099999Y-72739866D02*
X66233333Y-72806533D01*
X66233333Y-72806533D02*
X66299999Y-72873200D01*
X66299999Y-72873200D02*
X66366666Y-73006533D01*
X66366666Y-73006533D02*
X66366666Y-73206533D01*
X66366666Y-73206533D02*
X66299999Y-73339866D01*
X66299999Y-73339866D02*
X66233333Y-73406533D01*
X66233333Y-73406533D02*
X66099999Y-73473200D01*
X66099999Y-73473200D02*
X65566666Y-73473200D01*
X66966666Y-73406533D02*
X67433333Y-73406533D01*
X67633333Y-74139866D02*
X66966666Y-74139866D01*
X66966666Y-74139866D02*
X66966666Y-72739866D01*
X66966666Y-72739866D02*
X67633333Y-72739866D01*
X68900000Y-74139866D02*
X68233333Y-74139866D01*
X68233333Y-74139866D02*
X68233333Y-72739866D01*
X70366666Y-74073200D02*
X70566666Y-74139866D01*
X70566666Y-74139866D02*
X70900000Y-74139866D01*
X70900000Y-74139866D02*
X71033333Y-74073200D01*
X71033333Y-74073200D02*
X71100000Y-74006533D01*
X71100000Y-74006533D02*
X71166666Y-73873200D01*
X71166666Y-73873200D02*
X71166666Y-73739866D01*
X71166666Y-73739866D02*
X71100000Y-73606533D01*
X71100000Y-73606533D02*
X71033333Y-73539866D01*
X71033333Y-73539866D02*
X70900000Y-73473200D01*
X70900000Y-73473200D02*
X70633333Y-73406533D01*
X70633333Y-73406533D02*
X70500000Y-73339866D01*
X70500000Y-73339866D02*
X70433333Y-73273200D01*
X70433333Y-73273200D02*
X70366666Y-73139866D01*
X70366666Y-73139866D02*
X70366666Y-73006533D01*
X70366666Y-73006533D02*
X70433333Y-72873200D01*
X70433333Y-72873200D02*
X70500000Y-72806533D01*
X70500000Y-72806533D02*
X70633333Y-72739866D01*
X70633333Y-72739866D02*
X70966666Y-72739866D01*
X70966666Y-72739866D02*
X71166666Y-72806533D01*
X71766666Y-72739866D02*
X71766666Y-73873200D01*
X71766666Y-73873200D02*
X71833333Y-74006533D01*
X71833333Y-74006533D02*
X71899999Y-74073200D01*
X71899999Y-74073200D02*
X72033333Y-74139866D01*
X72033333Y-74139866D02*
X72299999Y-74139866D01*
X72299999Y-74139866D02*
X72433333Y-74073200D01*
X72433333Y-74073200D02*
X72499999Y-74006533D01*
X72499999Y-74006533D02*
X72566666Y-73873200D01*
X72566666Y-73873200D02*
X72566666Y-72739866D01*
X73233333Y-73406533D02*
X73700000Y-73406533D01*
X73900000Y-74139866D02*
X73233333Y-74139866D01*
X73233333Y-74139866D02*
X73233333Y-72739866D01*
X73233333Y-72739866D02*
X73900000Y-72739866D01*
X74500000Y-74139866D02*
X74500000Y-72739866D01*
X74500000Y-72739866D02*
X74833333Y-72739866D01*
X74833333Y-72739866D02*
X75033333Y-72806533D01*
X75033333Y-72806533D02*
X75166667Y-72939866D01*
X75166667Y-72939866D02*
X75233333Y-73073200D01*
X75233333Y-73073200D02*
X75300000Y-73339866D01*
X75300000Y-73339866D02*
X75300000Y-73539866D01*
X75300000Y-73539866D02*
X75233333Y-73806533D01*
X75233333Y-73806533D02*
X75166667Y-73939866D01*
X75166667Y-73939866D02*
X75033333Y-74073200D01*
X75033333Y-74073200D02*
X74833333Y-74139866D01*
X74833333Y-74139866D02*
X74500000Y-74139866D01*
X7285713Y-4346009D02*
X8238094Y-4346009D01*
X7095237Y-4917438D02*
X7761903Y-2917438D01*
X7761903Y-2917438D02*
X8428570Y-4917438D01*
X9095237Y-4917438D02*
X9095237Y-2917438D01*
X9095237Y-2917438D02*
X9761904Y-4346009D01*
X9761904Y-4346009D02*
X10428570Y-2917438D01*
X10428570Y-2917438D02*
X10428570Y-4917438D01*
X11380951Y-4917438D02*
X11380951Y-2917438D01*
X11380951Y-2917438D02*
X12142856Y-2917438D01*
X12142856Y-2917438D02*
X12333332Y-3012676D01*
X12333332Y-3012676D02*
X12428570Y-3107914D01*
X12428570Y-3107914D02*
X12523808Y-3298390D01*
X12523808Y-3298390D02*
X12523808Y-3584104D01*
X12523808Y-3584104D02*
X12428570Y-3774580D01*
X12428570Y-3774580D02*
X12333332Y-3869819D01*
X12333332Y-3869819D02*
X12142856Y-3965057D01*
X12142856Y-3965057D02*
X11380951Y-3965057D01*
X13380951Y-3869819D02*
X14047618Y-3869819D01*
X14333332Y-4917438D02*
X13380951Y-4917438D01*
X13380951Y-4917438D02*
X13380951Y-2917438D01*
X13380951Y-2917438D02*
X14333332Y-2917438D01*
X16142856Y-4917438D02*
X15190475Y-4917438D01*
X15190475Y-4917438D02*
X15190475Y-2917438D01*
X16809523Y-4917438D02*
X16809523Y-2917438D01*
X17952380Y-4917438D02*
X17095237Y-3774580D01*
X17952380Y-2917438D02*
X16809523Y-4060295D01*
X19952380Y-4917438D02*
X19285713Y-3965057D01*
X18809523Y-4917438D02*
X18809523Y-2917438D01*
X18809523Y-2917438D02*
X19571428Y-2917438D01*
X19571428Y-2917438D02*
X19761904Y-3012676D01*
X19761904Y-3012676D02*
X19857142Y-3107914D01*
X19857142Y-3107914D02*
X19952380Y-3298390D01*
X19952380Y-3298390D02*
X19952380Y-3584104D01*
X19952380Y-3584104D02*
X19857142Y-3774580D01*
X19857142Y-3774580D02*
X19761904Y-3869819D01*
X19761904Y-3869819D02*
X19571428Y-3965057D01*
X19571428Y-3965057D02*
X18809523Y-3965057D01*
X20809523Y-3869819D02*
X21476190Y-3869819D01*
X21761904Y-4917438D02*
X20809523Y-4917438D01*
X20809523Y-4917438D02*
X20809523Y-2917438D01*
X20809523Y-2917438D02*
X21761904Y-2917438D01*
X22619047Y-2917438D02*
X22619047Y-4536485D01*
X22619047Y-4536485D02*
X22714285Y-4726961D01*
X22714285Y-4726961D02*
X22809523Y-4822200D01*
X22809523Y-4822200D02*
X22999999Y-4917438D01*
X22999999Y-4917438D02*
X23380952Y-4917438D01*
X23380952Y-4917438D02*
X23571428Y-4822200D01*
X23571428Y-4822200D02*
X23666666Y-4726961D01*
X23666666Y-4726961D02*
X23761904Y-4536485D01*
X23761904Y-4536485D02*
X23761904Y-2917438D01*
X24523809Y-2917438D02*
X25857142Y-2917438D01*
X25857142Y-2917438D02*
X24523809Y-4917438D01*
X24523809Y-4917438D02*
X25857142Y-4917438D01*
X26619047Y-2917438D02*
X26619047Y-4536485D01*
X26619047Y-4536485D02*
X26714285Y-4726961D01*
X26714285Y-4726961D02*
X26809523Y-4822200D01*
X26809523Y-4822200D02*
X26999999Y-4917438D01*
X26999999Y-4917438D02*
X27380952Y-4917438D01*
X27380952Y-4917438D02*
X27571428Y-4822200D01*
X27571428Y-4822200D02*
X27666666Y-4726961D01*
X27666666Y-4726961D02*
X27761904Y-4536485D01*
X27761904Y-4536485D02*
X27761904Y-2917438D01*
X28714285Y-4917438D02*
X28714285Y-2917438D01*
X28714285Y-2917438D02*
X29857142Y-4917438D01*
X29857142Y-4917438D02*
X29857142Y-2917438D01*
X31857142Y-3012676D02*
X31666666Y-2917438D01*
X31666666Y-2917438D02*
X31380952Y-2917438D01*
X31380952Y-2917438D02*
X31095237Y-3012676D01*
X31095237Y-3012676D02*
X30904761Y-3203152D01*
X30904761Y-3203152D02*
X30809523Y-3393628D01*
X30809523Y-3393628D02*
X30714285Y-3774580D01*
X30714285Y-3774580D02*
X30714285Y-4060295D01*
X30714285Y-4060295D02*
X30809523Y-4441247D01*
X30809523Y-4441247D02*
X30904761Y-4631723D01*
X30904761Y-4631723D02*
X31095237Y-4822200D01*
X31095237Y-4822200D02*
X31380952Y-4917438D01*
X31380952Y-4917438D02*
X31571428Y-4917438D01*
X31571428Y-4917438D02*
X31857142Y-4822200D01*
X31857142Y-4822200D02*
X31952380Y-4726961D01*
X31952380Y-4726961D02*
X31952380Y-4060295D01*
X31952380Y-4060295D02*
X31571428Y-4060295D01*
X35285714Y-4917438D02*
X34333333Y-4917438D01*
X34333333Y-4917438D02*
X34333333Y-2917438D01*
X35952381Y-3869819D02*
X36619048Y-3869819D01*
X36904762Y-4917438D02*
X35952381Y-4917438D01*
X35952381Y-4917438D02*
X35952381Y-2917438D01*
X35952381Y-2917438D02*
X36904762Y-2917438D01*
X38904762Y-4917438D02*
X38238095Y-3965057D01*
X37761905Y-4917438D02*
X37761905Y-2917438D01*
X37761905Y-2917438D02*
X38523810Y-2917438D01*
X38523810Y-2917438D02*
X38714286Y-3012676D01*
X38714286Y-3012676D02*
X38809524Y-3107914D01*
X38809524Y-3107914D02*
X38904762Y-3298390D01*
X38904762Y-3298390D02*
X38904762Y-3584104D01*
X38904762Y-3584104D02*
X38809524Y-3774580D01*
X38809524Y-3774580D02*
X38714286Y-3869819D01*
X38714286Y-3869819D02*
X38523810Y-3965057D01*
X38523810Y-3965057D02*
X37761905Y-3965057D01*
X39761905Y-4917438D02*
X39761905Y-2917438D01*
X39761905Y-2917438D02*
X40904762Y-4917438D01*
X40904762Y-4917438D02*
X40904762Y-2917438D01*
X41857143Y-4917438D02*
X41857143Y-2917438D01*
X41857143Y-2917438D02*
X42619048Y-2917438D01*
X42619048Y-2917438D02*
X42809524Y-3012676D01*
X42809524Y-3012676D02*
X42904762Y-3107914D01*
X42904762Y-3107914D02*
X43000000Y-3298390D01*
X43000000Y-3298390D02*
X43000000Y-3584104D01*
X43000000Y-3584104D02*
X42904762Y-3774580D01*
X42904762Y-3774580D02*
X42809524Y-3869819D01*
X42809524Y-3869819D02*
X42619048Y-3965057D01*
X42619048Y-3965057D02*
X41857143Y-3965057D01*
X44809524Y-4917438D02*
X43857143Y-4917438D01*
X43857143Y-4917438D02*
X43857143Y-2917438D01*
X45380953Y-4346009D02*
X46333334Y-4346009D01*
X45190477Y-4917438D02*
X45857143Y-2917438D01*
X45857143Y-2917438D02*
X46523810Y-4917438D01*
X46904763Y-2917438D02*
X48047620Y-2917438D01*
X47476191Y-4917438D02*
X47476191Y-2917438D01*
X48714287Y-4917438D02*
X48714287Y-2917438D01*
X49666668Y-4917438D02*
X49666668Y-2917438D01*
X49666668Y-2917438D02*
X50809525Y-4917438D01*
X50809525Y-4917438D02*
X50809525Y-2917438D01*
X51761906Y-3869819D02*
X52428573Y-3869819D01*
X52714287Y-4917438D02*
X51761906Y-4917438D01*
X51761906Y-4917438D02*
X51761906Y-2917438D01*
X51761906Y-2917438D02*
X52714287Y-2917438D01*
X44531905Y-50494819D02*
X44531905Y-49494819D01*
X44531905Y-49494819D02*
X44770000Y-49494819D01*
X44770000Y-49494819D02*
X44912857Y-49542438D01*
X44912857Y-49542438D02*
X45008095Y-49637676D01*
X45008095Y-49637676D02*
X45055714Y-49732914D01*
X45055714Y-49732914D02*
X45103333Y-49923390D01*
X45103333Y-49923390D02*
X45103333Y-50066247D01*
X45103333Y-50066247D02*
X45055714Y-50256723D01*
X45055714Y-50256723D02*
X45008095Y-50351961D01*
X45008095Y-50351961D02*
X44912857Y-50447200D01*
X44912857Y-50447200D02*
X44770000Y-50494819D01*
X44770000Y-50494819D02*
X44531905Y-50494819D01*
X45436667Y-49494819D02*
X46103333Y-49494819D01*
X46103333Y-49494819D02*
X45674762Y-50494819D01*
D11*
X93306666Y-5579271D02*
X93306666Y-4309271D01*
X93306666Y-4309271D02*
X93730000Y-5216414D01*
X93730000Y-5216414D02*
X94153333Y-4309271D01*
X94153333Y-4309271D02*
X94153333Y-5579271D01*
X94758095Y-5579271D02*
X94758095Y-4309271D01*
X94758095Y-4914033D02*
X95483810Y-4914033D01*
X95483810Y-5579271D02*
X95483810Y-4309271D01*
X96028095Y-4430223D02*
X96088571Y-4369747D01*
X96088571Y-4369747D02*
X96209524Y-4309271D01*
X96209524Y-4309271D02*
X96511905Y-4309271D01*
X96511905Y-4309271D02*
X96632857Y-4369747D01*
X96632857Y-4369747D02*
X96693333Y-4430223D01*
X96693333Y-4430223D02*
X96753810Y-4551175D01*
X96753810Y-4551175D02*
X96753810Y-4672128D01*
X96753810Y-4672128D02*
X96693333Y-4853556D01*
X96693333Y-4853556D02*
X95967619Y-5579271D01*
X95967619Y-5579271D02*
X96753810Y-5579271D01*
X3306666Y-75579271D02*
X3306666Y-74309271D01*
X3306666Y-74309271D02*
X3730000Y-75216414D01*
X3730000Y-75216414D02*
X4153333Y-74309271D01*
X4153333Y-74309271D02*
X4153333Y-75579271D01*
X4758095Y-75579271D02*
X4758095Y-74309271D01*
X4758095Y-74914033D02*
X5483810Y-74914033D01*
X5483810Y-75579271D02*
X5483810Y-74309271D01*
X6632857Y-74732604D02*
X6632857Y-75579271D01*
X6330476Y-74248795D02*
X6028095Y-75155937D01*
X6028095Y-75155937D02*
X6814286Y-75155937D01*
D10*
X44531905Y-19494819D02*
X44531905Y-18494819D01*
X44531905Y-18494819D02*
X44770000Y-18494819D01*
X44770000Y-18494819D02*
X44912857Y-18542438D01*
X44912857Y-18542438D02*
X45008095Y-18637676D01*
X45008095Y-18637676D02*
X45055714Y-18732914D01*
X45055714Y-18732914D02*
X45103333Y-18923390D01*
X45103333Y-18923390D02*
X45103333Y-19066247D01*
X45103333Y-19066247D02*
X45055714Y-19256723D01*
X45055714Y-19256723D02*
X45008095Y-19351961D01*
X45008095Y-19351961D02*
X44912857Y-19447200D01*
X44912857Y-19447200D02*
X44770000Y-19494819D01*
X44770000Y-19494819D02*
X44531905Y-19494819D01*
X45484286Y-18590057D02*
X45531905Y-18542438D01*
X45531905Y-18542438D02*
X45627143Y-18494819D01*
X45627143Y-18494819D02*
X45865238Y-18494819D01*
X45865238Y-18494819D02*
X45960476Y-18542438D01*
X45960476Y-18542438D02*
X46008095Y-18590057D01*
X46008095Y-18590057D02*
X46055714Y-18685295D01*
X46055714Y-18685295D02*
X46055714Y-18780533D01*
X46055714Y-18780533D02*
X46008095Y-18923390D01*
X46008095Y-18923390D02*
X45436667Y-19494819D01*
X45436667Y-19494819D02*
X46055714Y-19494819D01*
X44531905Y-57494819D02*
X44531905Y-56494819D01*
X44531905Y-56494819D02*
X44770000Y-56494819D01*
X44770000Y-56494819D02*
X44912857Y-56542438D01*
X44912857Y-56542438D02*
X45008095Y-56637676D01*
X45008095Y-56637676D02*
X45055714Y-56732914D01*
X45055714Y-56732914D02*
X45103333Y-56923390D01*
X45103333Y-56923390D02*
X45103333Y-57066247D01*
X45103333Y-57066247D02*
X45055714Y-57256723D01*
X45055714Y-57256723D02*
X45008095Y-57351961D01*
X45008095Y-57351961D02*
X44912857Y-57447200D01*
X44912857Y-57447200D02*
X44770000Y-57494819D01*
X44770000Y-57494819D02*
X44531905Y-57494819D01*
X45674762Y-56923390D02*
X45579524Y-56875771D01*
X45579524Y-56875771D02*
X45531905Y-56828152D01*
X45531905Y-56828152D02*
X45484286Y-56732914D01*
X45484286Y-56732914D02*
X45484286Y-56685295D01*
X45484286Y-56685295D02*
X45531905Y-56590057D01*
X45531905Y-56590057D02*
X45579524Y-56542438D01*
X45579524Y-56542438D02*
X45674762Y-56494819D01*
X45674762Y-56494819D02*
X45865238Y-56494819D01*
X45865238Y-56494819D02*
X45960476Y-56542438D01*
X45960476Y-56542438D02*
X46008095Y-56590057D01*
X46008095Y-56590057D02*
X46055714Y-56685295D01*
X46055714Y-56685295D02*
X46055714Y-56732914D01*
X46055714Y-56732914D02*
X46008095Y-56828152D01*
X46008095Y-56828152D02*
X45960476Y-56875771D01*
X45960476Y-56875771D02*
X45865238Y-56923390D01*
X45865238Y-56923390D02*
X45674762Y-56923390D01*
X45674762Y-56923390D02*
X45579524Y-56971009D01*
X45579524Y-56971009D02*
X45531905Y-57018628D01*
X45531905Y-57018628D02*
X45484286Y-57113866D01*
X45484286Y-57113866D02*
X45484286Y-57304342D01*
X45484286Y-57304342D02*
X45531905Y-57399580D01*
X45531905Y-57399580D02*
X45579524Y-57447200D01*
X45579524Y-57447200D02*
X45674762Y-57494819D01*
X45674762Y-57494819D02*
X45865238Y-57494819D01*
X45865238Y-57494819D02*
X45960476Y-57447200D01*
X45960476Y-57447200D02*
X46008095Y-57399580D01*
X46008095Y-57399580D02*
X46055714Y-57304342D01*
X46055714Y-57304342D02*
X46055714Y-57113866D01*
X46055714Y-57113866D02*
X46008095Y-57018628D01*
X46008095Y-57018628D02*
X45960476Y-56971009D01*
X45960476Y-56971009D02*
X45865238Y-56923390D01*
X44055714Y-43494819D02*
X44055714Y-42494819D01*
X44055714Y-42494819D02*
X44293809Y-42494819D01*
X44293809Y-42494819D02*
X44436666Y-42542438D01*
X44436666Y-42542438D02*
X44531904Y-42637676D01*
X44531904Y-42637676D02*
X44579523Y-42732914D01*
X44579523Y-42732914D02*
X44627142Y-42923390D01*
X44627142Y-42923390D02*
X44627142Y-43066247D01*
X44627142Y-43066247D02*
X44579523Y-43256723D01*
X44579523Y-43256723D02*
X44531904Y-43351961D01*
X44531904Y-43351961D02*
X44436666Y-43447200D01*
X44436666Y-43447200D02*
X44293809Y-43494819D01*
X44293809Y-43494819D02*
X44055714Y-43494819D01*
X45579523Y-43494819D02*
X45008095Y-43494819D01*
X45293809Y-43494819D02*
X45293809Y-42494819D01*
X45293809Y-42494819D02*
X45198571Y-42637676D01*
X45198571Y-42637676D02*
X45103333Y-42732914D01*
X45103333Y-42732914D02*
X45008095Y-42780533D01*
X46150952Y-42923390D02*
X46055714Y-42875771D01*
X46055714Y-42875771D02*
X46008095Y-42828152D01*
X46008095Y-42828152D02*
X45960476Y-42732914D01*
X45960476Y-42732914D02*
X45960476Y-42685295D01*
X45960476Y-42685295D02*
X46008095Y-42590057D01*
X46008095Y-42590057D02*
X46055714Y-42542438D01*
X46055714Y-42542438D02*
X46150952Y-42494819D01*
X46150952Y-42494819D02*
X46341428Y-42494819D01*
X46341428Y-42494819D02*
X46436666Y-42542438D01*
X46436666Y-42542438D02*
X46484285Y-42590057D01*
X46484285Y-42590057D02*
X46531904Y-42685295D01*
X46531904Y-42685295D02*
X46531904Y-42732914D01*
X46531904Y-42732914D02*
X46484285Y-42828152D01*
X46484285Y-42828152D02*
X46436666Y-42875771D01*
X46436666Y-42875771D02*
X46341428Y-42923390D01*
X46341428Y-42923390D02*
X46150952Y-42923390D01*
X46150952Y-42923390D02*
X46055714Y-42971009D01*
X46055714Y-42971009D02*
X46008095Y-43018628D01*
X46008095Y-43018628D02*
X45960476Y-43113866D01*
X45960476Y-43113866D02*
X45960476Y-43304342D01*
X45960476Y-43304342D02*
X46008095Y-43399580D01*
X46008095Y-43399580D02*
X46055714Y-43447200D01*
X46055714Y-43447200D02*
X46150952Y-43494819D01*
X46150952Y-43494819D02*
X46341428Y-43494819D01*
X46341428Y-43494819D02*
X46436666Y-43447200D01*
X46436666Y-43447200D02*
X46484285Y-43399580D01*
X46484285Y-43399580D02*
X46531904Y-43304342D01*
X46531904Y-43304342D02*
X46531904Y-43113866D01*
X46531904Y-43113866D02*
X46484285Y-43018628D01*
X46484285Y-43018628D02*
X46436666Y-42971009D01*
X46436666Y-42971009D02*
X46341428Y-42923390D01*
X74531905Y-57494819D02*
X74531905Y-56494819D01*
X74531905Y-56494819D02*
X74770000Y-56494819D01*
X74770000Y-56494819D02*
X74912857Y-56542438D01*
X74912857Y-56542438D02*
X75008095Y-56637676D01*
X75008095Y-56637676D02*
X75055714Y-56732914D01*
X75055714Y-56732914D02*
X75103333Y-56923390D01*
X75103333Y-56923390D02*
X75103333Y-57066247D01*
X75103333Y-57066247D02*
X75055714Y-57256723D01*
X75055714Y-57256723D02*
X75008095Y-57351961D01*
X75008095Y-57351961D02*
X74912857Y-57447200D01*
X74912857Y-57447200D02*
X74770000Y-57494819D01*
X74770000Y-57494819D02*
X74531905Y-57494819D01*
X76008095Y-56494819D02*
X75531905Y-56494819D01*
X75531905Y-56494819D02*
X75484286Y-56971009D01*
X75484286Y-56971009D02*
X75531905Y-56923390D01*
X75531905Y-56923390D02*
X75627143Y-56875771D01*
X75627143Y-56875771D02*
X75865238Y-56875771D01*
X75865238Y-56875771D02*
X75960476Y-56923390D01*
X75960476Y-56923390D02*
X76008095Y-56971009D01*
X76008095Y-56971009D02*
X76055714Y-57066247D01*
X76055714Y-57066247D02*
X76055714Y-57304342D01*
X76055714Y-57304342D02*
X76008095Y-57399580D01*
X76008095Y-57399580D02*
X75960476Y-57447200D01*
X75960476Y-57447200D02*
X75865238Y-57494819D01*
X75865238Y-57494819D02*
X75627143Y-57494819D01*
X75627143Y-57494819D02*
X75531905Y-57447200D01*
X75531905Y-57447200D02*
X75484286Y-57399580D01*
X64055714Y-12494819D02*
X64055714Y-11494819D01*
X64055714Y-11494819D02*
X64293809Y-11494819D01*
X64293809Y-11494819D02*
X64436666Y-11542438D01*
X64436666Y-11542438D02*
X64531904Y-11637676D01*
X64531904Y-11637676D02*
X64579523Y-11732914D01*
X64579523Y-11732914D02*
X64627142Y-11923390D01*
X64627142Y-11923390D02*
X64627142Y-12066247D01*
X64627142Y-12066247D02*
X64579523Y-12256723D01*
X64579523Y-12256723D02*
X64531904Y-12351961D01*
X64531904Y-12351961D02*
X64436666Y-12447200D01*
X64436666Y-12447200D02*
X64293809Y-12494819D01*
X64293809Y-12494819D02*
X64055714Y-12494819D01*
X65579523Y-12494819D02*
X65008095Y-12494819D01*
X65293809Y-12494819D02*
X65293809Y-11494819D01*
X65293809Y-11494819D02*
X65198571Y-11637676D01*
X65198571Y-11637676D02*
X65103333Y-11732914D01*
X65103333Y-11732914D02*
X65008095Y-11780533D01*
X66436666Y-11828152D02*
X66436666Y-12494819D01*
X66198571Y-11447200D02*
X65960476Y-12161485D01*
X65960476Y-12161485D02*
X66579523Y-12161485D01*
X74055714Y-26494819D02*
X74055714Y-25494819D01*
X74055714Y-25494819D02*
X74293809Y-25494819D01*
X74293809Y-25494819D02*
X74436666Y-25542438D01*
X74436666Y-25542438D02*
X74531904Y-25637676D01*
X74531904Y-25637676D02*
X74579523Y-25732914D01*
X74579523Y-25732914D02*
X74627142Y-25923390D01*
X74627142Y-25923390D02*
X74627142Y-26066247D01*
X74627142Y-26066247D02*
X74579523Y-26256723D01*
X74579523Y-26256723D02*
X74531904Y-26351961D01*
X74531904Y-26351961D02*
X74436666Y-26447200D01*
X74436666Y-26447200D02*
X74293809Y-26494819D01*
X74293809Y-26494819D02*
X74055714Y-26494819D01*
X75579523Y-26494819D02*
X75008095Y-26494819D01*
X75293809Y-26494819D02*
X75293809Y-25494819D01*
X75293809Y-25494819D02*
X75198571Y-25637676D01*
X75198571Y-25637676D02*
X75103333Y-25732914D01*
X75103333Y-25732914D02*
X75008095Y-25780533D01*
X75960476Y-25590057D02*
X76008095Y-25542438D01*
X76008095Y-25542438D02*
X76103333Y-25494819D01*
X76103333Y-25494819D02*
X76341428Y-25494819D01*
X76341428Y-25494819D02*
X76436666Y-25542438D01*
X76436666Y-25542438D02*
X76484285Y-25590057D01*
X76484285Y-25590057D02*
X76531904Y-25685295D01*
X76531904Y-25685295D02*
X76531904Y-25780533D01*
X76531904Y-25780533D02*
X76484285Y-25923390D01*
X76484285Y-25923390D02*
X75912857Y-26494819D01*
X75912857Y-26494819D02*
X76531904Y-26494819D01*
X74531905Y-64494819D02*
X74531905Y-63494819D01*
X74531905Y-63494819D02*
X74770000Y-63494819D01*
X74770000Y-63494819D02*
X74912857Y-63542438D01*
X74912857Y-63542438D02*
X75008095Y-63637676D01*
X75008095Y-63637676D02*
X75055714Y-63732914D01*
X75055714Y-63732914D02*
X75103333Y-63923390D01*
X75103333Y-63923390D02*
X75103333Y-64066247D01*
X75103333Y-64066247D02*
X75055714Y-64256723D01*
X75055714Y-64256723D02*
X75008095Y-64351961D01*
X75008095Y-64351961D02*
X74912857Y-64447200D01*
X74912857Y-64447200D02*
X74770000Y-64494819D01*
X74770000Y-64494819D02*
X74531905Y-64494819D01*
X75960476Y-63494819D02*
X75770000Y-63494819D01*
X75770000Y-63494819D02*
X75674762Y-63542438D01*
X75674762Y-63542438D02*
X75627143Y-63590057D01*
X75627143Y-63590057D02*
X75531905Y-63732914D01*
X75531905Y-63732914D02*
X75484286Y-63923390D01*
X75484286Y-63923390D02*
X75484286Y-64304342D01*
X75484286Y-64304342D02*
X75531905Y-64399580D01*
X75531905Y-64399580D02*
X75579524Y-64447200D01*
X75579524Y-64447200D02*
X75674762Y-64494819D01*
X75674762Y-64494819D02*
X75865238Y-64494819D01*
X75865238Y-64494819D02*
X75960476Y-64447200D01*
X75960476Y-64447200D02*
X76008095Y-64399580D01*
X76008095Y-64399580D02*
X76055714Y-64304342D01*
X76055714Y-64304342D02*
X76055714Y-64066247D01*
X76055714Y-64066247D02*
X76008095Y-63971009D01*
X76008095Y-63971009D02*
X75960476Y-63923390D01*
X75960476Y-63923390D02*
X75865238Y-63875771D01*
X75865238Y-63875771D02*
X75674762Y-63875771D01*
X75674762Y-63875771D02*
X75579524Y-63923390D01*
X75579524Y-63923390D02*
X75531905Y-63971009D01*
X75531905Y-63971009D02*
X75484286Y-64066247D01*
X74055714Y-36494819D02*
X74055714Y-35494819D01*
X74055714Y-35494819D02*
X74293809Y-35494819D01*
X74293809Y-35494819D02*
X74436666Y-35542438D01*
X74436666Y-35542438D02*
X74531904Y-35637676D01*
X74531904Y-35637676D02*
X74579523Y-35732914D01*
X74579523Y-35732914D02*
X74627142Y-35923390D01*
X74627142Y-35923390D02*
X74627142Y-36066247D01*
X74627142Y-36066247D02*
X74579523Y-36256723D01*
X74579523Y-36256723D02*
X74531904Y-36351961D01*
X74531904Y-36351961D02*
X74436666Y-36447200D01*
X74436666Y-36447200D02*
X74293809Y-36494819D01*
X74293809Y-36494819D02*
X74055714Y-36494819D01*
X75579523Y-36494819D02*
X75008095Y-36494819D01*
X75293809Y-36494819D02*
X75293809Y-35494819D01*
X75293809Y-35494819D02*
X75198571Y-35637676D01*
X75198571Y-35637676D02*
X75103333Y-35732914D01*
X75103333Y-35732914D02*
X75008095Y-35780533D01*
X76055714Y-36494819D02*
X76246190Y-36494819D01*
X76246190Y-36494819D02*
X76341428Y-36447200D01*
X76341428Y-36447200D02*
X76389047Y-36399580D01*
X76389047Y-36399580D02*
X76484285Y-36256723D01*
X76484285Y-36256723D02*
X76531904Y-36066247D01*
X76531904Y-36066247D02*
X76531904Y-35685295D01*
X76531904Y-35685295D02*
X76484285Y-35590057D01*
X76484285Y-35590057D02*
X76436666Y-35542438D01*
X76436666Y-35542438D02*
X76341428Y-35494819D01*
X76341428Y-35494819D02*
X76150952Y-35494819D01*
X76150952Y-35494819D02*
X76055714Y-35542438D01*
X76055714Y-35542438D02*
X76008095Y-35590057D01*
X76008095Y-35590057D02*
X75960476Y-35685295D01*
X75960476Y-35685295D02*
X75960476Y-35923390D01*
X75960476Y-35923390D02*
X76008095Y-36018628D01*
X76008095Y-36018628D02*
X76055714Y-36066247D01*
X76055714Y-36066247D02*
X76150952Y-36113866D01*
X76150952Y-36113866D02*
X76341428Y-36113866D01*
X76341428Y-36113866D02*
X76436666Y-36066247D01*
X76436666Y-36066247D02*
X76484285Y-36018628D01*
X76484285Y-36018628D02*
X76531904Y-35923390D01*
X30098095Y-12684819D02*
X30098095Y-13494342D01*
X30098095Y-13494342D02*
X30145714Y-13589580D01*
X30145714Y-13589580D02*
X30193333Y-13637200D01*
X30193333Y-13637200D02*
X30288571Y-13684819D01*
X30288571Y-13684819D02*
X30479047Y-13684819D01*
X30479047Y-13684819D02*
X30574285Y-13637200D01*
X30574285Y-13637200D02*
X30621904Y-13589580D01*
X30621904Y-13589580D02*
X30669523Y-13494342D01*
X30669523Y-13494342D02*
X30669523Y-12684819D01*
X31098095Y-12780057D02*
X31145714Y-12732438D01*
X31145714Y-12732438D02*
X31240952Y-12684819D01*
X31240952Y-12684819D02*
X31479047Y-12684819D01*
X31479047Y-12684819D02*
X31574285Y-12732438D01*
X31574285Y-12732438D02*
X31621904Y-12780057D01*
X31621904Y-12780057D02*
X31669523Y-12875295D01*
X31669523Y-12875295D02*
X31669523Y-12970533D01*
X31669523Y-12970533D02*
X31621904Y-13113390D01*
X31621904Y-13113390D02*
X31050476Y-13684819D01*
X31050476Y-13684819D02*
X31669523Y-13684819D01*
X64055714Y-64494819D02*
X64055714Y-63494819D01*
X64055714Y-63494819D02*
X64293809Y-63494819D01*
X64293809Y-63494819D02*
X64436666Y-63542438D01*
X64436666Y-63542438D02*
X64531904Y-63637676D01*
X64531904Y-63637676D02*
X64579523Y-63732914D01*
X64579523Y-63732914D02*
X64627142Y-63923390D01*
X64627142Y-63923390D02*
X64627142Y-64066247D01*
X64627142Y-64066247D02*
X64579523Y-64256723D01*
X64579523Y-64256723D02*
X64531904Y-64351961D01*
X64531904Y-64351961D02*
X64436666Y-64447200D01*
X64436666Y-64447200D02*
X64293809Y-64494819D01*
X64293809Y-64494819D02*
X64055714Y-64494819D01*
X65579523Y-64494819D02*
X65008095Y-64494819D01*
X65293809Y-64494819D02*
X65293809Y-63494819D01*
X65293809Y-63494819D02*
X65198571Y-63637676D01*
X65198571Y-63637676D02*
X65103333Y-63732914D01*
X65103333Y-63732914D02*
X65008095Y-63780533D01*
X66436666Y-63494819D02*
X66246190Y-63494819D01*
X66246190Y-63494819D02*
X66150952Y-63542438D01*
X66150952Y-63542438D02*
X66103333Y-63590057D01*
X66103333Y-63590057D02*
X66008095Y-63732914D01*
X66008095Y-63732914D02*
X65960476Y-63923390D01*
X65960476Y-63923390D02*
X65960476Y-64304342D01*
X65960476Y-64304342D02*
X66008095Y-64399580D01*
X66008095Y-64399580D02*
X66055714Y-64447200D01*
X66055714Y-64447200D02*
X66150952Y-64494819D01*
X66150952Y-64494819D02*
X66341428Y-64494819D01*
X66341428Y-64494819D02*
X66436666Y-64447200D01*
X66436666Y-64447200D02*
X66484285Y-64399580D01*
X66484285Y-64399580D02*
X66531904Y-64304342D01*
X66531904Y-64304342D02*
X66531904Y-64066247D01*
X66531904Y-64066247D02*
X66484285Y-63971009D01*
X66484285Y-63971009D02*
X66436666Y-63923390D01*
X66436666Y-63923390D02*
X66341428Y-63875771D01*
X66341428Y-63875771D02*
X66150952Y-63875771D01*
X66150952Y-63875771D02*
X66055714Y-63923390D01*
X66055714Y-63923390D02*
X66008095Y-63971009D01*
X66008095Y-63971009D02*
X65960476Y-64066247D01*
D11*
X3306666Y-5579271D02*
X3306666Y-4309271D01*
X3306666Y-4309271D02*
X3730000Y-5216414D01*
X3730000Y-5216414D02*
X4153333Y-4309271D01*
X4153333Y-4309271D02*
X4153333Y-5579271D01*
X4758095Y-5579271D02*
X4758095Y-4309271D01*
X4758095Y-4914033D02*
X5483810Y-4914033D01*
X5483810Y-5579271D02*
X5483810Y-4309271D01*
X6753810Y-5579271D02*
X6028095Y-5579271D01*
X6390952Y-5579271D02*
X6390952Y-4309271D01*
X6390952Y-4309271D02*
X6270000Y-4490699D01*
X6270000Y-4490699D02*
X6149048Y-4611652D01*
X6149048Y-4611652D02*
X6028095Y-4672128D01*
D10*
X44531905Y-26494819D02*
X44531905Y-25494819D01*
X44531905Y-25494819D02*
X44770000Y-25494819D01*
X44770000Y-25494819D02*
X44912857Y-25542438D01*
X44912857Y-25542438D02*
X45008095Y-25637676D01*
X45008095Y-25637676D02*
X45055714Y-25732914D01*
X45055714Y-25732914D02*
X45103333Y-25923390D01*
X45103333Y-25923390D02*
X45103333Y-26066247D01*
X45103333Y-26066247D02*
X45055714Y-26256723D01*
X45055714Y-26256723D02*
X45008095Y-26351961D01*
X45008095Y-26351961D02*
X44912857Y-26447200D01*
X44912857Y-26447200D02*
X44770000Y-26494819D01*
X44770000Y-26494819D02*
X44531905Y-26494819D01*
X45436667Y-25494819D02*
X46055714Y-25494819D01*
X46055714Y-25494819D02*
X45722381Y-25875771D01*
X45722381Y-25875771D02*
X45865238Y-25875771D01*
X45865238Y-25875771D02*
X45960476Y-25923390D01*
X45960476Y-25923390D02*
X46008095Y-25971009D01*
X46008095Y-25971009D02*
X46055714Y-26066247D01*
X46055714Y-26066247D02*
X46055714Y-26304342D01*
X46055714Y-26304342D02*
X46008095Y-26399580D01*
X46008095Y-26399580D02*
X45960476Y-26447200D01*
X45960476Y-26447200D02*
X45865238Y-26494819D01*
X45865238Y-26494819D02*
X45579524Y-26494819D01*
X45579524Y-26494819D02*
X45484286Y-26447200D01*
X45484286Y-26447200D02*
X45436667Y-26399580D01*
X55055714Y-12494819D02*
X55055714Y-11494819D01*
X55055714Y-11494819D02*
X55293809Y-11494819D01*
X55293809Y-11494819D02*
X55436666Y-11542438D01*
X55436666Y-11542438D02*
X55531904Y-11637676D01*
X55531904Y-11637676D02*
X55579523Y-11732914D01*
X55579523Y-11732914D02*
X55627142Y-11923390D01*
X55627142Y-11923390D02*
X55627142Y-12066247D01*
X55627142Y-12066247D02*
X55579523Y-12256723D01*
X55579523Y-12256723D02*
X55531904Y-12351961D01*
X55531904Y-12351961D02*
X55436666Y-12447200D01*
X55436666Y-12447200D02*
X55293809Y-12494819D01*
X55293809Y-12494819D02*
X55055714Y-12494819D01*
X56579523Y-12494819D02*
X56008095Y-12494819D01*
X56293809Y-12494819D02*
X56293809Y-11494819D01*
X56293809Y-11494819D02*
X56198571Y-11637676D01*
X56198571Y-11637676D02*
X56103333Y-11732914D01*
X56103333Y-11732914D02*
X56008095Y-11780533D01*
X56912857Y-11494819D02*
X57531904Y-11494819D01*
X57531904Y-11494819D02*
X57198571Y-11875771D01*
X57198571Y-11875771D02*
X57341428Y-11875771D01*
X57341428Y-11875771D02*
X57436666Y-11923390D01*
X57436666Y-11923390D02*
X57484285Y-11971009D01*
X57484285Y-11971009D02*
X57531904Y-12066247D01*
X57531904Y-12066247D02*
X57531904Y-12304342D01*
X57531904Y-12304342D02*
X57484285Y-12399580D01*
X57484285Y-12399580D02*
X57436666Y-12447200D01*
X57436666Y-12447200D02*
X57341428Y-12494819D01*
X57341428Y-12494819D02*
X57055714Y-12494819D01*
X57055714Y-12494819D02*
X56960476Y-12447200D01*
X56960476Y-12447200D02*
X56912857Y-12399580D01*
X74055714Y-12494819D02*
X74055714Y-11494819D01*
X74055714Y-11494819D02*
X74293809Y-11494819D01*
X74293809Y-11494819D02*
X74436666Y-11542438D01*
X74436666Y-11542438D02*
X74531904Y-11637676D01*
X74531904Y-11637676D02*
X74579523Y-11732914D01*
X74579523Y-11732914D02*
X74627142Y-11923390D01*
X74627142Y-11923390D02*
X74627142Y-12066247D01*
X74627142Y-12066247D02*
X74579523Y-12256723D01*
X74579523Y-12256723D02*
X74531904Y-12351961D01*
X74531904Y-12351961D02*
X74436666Y-12447200D01*
X74436666Y-12447200D02*
X74293809Y-12494819D01*
X74293809Y-12494819D02*
X74055714Y-12494819D01*
X75579523Y-12494819D02*
X75008095Y-12494819D01*
X75293809Y-12494819D02*
X75293809Y-11494819D01*
X75293809Y-11494819D02*
X75198571Y-11637676D01*
X75198571Y-11637676D02*
X75103333Y-11732914D01*
X75103333Y-11732914D02*
X75008095Y-11780533D01*
X76198571Y-11494819D02*
X76293809Y-11494819D01*
X76293809Y-11494819D02*
X76389047Y-11542438D01*
X76389047Y-11542438D02*
X76436666Y-11590057D01*
X76436666Y-11590057D02*
X76484285Y-11685295D01*
X76484285Y-11685295D02*
X76531904Y-11875771D01*
X76531904Y-11875771D02*
X76531904Y-12113866D01*
X76531904Y-12113866D02*
X76484285Y-12304342D01*
X76484285Y-12304342D02*
X76436666Y-12399580D01*
X76436666Y-12399580D02*
X76389047Y-12447200D01*
X76389047Y-12447200D02*
X76293809Y-12494819D01*
X76293809Y-12494819D02*
X76198571Y-12494819D01*
X76198571Y-12494819D02*
X76103333Y-12447200D01*
X76103333Y-12447200D02*
X76055714Y-12399580D01*
X76055714Y-12399580D02*
X76008095Y-12304342D01*
X76008095Y-12304342D02*
X75960476Y-12113866D01*
X75960476Y-12113866D02*
X75960476Y-11875771D01*
X75960476Y-11875771D02*
X76008095Y-11685295D01*
X76008095Y-11685295D02*
X76055714Y-11590057D01*
X76055714Y-11590057D02*
X76103333Y-11542438D01*
X76103333Y-11542438D02*
X76198571Y-11494819D01*
X74531905Y-50494819D02*
X74531905Y-49494819D01*
X74531905Y-49494819D02*
X74770000Y-49494819D01*
X74770000Y-49494819D02*
X74912857Y-49542438D01*
X74912857Y-49542438D02*
X75008095Y-49637676D01*
X75008095Y-49637676D02*
X75055714Y-49732914D01*
X75055714Y-49732914D02*
X75103333Y-49923390D01*
X75103333Y-49923390D02*
X75103333Y-50066247D01*
X75103333Y-50066247D02*
X75055714Y-50256723D01*
X75055714Y-50256723D02*
X75008095Y-50351961D01*
X75008095Y-50351961D02*
X74912857Y-50447200D01*
X74912857Y-50447200D02*
X74770000Y-50494819D01*
X74770000Y-50494819D02*
X74531905Y-50494819D01*
X75960476Y-49828152D02*
X75960476Y-50494819D01*
X75722381Y-49447200D02*
X75484286Y-50161485D01*
X75484286Y-50161485D02*
X76103333Y-50161485D01*
D11*
X93306666Y-75579271D02*
X93306666Y-74309271D01*
X93306666Y-74309271D02*
X93730000Y-75216414D01*
X93730000Y-75216414D02*
X94153333Y-74309271D01*
X94153333Y-74309271D02*
X94153333Y-75579271D01*
X94758095Y-75579271D02*
X94758095Y-74309271D01*
X94758095Y-74914033D02*
X95483810Y-74914033D01*
X95483810Y-75579271D02*
X95483810Y-74309271D01*
X95967619Y-74309271D02*
X96753810Y-74309271D01*
X96753810Y-74309271D02*
X96330476Y-74793080D01*
X96330476Y-74793080D02*
X96511905Y-74793080D01*
X96511905Y-74793080D02*
X96632857Y-74853556D01*
X96632857Y-74853556D02*
X96693333Y-74914033D01*
X96693333Y-74914033D02*
X96753810Y-75034985D01*
X96753810Y-75034985D02*
X96753810Y-75337366D01*
X96753810Y-75337366D02*
X96693333Y-75458318D01*
X96693333Y-75458318D02*
X96632857Y-75518795D01*
X96632857Y-75518795D02*
X96511905Y-75579271D01*
X96511905Y-75579271D02*
X96149048Y-75579271D01*
X96149048Y-75579271D02*
X96028095Y-75518795D01*
X96028095Y-75518795D02*
X95967619Y-75458318D01*
D10*
X85936666Y-13074819D02*
X85936666Y-13789104D01*
X85936666Y-13789104D02*
X85889047Y-13931961D01*
X85889047Y-13931961D02*
X85793809Y-14027200D01*
X85793809Y-14027200D02*
X85650952Y-14074819D01*
X85650952Y-14074819D02*
X85555714Y-14074819D01*
X86936666Y-14074819D02*
X86365238Y-14074819D01*
X86650952Y-14074819D02*
X86650952Y-13074819D01*
X86650952Y-13074819D02*
X86555714Y-13217676D01*
X86555714Y-13217676D02*
X86460476Y-13312914D01*
X86460476Y-13312914D02*
X86365238Y-13360533D01*
X74055714Y-43494819D02*
X74055714Y-42494819D01*
X74055714Y-42494819D02*
X74293809Y-42494819D01*
X74293809Y-42494819D02*
X74436666Y-42542438D01*
X74436666Y-42542438D02*
X74531904Y-42637676D01*
X74531904Y-42637676D02*
X74579523Y-42732914D01*
X74579523Y-42732914D02*
X74627142Y-42923390D01*
X74627142Y-42923390D02*
X74627142Y-43066247D01*
X74627142Y-43066247D02*
X74579523Y-43256723D01*
X74579523Y-43256723D02*
X74531904Y-43351961D01*
X74531904Y-43351961D02*
X74436666Y-43447200D01*
X74436666Y-43447200D02*
X74293809Y-43494819D01*
X74293809Y-43494819D02*
X74055714Y-43494819D01*
X75008095Y-42590057D02*
X75055714Y-42542438D01*
X75055714Y-42542438D02*
X75150952Y-42494819D01*
X75150952Y-42494819D02*
X75389047Y-42494819D01*
X75389047Y-42494819D02*
X75484285Y-42542438D01*
X75484285Y-42542438D02*
X75531904Y-42590057D01*
X75531904Y-42590057D02*
X75579523Y-42685295D01*
X75579523Y-42685295D02*
X75579523Y-42780533D01*
X75579523Y-42780533D02*
X75531904Y-42923390D01*
X75531904Y-42923390D02*
X74960476Y-43494819D01*
X74960476Y-43494819D02*
X75579523Y-43494819D01*
X76198571Y-42494819D02*
X76293809Y-42494819D01*
X76293809Y-42494819D02*
X76389047Y-42542438D01*
X76389047Y-42542438D02*
X76436666Y-42590057D01*
X76436666Y-42590057D02*
X76484285Y-42685295D01*
X76484285Y-42685295D02*
X76531904Y-42875771D01*
X76531904Y-42875771D02*
X76531904Y-43113866D01*
X76531904Y-43113866D02*
X76484285Y-43304342D01*
X76484285Y-43304342D02*
X76436666Y-43399580D01*
X76436666Y-43399580D02*
X76389047Y-43447200D01*
X76389047Y-43447200D02*
X76293809Y-43494819D01*
X76293809Y-43494819D02*
X76198571Y-43494819D01*
X76198571Y-43494819D02*
X76103333Y-43447200D01*
X76103333Y-43447200D02*
X76055714Y-43399580D01*
X76055714Y-43399580D02*
X76008095Y-43304342D01*
X76008095Y-43304342D02*
X75960476Y-43113866D01*
X75960476Y-43113866D02*
X75960476Y-42875771D01*
X75960476Y-42875771D02*
X76008095Y-42685295D01*
X76008095Y-42685295D02*
X76055714Y-42590057D01*
X76055714Y-42590057D02*
X76103333Y-42542438D01*
X76103333Y-42542438D02*
X76198571Y-42494819D01*
X74055714Y-19494819D02*
X74055714Y-18494819D01*
X74055714Y-18494819D02*
X74293809Y-18494819D01*
X74293809Y-18494819D02*
X74436666Y-18542438D01*
X74436666Y-18542438D02*
X74531904Y-18637676D01*
X74531904Y-18637676D02*
X74579523Y-18732914D01*
X74579523Y-18732914D02*
X74627142Y-18923390D01*
X74627142Y-18923390D02*
X74627142Y-19066247D01*
X74627142Y-19066247D02*
X74579523Y-19256723D01*
X74579523Y-19256723D02*
X74531904Y-19351961D01*
X74531904Y-19351961D02*
X74436666Y-19447200D01*
X74436666Y-19447200D02*
X74293809Y-19494819D01*
X74293809Y-19494819D02*
X74055714Y-19494819D01*
X75579523Y-19494819D02*
X75008095Y-19494819D01*
X75293809Y-19494819D02*
X75293809Y-18494819D01*
X75293809Y-18494819D02*
X75198571Y-18637676D01*
X75198571Y-18637676D02*
X75103333Y-18732914D01*
X75103333Y-18732914D02*
X75008095Y-18780533D01*
X76531904Y-19494819D02*
X75960476Y-19494819D01*
X76246190Y-19494819D02*
X76246190Y-18494819D01*
X76246190Y-18494819D02*
X76150952Y-18637676D01*
X76150952Y-18637676D02*
X76055714Y-18732914D01*
X76055714Y-18732914D02*
X75960476Y-18780533D01*
X44531905Y-64494819D02*
X44531905Y-63494819D01*
X44531905Y-63494819D02*
X44770000Y-63494819D01*
X44770000Y-63494819D02*
X44912857Y-63542438D01*
X44912857Y-63542438D02*
X45008095Y-63637676D01*
X45008095Y-63637676D02*
X45055714Y-63732914D01*
X45055714Y-63732914D02*
X45103333Y-63923390D01*
X45103333Y-63923390D02*
X45103333Y-64066247D01*
X45103333Y-64066247D02*
X45055714Y-64256723D01*
X45055714Y-64256723D02*
X45008095Y-64351961D01*
X45008095Y-64351961D02*
X44912857Y-64447200D01*
X44912857Y-64447200D02*
X44770000Y-64494819D01*
X44770000Y-64494819D02*
X44531905Y-64494819D01*
X45579524Y-64494819D02*
X45770000Y-64494819D01*
X45770000Y-64494819D02*
X45865238Y-64447200D01*
X45865238Y-64447200D02*
X45912857Y-64399580D01*
X45912857Y-64399580D02*
X46008095Y-64256723D01*
X46008095Y-64256723D02*
X46055714Y-64066247D01*
X46055714Y-64066247D02*
X46055714Y-63685295D01*
X46055714Y-63685295D02*
X46008095Y-63590057D01*
X46008095Y-63590057D02*
X45960476Y-63542438D01*
X45960476Y-63542438D02*
X45865238Y-63494819D01*
X45865238Y-63494819D02*
X45674762Y-63494819D01*
X45674762Y-63494819D02*
X45579524Y-63542438D01*
X45579524Y-63542438D02*
X45531905Y-63590057D01*
X45531905Y-63590057D02*
X45484286Y-63685295D01*
X45484286Y-63685295D02*
X45484286Y-63923390D01*
X45484286Y-63923390D02*
X45531905Y-64018628D01*
X45531905Y-64018628D02*
X45579524Y-64066247D01*
X45579524Y-64066247D02*
X45674762Y-64113866D01*
X45674762Y-64113866D02*
X45865238Y-64113866D01*
X45865238Y-64113866D02*
X45960476Y-64066247D01*
X45960476Y-64066247D02*
X46008095Y-64018628D01*
X46008095Y-64018628D02*
X46055714Y-63923390D01*
X7238095Y-12684819D02*
X7238095Y-13494342D01*
X7238095Y-13494342D02*
X7285714Y-13589580D01*
X7285714Y-13589580D02*
X7333333Y-13637200D01*
X7333333Y-13637200D02*
X7428571Y-13684819D01*
X7428571Y-13684819D02*
X7619047Y-13684819D01*
X7619047Y-13684819D02*
X7714285Y-13637200D01*
X7714285Y-13637200D02*
X7761904Y-13589580D01*
X7761904Y-13589580D02*
X7809523Y-13494342D01*
X7809523Y-13494342D02*
X7809523Y-12684819D01*
X8809523Y-13684819D02*
X8238095Y-13684819D01*
X8523809Y-13684819D02*
X8523809Y-12684819D01*
X8523809Y-12684819D02*
X8428571Y-12827676D01*
X8428571Y-12827676D02*
X8333333Y-12922914D01*
X8333333Y-12922914D02*
X8238095Y-12970533D01*
X55055714Y-64494819D02*
X55055714Y-63494819D01*
X55055714Y-63494819D02*
X55293809Y-63494819D01*
X55293809Y-63494819D02*
X55436666Y-63542438D01*
X55436666Y-63542438D02*
X55531904Y-63637676D01*
X55531904Y-63637676D02*
X55579523Y-63732914D01*
X55579523Y-63732914D02*
X55627142Y-63923390D01*
X55627142Y-63923390D02*
X55627142Y-64066247D01*
X55627142Y-64066247D02*
X55579523Y-64256723D01*
X55579523Y-64256723D02*
X55531904Y-64351961D01*
X55531904Y-64351961D02*
X55436666Y-64447200D01*
X55436666Y-64447200D02*
X55293809Y-64494819D01*
X55293809Y-64494819D02*
X55055714Y-64494819D01*
X56579523Y-64494819D02*
X56008095Y-64494819D01*
X56293809Y-64494819D02*
X56293809Y-63494819D01*
X56293809Y-63494819D02*
X56198571Y-63637676D01*
X56198571Y-63637676D02*
X56103333Y-63732914D01*
X56103333Y-63732914D02*
X56008095Y-63780533D01*
X57484285Y-63494819D02*
X57008095Y-63494819D01*
X57008095Y-63494819D02*
X56960476Y-63971009D01*
X56960476Y-63971009D02*
X57008095Y-63923390D01*
X57008095Y-63923390D02*
X57103333Y-63875771D01*
X57103333Y-63875771D02*
X57341428Y-63875771D01*
X57341428Y-63875771D02*
X57436666Y-63923390D01*
X57436666Y-63923390D02*
X57484285Y-63971009D01*
X57484285Y-63971009D02*
X57531904Y-64066247D01*
X57531904Y-64066247D02*
X57531904Y-64304342D01*
X57531904Y-64304342D02*
X57484285Y-64399580D01*
X57484285Y-64399580D02*
X57436666Y-64447200D01*
X57436666Y-64447200D02*
X57341428Y-64494819D01*
X57341428Y-64494819D02*
X57103333Y-64494819D01*
X57103333Y-64494819D02*
X57008095Y-64447200D01*
X57008095Y-64447200D02*
X56960476Y-64399580D01*
X44531905Y-12494819D02*
X44531905Y-11494819D01*
X44531905Y-11494819D02*
X44770000Y-11494819D01*
X44770000Y-11494819D02*
X44912857Y-11542438D01*
X44912857Y-11542438D02*
X45008095Y-11637676D01*
X45008095Y-11637676D02*
X45055714Y-11732914D01*
X45055714Y-11732914D02*
X45103333Y-11923390D01*
X45103333Y-11923390D02*
X45103333Y-12066247D01*
X45103333Y-12066247D02*
X45055714Y-12256723D01*
X45055714Y-12256723D02*
X45008095Y-12351961D01*
X45008095Y-12351961D02*
X44912857Y-12447200D01*
X44912857Y-12447200D02*
X44770000Y-12494819D01*
X44770000Y-12494819D02*
X44531905Y-12494819D01*
X46055714Y-12494819D02*
X45484286Y-12494819D01*
X45770000Y-12494819D02*
X45770000Y-11494819D01*
X45770000Y-11494819D02*
X45674762Y-11637676D01*
X45674762Y-11637676D02*
X45579524Y-11732914D01*
X45579524Y-11732914D02*
X45484286Y-11780533D01*
X44055714Y-36494819D02*
X44055714Y-35494819D01*
X44055714Y-35494819D02*
X44293809Y-35494819D01*
X44293809Y-35494819D02*
X44436666Y-35542438D01*
X44436666Y-35542438D02*
X44531904Y-35637676D01*
X44531904Y-35637676D02*
X44579523Y-35732914D01*
X44579523Y-35732914D02*
X44627142Y-35923390D01*
X44627142Y-35923390D02*
X44627142Y-36066247D01*
X44627142Y-36066247D02*
X44579523Y-36256723D01*
X44579523Y-36256723D02*
X44531904Y-36351961D01*
X44531904Y-36351961D02*
X44436666Y-36447200D01*
X44436666Y-36447200D02*
X44293809Y-36494819D01*
X44293809Y-36494819D02*
X44055714Y-36494819D01*
X45579523Y-36494819D02*
X45008095Y-36494819D01*
X45293809Y-36494819D02*
X45293809Y-35494819D01*
X45293809Y-35494819D02*
X45198571Y-35637676D01*
X45198571Y-35637676D02*
X45103333Y-35732914D01*
X45103333Y-35732914D02*
X45008095Y-35780533D01*
X45912857Y-35494819D02*
X46579523Y-35494819D01*
X46579523Y-35494819D02*
X46150952Y-36494819D01*
%TO.C,D7*%
D12*
X42710000Y-52455000D02*
X42710000Y-55545000D01*
X42710000Y-52455170D02*
G75*
G02*
X48260000Y-54000000I2560000J-1544830D01*
G01*
X48260000Y-54000000D02*
G75*
G02*
X42710000Y-55544830I-2990000J0D01*
G01*
X47770000Y-54000000D02*
G75*
G02*
X42770000Y-54000000I-2500000J0D01*
G01*
X42770000Y-54000000D02*
G75*
G02*
X47770000Y-54000000I2500000J0D01*
G01*
%TO.C,D2*%
X42710000Y-21455000D02*
X42710000Y-24545000D01*
X42710000Y-21455170D02*
G75*
G02*
X48260000Y-23000000I2560000J-1544830D01*
G01*
X48260000Y-23000000D02*
G75*
G02*
X42710000Y-24544830I-2990000J0D01*
G01*
X47770000Y-23000000D02*
G75*
G02*
X42770000Y-23000000I-2500000J0D01*
G01*
X42770000Y-23000000D02*
G75*
G02*
X47770000Y-23000000I2500000J0D01*
G01*
%TO.C,D8*%
X42710000Y-59455000D02*
X42710000Y-62545000D01*
X42710000Y-59455170D02*
G75*
G02*
X48260000Y-61000000I2560000J-1544830D01*
G01*
X48260000Y-61000000D02*
G75*
G02*
X42710000Y-62544830I-2990000J0D01*
G01*
X47770000Y-61000000D02*
G75*
G02*
X42770000Y-61000000I-2500000J0D01*
G01*
X42770000Y-61000000D02*
G75*
G02*
X47770000Y-61000000I2500000J0D01*
G01*
%TO.C,D18*%
X42710000Y-45455000D02*
X42710000Y-48545000D01*
X42710000Y-45455170D02*
G75*
G02*
X48260000Y-47000000I2560000J-1544830D01*
G01*
X48260000Y-47000000D02*
G75*
G02*
X42710000Y-48544830I-2990000J0D01*
G01*
X47770000Y-47000000D02*
G75*
G02*
X42770000Y-47000000I-2500000J0D01*
G01*
X42770000Y-47000000D02*
G75*
G02*
X47770000Y-47000000I2500000J0D01*
G01*
%TO.C,D5*%
X72710000Y-59455000D02*
X72710000Y-62545000D01*
X72710000Y-59455170D02*
G75*
G02*
X78260000Y-61000000I2560000J-1544830D01*
G01*
X78260000Y-61000000D02*
G75*
G02*
X72710000Y-62544830I-2990000J0D01*
G01*
X77770000Y-61000000D02*
G75*
G02*
X72770000Y-61000000I-2500000J0D01*
G01*
X72770000Y-61000000D02*
G75*
G02*
X77770000Y-61000000I2500000J0D01*
G01*
%TO.C,D14*%
X62710000Y-14455000D02*
X62710000Y-17545000D01*
X62710000Y-14455170D02*
G75*
G02*
X68260000Y-16000000I2560000J-1544830D01*
G01*
X68260000Y-16000000D02*
G75*
G02*
X62710000Y-17544830I-2990000J0D01*
G01*
X67770000Y-16000000D02*
G75*
G02*
X62770000Y-16000000I-2500000J0D01*
G01*
X62770000Y-16000000D02*
G75*
G02*
X67770000Y-16000000I2500000J0D01*
G01*
%TO.C,D12*%
X72710000Y-28455000D02*
X72710000Y-31545000D01*
X72710000Y-28455170D02*
G75*
G02*
X78260000Y-30000000I2560000J-1544830D01*
G01*
X78260000Y-30000000D02*
G75*
G02*
X72710000Y-31544830I-2990000J0D01*
G01*
X77770000Y-30000000D02*
G75*
G02*
X72770000Y-30000000I-2500000J0D01*
G01*
X72770000Y-30000000D02*
G75*
G02*
X77770000Y-30000000I2500000J0D01*
G01*
%TO.C,D6*%
X72710000Y-66455000D02*
X72710000Y-69545000D01*
X72710000Y-66455170D02*
G75*
G02*
X78260000Y-68000000I2560000J-1544830D01*
G01*
X78260000Y-68000000D02*
G75*
G02*
X72710000Y-69544830I-2990000J0D01*
G01*
X77770000Y-68000000D02*
G75*
G02*
X72770000Y-68000000I-2500000J0D01*
G01*
X72770000Y-68000000D02*
G75*
G02*
X77770000Y-68000000I2500000J0D01*
G01*
%TO.C,D19*%
X72710000Y-38455000D02*
X72710000Y-41545000D01*
X72710000Y-38455170D02*
G75*
G02*
X78260000Y-40000000I2560000J-1544830D01*
G01*
X78260000Y-40000000D02*
G75*
G02*
X72710000Y-41544830I-2990000J0D01*
G01*
X77770000Y-40000000D02*
G75*
G02*
X72770000Y-40000000I-2500000J0D01*
G01*
X72770000Y-40000000D02*
G75*
G02*
X77770000Y-40000000I2500000J0D01*
G01*
%TO.C,U2*%
X29530000Y-17270000D02*
X29530000Y-65590000D01*
X29530000Y-17270000D02*
X32190000Y-17270000D01*
X29530000Y-65590000D02*
X32190000Y-65590000D01*
X30860000Y-14670000D02*
X32190000Y-14670000D01*
X32190000Y-14670000D02*
X32190000Y-16000000D01*
X32190000Y-17270000D02*
X32190000Y-65590000D01*
%TO.C,D16*%
X62710000Y-66455000D02*
X62710000Y-69545000D01*
X62710000Y-66455170D02*
G75*
G02*
X68260000Y-68000000I2560000J-1544830D01*
G01*
X68260000Y-68000000D02*
G75*
G02*
X62710000Y-69544830I-2990000J0D01*
G01*
X67770000Y-68000000D02*
G75*
G02*
X62770000Y-68000000I-2500000J0D01*
G01*
X62770000Y-68000000D02*
G75*
G02*
X67770000Y-68000000I2500000J0D01*
G01*
%TO.C,D3*%
X42710000Y-28455000D02*
X42710000Y-31545000D01*
X42710000Y-28455170D02*
G75*
G02*
X48260000Y-30000000I2560000J-1544830D01*
G01*
X48260000Y-30000000D02*
G75*
G02*
X42710000Y-31544830I-2990000J0D01*
G01*
X47770000Y-30000000D02*
G75*
G02*
X42770000Y-30000000I-2500000J0D01*
G01*
X42770000Y-30000000D02*
G75*
G02*
X47770000Y-30000000I2500000J0D01*
G01*
%TO.C,D13*%
X53710000Y-14455000D02*
X53710000Y-17545000D01*
X53710000Y-14455170D02*
G75*
G02*
X59260000Y-16000000I2560000J-1544830D01*
G01*
X59260000Y-16000000D02*
G75*
G02*
X53710000Y-17544830I-2990000J0D01*
G01*
X58770000Y-16000000D02*
G75*
G02*
X53770000Y-16000000I-2500000J0D01*
G01*
X53770000Y-16000000D02*
G75*
G02*
X58770000Y-16000000I2500000J0D01*
G01*
%TO.C,D10*%
X72710000Y-14455000D02*
X72710000Y-17545000D01*
X72710000Y-14455170D02*
G75*
G02*
X78260000Y-16000000I2560000J-1544830D01*
G01*
X78260000Y-16000000D02*
G75*
G02*
X72710000Y-17544830I-2990000J0D01*
G01*
X77770000Y-16000000D02*
G75*
G02*
X72770000Y-16000000I-2500000J0D01*
G01*
X72770000Y-16000000D02*
G75*
G02*
X77770000Y-16000000I2500000J0D01*
G01*
%TO.C,D4*%
X72710000Y-52455000D02*
X72710000Y-55545000D01*
X72710000Y-52455170D02*
G75*
G02*
X78260000Y-54000000I2560000J-1544830D01*
G01*
X78260000Y-54000000D02*
G75*
G02*
X72710000Y-55544830I-2990000J0D01*
G01*
X77770000Y-54000000D02*
G75*
G02*
X72770000Y-54000000I-2500000J0D01*
G01*
X72770000Y-54000000D02*
G75*
G02*
X77770000Y-54000000I2500000J0D01*
G01*
%TO.C,J1*%
X83620000Y-14620000D02*
X85000000Y-14620000D01*
X83620000Y-16000000D02*
X83620000Y-14620000D01*
X83620000Y-17270000D02*
X83620000Y-65640000D01*
X83620000Y-17270000D02*
X86270000Y-17270000D01*
X83620000Y-65640000D02*
X88920000Y-65640000D01*
X86270000Y-14620000D02*
X88920000Y-14620000D01*
X86270000Y-17270000D02*
X86270000Y-14620000D01*
X88920000Y-14620000D02*
X88920000Y-65640000D01*
%TO.C,D20*%
X72710000Y-45455000D02*
X72710000Y-48545000D01*
X72710000Y-45455170D02*
G75*
G02*
X78260000Y-47000000I2560000J-1544830D01*
G01*
X78260000Y-47000000D02*
G75*
G02*
X72710000Y-48544830I-2990000J0D01*
G01*
X77770000Y-47000000D02*
G75*
G02*
X72770000Y-47000000I-2500000J0D01*
G01*
X72770000Y-47000000D02*
G75*
G02*
X77770000Y-47000000I2500000J0D01*
G01*
%TO.C,D11*%
X72710000Y-21455000D02*
X72710000Y-24545000D01*
X72710000Y-21455170D02*
G75*
G02*
X78260000Y-23000000I2560000J-1544830D01*
G01*
X78260000Y-23000000D02*
G75*
G02*
X72710000Y-24544830I-2990000J0D01*
G01*
X77770000Y-23000000D02*
G75*
G02*
X72770000Y-23000000I-2500000J0D01*
G01*
X72770000Y-23000000D02*
G75*
G02*
X77770000Y-23000000I2500000J0D01*
G01*
%TO.C,D9*%
X42710000Y-66455000D02*
X42710000Y-69545000D01*
X42710000Y-66455170D02*
G75*
G02*
X48260000Y-68000000I2560000J-1544830D01*
G01*
X48260000Y-68000000D02*
G75*
G02*
X42710000Y-69544830I-2990000J0D01*
G01*
X47770000Y-68000000D02*
G75*
G02*
X42770000Y-68000000I-2500000J0D01*
G01*
X42770000Y-68000000D02*
G75*
G02*
X47770000Y-68000000I2500000J0D01*
G01*
%TO.C,U1*%
X6670000Y-17270000D02*
X6670000Y-65590000D01*
X6670000Y-17270000D02*
X9330000Y-17270000D01*
X6670000Y-65590000D02*
X9330000Y-65590000D01*
X8000000Y-14670000D02*
X9330000Y-14670000D01*
X9330000Y-14670000D02*
X9330000Y-16000000D01*
X9330000Y-17270000D02*
X9330000Y-65590000D01*
%TO.C,D15*%
X53710000Y-66455000D02*
X53710000Y-69545000D01*
X53710000Y-66455170D02*
G75*
G02*
X59260000Y-68000000I2560000J-1544830D01*
G01*
X59260000Y-68000000D02*
G75*
G02*
X53710000Y-69544830I-2990000J0D01*
G01*
X58770000Y-68000000D02*
G75*
G02*
X53770000Y-68000000I-2500000J0D01*
G01*
X53770000Y-68000000D02*
G75*
G02*
X58770000Y-68000000I2500000J0D01*
G01*
%TO.C,D1*%
X42710000Y-14455000D02*
X42710000Y-17545000D01*
X42710000Y-14455170D02*
G75*
G02*
X48260000Y-16000000I2560000J-1544830D01*
G01*
X48260000Y-16000000D02*
G75*
G02*
X42710000Y-17544830I-2990000J0D01*
G01*
X47770000Y-16000000D02*
G75*
G02*
X42770000Y-16000000I-2500000J0D01*
G01*
X42770000Y-16000000D02*
G75*
G02*
X47770000Y-16000000I2500000J0D01*
G01*
%TO.C,D17*%
X42710000Y-38455000D02*
X42710000Y-41545000D01*
X42710000Y-38455170D02*
G75*
G02*
X48260000Y-40000000I2560000J-1544830D01*
G01*
X48260000Y-40000000D02*
G75*
G02*
X42710000Y-41544830I-2990000J0D01*
G01*
X47770000Y-40000000D02*
G75*
G02*
X42770000Y-40000000I-2500000J0D01*
G01*
X42770000Y-40000000D02*
G75*
G02*
X47770000Y-40000000I2500000J0D01*
G01*
%TD*%
M02*
