%TF.GenerationSoftware,KiCad,Pcbnew,10.0.4*%
%TF.CreationDate,2026-07-28T00:21:43+02:00*%
%TF.ProjectId,AmpelKreuzungLernplatine,416d7065-6c4b-4726-9575-7a756e674c65,rev?*%
%TF.SameCoordinates,Original*%
%TF.FileFunction,Other,User*%
%FSLAX46Y46*%
G04 Gerber Fmt 4.6, Leading zero omitted, Abs format (unit mm)*
G04 Created by KiCad (PCBNEW 10.0.4) date 2026-07-28 00:21:43*
%MOMM*%
%LPD*%
G01*
G04 APERTURE LIST*
%ADD10C,0.050000*%
G04 APERTURE END LIST*
%TO.C,R14*%
D10*
X62320000Y-23050000D02*
X65680000Y-23050000D01*
X65680000Y-24950000D01*
X62320000Y-24950000D01*
X62320000Y-23050000D01*
%TO.C,R2*%
X36320000Y-22050000D02*
X39680000Y-22050000D01*
X39680000Y-23950000D01*
X36320000Y-23950000D01*
X36320000Y-22050000D01*
%TO.C,R5*%
X79320000Y-60050000D02*
X82680000Y-60050000D01*
X82680000Y-61950000D01*
X79320000Y-61950000D01*
X79320000Y-60050000D01*
%TO.C,R7*%
X36320000Y-53050000D02*
X39680000Y-53050000D01*
X39680000Y-54950000D01*
X36320000Y-54950000D01*
X36320000Y-53050000D01*
%TO.C,R9*%
X36320000Y-67050000D02*
X39680000Y-67050000D01*
X39680000Y-68950000D01*
X36320000Y-68950000D01*
X36320000Y-67050000D01*
%TO.C,R20*%
X79320000Y-46050000D02*
X82680000Y-46050000D01*
X82680000Y-47950000D01*
X79320000Y-47950000D01*
X79320000Y-46050000D01*
%TO.C,R19*%
X79320000Y-39050000D02*
X82680000Y-39050000D01*
X82680000Y-40950000D01*
X79320000Y-40950000D01*
X79320000Y-39050000D01*
%TO.C,R8*%
X36320000Y-60050000D02*
X39680000Y-60050000D01*
X39680000Y-61950000D01*
X36320000Y-61950000D01*
X36320000Y-60050000D01*
%TO.C,R18*%
X36320000Y-46050000D02*
X39680000Y-46050000D01*
X39680000Y-47950000D01*
X36320000Y-47950000D01*
X36320000Y-46050000D01*
%TO.C,R16*%
X62320000Y-59050000D02*
X65680000Y-59050000D01*
X65680000Y-60950000D01*
X62320000Y-60950000D01*
X62320000Y-59050000D01*
%TO.C,R6*%
X79320000Y-67050000D02*
X82680000Y-67050000D01*
X82680000Y-68950000D01*
X79320000Y-68950000D01*
X79320000Y-67050000D01*
%TO.C,R17*%
X36320000Y-39050000D02*
X39680000Y-39050000D01*
X39680000Y-40950000D01*
X36320000Y-40950000D01*
X36320000Y-39050000D01*
%TO.C,R12*%
X79320000Y-29050000D02*
X82680000Y-29050000D01*
X82680000Y-30950000D01*
X79320000Y-30950000D01*
X79320000Y-29050000D01*
%TO.C,R1*%
X36320000Y-15050000D02*
X39680000Y-15050000D01*
X39680000Y-16950000D01*
X36320000Y-16950000D01*
X36320000Y-15050000D01*
%TO.C,R11*%
X79320000Y-22050000D02*
X82680000Y-22050000D01*
X82680000Y-23950000D01*
X79320000Y-23950000D01*
X79320000Y-22050000D01*
%TO.C,R3*%
X36320000Y-29050000D02*
X39680000Y-29050000D01*
X39680000Y-30950000D01*
X36320000Y-30950000D01*
X36320000Y-29050000D01*
%TO.C,R10*%
X79320000Y-15050000D02*
X82680000Y-15050000D01*
X82680000Y-16950000D01*
X79320000Y-16950000D01*
X79320000Y-15050000D01*
%TO.C,R4*%
X79320000Y-53050000D02*
X82680000Y-53050000D01*
X82680000Y-54950000D01*
X79320000Y-54950000D01*
X79320000Y-53050000D01*
%TO.C,R15*%
X53320000Y-59050000D02*
X56680000Y-59050000D01*
X56680000Y-60950000D01*
X53320000Y-60950000D01*
X53320000Y-59050000D01*
%TO.C,R13*%
X53320000Y-23050000D02*
X56680000Y-23050000D01*
X56680000Y-24950000D01*
X53320000Y-24950000D01*
X53320000Y-23050000D01*
%TD*%
M02*
