%TF.GenerationSoftware,KiCad,Pcbnew,10.0.4*%
%TF.CreationDate,2026-07-28T00:21:43+02:00*%
%TF.ProjectId,AmpelKreuzungLernplatine,416d7065-6c4b-4726-9575-7a756e674c65,rev?*%
%TF.SameCoordinates,Original*%
%TF.FileFunction,Copper,L1,Top*%
%TF.FilePolarity,Positive*%
%FSLAX46Y46*%
G04 Gerber Fmt 4.6, Leading zero omitted, Abs format (unit mm)*
G04 Created by KiCad (PCBNEW 10.0.4) date 2026-07-28 00:21:43*
%MOMM*%
%LPD*%
G01*
G04 APERTURE LIST*
%TA.AperFunction,ComponentPad*%
%ADD10R,1.800000X1.800000*%
%TD*%
%TA.AperFunction,ComponentPad*%
%ADD11C,1.800000*%
%TD*%
%TA.AperFunction,ComponentPad*%
%ADD12R,1.700000X1.700000*%
%TD*%
%TA.AperFunction,ComponentPad*%
%ADD13C,1.700000*%
%TD*%
%TA.AperFunction,ViaPad*%
%ADD14C,0.600000*%
%TD*%
%TA.AperFunction,Conductor*%
%ADD15C,0.400000*%
%TD*%
G04 APERTURE END LIST*
D10*
%TO.P,D7,1*%
%TO.N,K7*%
X44000000Y-54000000D03*
D11*
%TO.P,D7,2*%
%TO.N,EW_RED*%
X46540000Y-54000000D03*
%TD*%
D10*
%TO.P,D2,1*%
%TO.N,K2*%
X44000000Y-23000000D03*
D11*
%TO.P,D2,2*%
%TO.N,NS_YEL*%
X46540000Y-23000000D03*
%TD*%
D10*
%TO.P,D8,1*%
%TO.N,K8*%
X44000000Y-61000000D03*
D11*
%TO.P,D8,2*%
%TO.N,EW_YEL*%
X46540000Y-61000000D03*
%TD*%
D10*
%TO.P,D18,1*%
%TO.N,K18*%
X44000000Y-47000000D03*
D11*
%TO.P,D18,2*%
%TO.N,EW_PED_GRN*%
X46540000Y-47000000D03*
%TD*%
D10*
%TO.P,D5,1*%
%TO.N,K5*%
X74000000Y-61000000D03*
D11*
%TO.P,D5,2*%
%TO.N,NS_YEL*%
X76540000Y-61000000D03*
%TD*%
D10*
%TO.P,D14,1*%
%TO.N,K14*%
X64000000Y-16000000D03*
D11*
%TO.P,D14,2*%
%TO.N,NS_PED_GRN*%
X66540000Y-16000000D03*
%TD*%
D10*
%TO.P,D12,1*%
%TO.N,K12*%
X74000000Y-30000000D03*
D11*
%TO.P,D12,2*%
%TO.N,EW_GRN*%
X76540000Y-30000000D03*
%TD*%
D10*
%TO.P,D6,1*%
%TO.N,K6*%
X74000000Y-68000000D03*
D11*
%TO.P,D6,2*%
%TO.N,NS_GRN*%
X76540000Y-68000000D03*
%TD*%
D10*
%TO.P,D19,1*%
%TO.N,K19*%
X74000000Y-40000000D03*
D11*
%TO.P,D19,2*%
%TO.N,EW_PED_RED*%
X76540000Y-40000000D03*
%TD*%
D12*
%TO.P,U2,1*%
%TO.N,GND*%
X30860000Y-16000000D03*
D13*
%TO.P,U2,2*%
X30860000Y-18540000D03*
%TO.P,U2,3*%
%TO.N,N/C*%
X30860000Y-21080000D03*
%TO.P,U2,4*%
X30860000Y-23620000D03*
%TO.P,U2,5*%
X30860000Y-26160000D03*
%TO.P,U2,6*%
X30860000Y-28700000D03*
%TO.P,U2,7*%
X30860000Y-31240000D03*
%TO.P,U2,8*%
X30860000Y-33780000D03*
%TO.P,U2,9*%
X30860000Y-36320000D03*
%TO.P,U2,10*%
X30860000Y-38860000D03*
%TO.P,U2,11*%
X30860000Y-41400000D03*
%TO.P,U2,12*%
X30860000Y-43940000D03*
%TO.P,U2,13*%
X30860000Y-46480000D03*
%TO.P,U2,14*%
X30860000Y-49020000D03*
%TO.P,U2,15*%
X30860000Y-51560000D03*
%TO.P,U2,16*%
X30860000Y-54100000D03*
%TO.P,U2,17*%
X30860000Y-56640000D03*
%TO.P,U2,18*%
X30860000Y-59180000D03*
%TO.P,U2,19*%
X30860000Y-61720000D03*
%TO.P,U2,20*%
X30860000Y-64260000D03*
%TD*%
D10*
%TO.P,D16,1*%
%TO.N,K16*%
X64000000Y-68000000D03*
D11*
%TO.P,D16,2*%
%TO.N,NS_PED_GRN*%
X66540000Y-68000000D03*
%TD*%
D10*
%TO.P,D3,1*%
%TO.N,K3*%
X44000000Y-30000000D03*
D11*
%TO.P,D3,2*%
%TO.N,NS_GRN*%
X46540000Y-30000000D03*
%TD*%
D10*
%TO.P,D13,1*%
%TO.N,K13*%
X55000000Y-16000000D03*
D11*
%TO.P,D13,2*%
%TO.N,NS_PED_RED*%
X57540000Y-16000000D03*
%TD*%
D10*
%TO.P,D10,1*%
%TO.N,K10*%
X74000000Y-16000000D03*
D11*
%TO.P,D10,2*%
%TO.N,EW_RED*%
X76540000Y-16000000D03*
%TD*%
D10*
%TO.P,D4,1*%
%TO.N,K4*%
X74000000Y-54000000D03*
D11*
%TO.P,D4,2*%
%TO.N,NS_RED*%
X76540000Y-54000000D03*
%TD*%
D12*
%TO.P,J1,1*%
%TO.N,N/C*%
X85000000Y-16000000D03*
D13*
%TO.P,J1,2*%
X87540000Y-16000000D03*
%TO.P,J1,3*%
%TO.N,NS_RED*%
X85000000Y-18540000D03*
%TO.P,J1,4*%
%TO.N,N/C*%
X87540000Y-18540000D03*
%TO.P,J1,5*%
%TO.N,NS_YEL*%
X85000000Y-21080000D03*
%TO.P,J1,6*%
%TO.N,N/C*%
X87540000Y-21080000D03*
%TO.P,J1,7*%
%TO.N,NS_GRN*%
X85000000Y-23620000D03*
%TO.P,J1,8*%
%TO.N,N/C*%
X87540000Y-23620000D03*
%TO.P,J1,9*%
X85000000Y-26160000D03*
%TO.P,J1,10*%
X87540000Y-26160000D03*
%TO.P,J1,11*%
%TO.N,EW_RED*%
X85000000Y-28700000D03*
%TO.P,J1,12*%
%TO.N,N/C*%
X87540000Y-28700000D03*
%TO.P,J1,13*%
%TO.N,EW_YEL*%
X85000000Y-31240000D03*
%TO.P,J1,14*%
%TO.N,N/C*%
X87540000Y-31240000D03*
%TO.P,J1,15*%
%TO.N,EW_GRN*%
X85000000Y-33780000D03*
%TO.P,J1,16*%
%TO.N,N/C*%
X87540000Y-33780000D03*
%TO.P,J1,17*%
X85000000Y-36320000D03*
%TO.P,J1,18*%
X87540000Y-36320000D03*
%TO.P,J1,19*%
%TO.N,NS_PED_RED*%
X85000000Y-38860000D03*
%TO.P,J1,20*%
%TO.N,N/C*%
X87540000Y-38860000D03*
%TO.P,J1,21*%
%TO.N,NS_PED_GRN*%
X85000000Y-41400000D03*
%TO.P,J1,22*%
%TO.N,N/C*%
X87540000Y-41400000D03*
%TO.P,J1,23*%
%TO.N,EW_PED_RED*%
X85000000Y-43940000D03*
%TO.P,J1,24*%
%TO.N,N/C*%
X87540000Y-43940000D03*
%TO.P,J1,25*%
X85000000Y-46480000D03*
%TO.P,J1,26*%
X87540000Y-46480000D03*
%TO.P,J1,27*%
X85000000Y-49020000D03*
%TO.P,J1,28*%
X87540000Y-49020000D03*
%TO.P,J1,29*%
%TO.N,EW_PED_GRN*%
X85000000Y-51560000D03*
%TO.P,J1,30*%
%TO.N,N/C*%
X87540000Y-51560000D03*
%TO.P,J1,31*%
X85000000Y-54100000D03*
%TO.P,J1,32*%
X87540000Y-54100000D03*
%TO.P,J1,33*%
X85000000Y-56640000D03*
%TO.P,J1,34*%
X87540000Y-56640000D03*
%TO.P,J1,35*%
X85000000Y-59180000D03*
%TO.P,J1,36*%
X87540000Y-59180000D03*
%TO.P,J1,37*%
X85000000Y-61720000D03*
%TO.P,J1,38*%
X87540000Y-61720000D03*
%TO.P,J1,39*%
%TO.N,GND*%
X85000000Y-64260000D03*
%TO.P,J1,40*%
%TO.N,N/C*%
X87540000Y-64260000D03*
%TD*%
D10*
%TO.P,D20,1*%
%TO.N,K20*%
X74000000Y-47000000D03*
D11*
%TO.P,D20,2*%
%TO.N,EW_PED_GRN*%
X76540000Y-47000000D03*
%TD*%
D10*
%TO.P,D11,1*%
%TO.N,K11*%
X74000000Y-23000000D03*
D11*
%TO.P,D11,2*%
%TO.N,EW_YEL*%
X76540000Y-23000000D03*
%TD*%
D10*
%TO.P,D9,1*%
%TO.N,K9*%
X44000000Y-68000000D03*
D11*
%TO.P,D9,2*%
%TO.N,EW_GRN*%
X46540000Y-68000000D03*
%TD*%
D12*
%TO.P,U1,1*%
%TO.N,N/C*%
X8000000Y-16000000D03*
D13*
%TO.P,U1,2*%
X8000000Y-18540000D03*
%TO.P,U1,3*%
X8000000Y-21080000D03*
%TO.P,U1,4*%
X8000000Y-23620000D03*
%TO.P,U1,5*%
%TO.N,NS_RED*%
X8000000Y-26160000D03*
%TO.P,U1,6*%
%TO.N,NS_YEL*%
X8000000Y-28700000D03*
%TO.P,U1,7*%
%TO.N,NS_GRN*%
X8000000Y-31240000D03*
%TO.P,U1,8*%
%TO.N,EW_RED*%
X8000000Y-33780000D03*
%TO.P,U1,9*%
%TO.N,EW_YEL*%
X8000000Y-36320000D03*
%TO.P,U1,10*%
%TO.N,EW_GRN*%
X8000000Y-38860000D03*
%TO.P,U1,11*%
%TO.N,NS_PED_RED*%
X8000000Y-41400000D03*
%TO.P,U1,12*%
%TO.N,NS_PED_GRN*%
X8000000Y-43940000D03*
%TO.P,U1,13*%
%TO.N,EW_PED_RED*%
X8000000Y-46480000D03*
%TO.P,U1,14*%
%TO.N,EW_PED_GRN*%
X8000000Y-49020000D03*
%TO.P,U1,15*%
%TO.N,N/C*%
X8000000Y-51560000D03*
%TO.P,U1,16*%
X8000000Y-54100000D03*
%TO.P,U1,17*%
X8000000Y-56640000D03*
%TO.P,U1,18*%
X8000000Y-59180000D03*
%TO.P,U1,19*%
%TO.N,GND*%
X8000000Y-61720000D03*
%TO.P,U1,20*%
X8000000Y-64260000D03*
%TD*%
D10*
%TO.P,D15,1*%
%TO.N,K15*%
X55000000Y-68000000D03*
D11*
%TO.P,D15,2*%
%TO.N,NS_PED_RED*%
X57540000Y-68000000D03*
%TD*%
D10*
%TO.P,D1,1*%
%TO.N,K1*%
X44000000Y-16000000D03*
D11*
%TO.P,D1,2*%
%TO.N,NS_RED*%
X46540000Y-16000000D03*
%TD*%
D10*
%TO.P,D17,1*%
%TO.N,K17*%
X44000000Y-40000000D03*
D11*
%TO.P,D17,2*%
%TO.N,EW_PED_RED*%
X46540000Y-40000000D03*
%TD*%
D14*
%TO.N,EW_RED*%
X49460600Y-31088400D03*
%TO.N,NS_YEL*%
X48720400Y-60792400D03*
%TO.N,EW_YEL*%
X49460600Y-34058800D03*
%TO.N,K14*%
X64095000Y-21995500D03*
%TO.N,NS_PED_GRN*%
X10214900Y-66733200D03*
%TO.N,EW_GRN*%
X16145900Y-60755600D03*
X54421400Y-37029200D03*
%TO.N,NS_GRN*%
X63348900Y-25753100D03*
%TO.N,EW_PED_RED*%
X28737000Y-62899700D03*
%TO.N,GND*%
X63087500Y-60000000D03*
X37087500Y-61000000D03*
X37087500Y-47000000D03*
X37087500Y-16000000D03*
X37087500Y-23000000D03*
X37087500Y-30000000D03*
X37087500Y-54000000D03*
X80087500Y-47000000D03*
X80087500Y-23000000D03*
X37087500Y-40000000D03*
X80087500Y-68000000D03*
X80087500Y-54000000D03*
X80087500Y-40000000D03*
X80087500Y-30000000D03*
X80087500Y-16000000D03*
X80087500Y-61000000D03*
X54087500Y-24000000D03*
X37087500Y-68000000D03*
X54087500Y-60000000D03*
X63087500Y-24000000D03*
%TO.N,K13*%
X56086900Y-22289500D03*
%TO.N,NS_PED_RED*%
X13162000Y-60792400D03*
X57540000Y-39867900D03*
%TO.N,NS_RED*%
X64468100Y-18540000D03*
%TD*%
%TO.N,EW_RED*%
D15*
X27180200Y-14599800D02*
X32748200Y-14599800D01*
X85000000Y-28700000D02*
X81864900Y-25564900D01*
X48658900Y-51881100D02*
X46540000Y-54000000D01*
X8000000Y-33780000D02*
X27180200Y-14599800D01*
X49460600Y-31088400D02*
X48658900Y-31890100D01*
X48658900Y-31890100D02*
X48658900Y-51881100D01*
X49460600Y-30820900D02*
X49460600Y-31088400D01*
X81864900Y-21324900D02*
X76540000Y-16000000D01*
X32748200Y-14599800D02*
X45594400Y-27446000D01*
X45594400Y-27446000D02*
X46085700Y-27446000D01*
X81864900Y-25564900D02*
X81864900Y-21324900D01*
X46085700Y-27446000D02*
X49460600Y-30820900D01*
%TO.N,NS_YEL*%
X50123800Y-36518100D02*
X50262300Y-36379600D01*
X50262300Y-26722300D02*
X46540000Y-23000000D01*
X50123800Y-59389000D02*
X50123800Y-36518100D01*
X50262300Y-36379600D02*
X50262300Y-26722300D01*
X48720400Y-60792400D02*
X50123800Y-59389000D01*
%TO.N,EW_YEL*%
X85000000Y-31240000D02*
X76760000Y-23000000D01*
X46540000Y-61000000D02*
X49422100Y-58117900D01*
X41222800Y-66317200D02*
X46540000Y-61000000D01*
X49422100Y-58117900D02*
X49422100Y-34097300D01*
X49422100Y-34097300D02*
X49460600Y-34058800D01*
X27888500Y-64245400D02*
X29960300Y-66317200D01*
X27888500Y-56208500D02*
X27888500Y-64245400D01*
X29960300Y-66317200D02*
X41222800Y-66317200D01*
X8000000Y-36320000D02*
X27888500Y-56208500D01*
X76760000Y-23000000D02*
X76540000Y-23000000D01*
%TO.N,K14*%
X64000000Y-17401700D02*
X63666400Y-17735300D01*
X64095000Y-21995500D02*
X64000000Y-21995500D01*
X64000000Y-16000000D02*
X64000000Y-17401700D01*
X64093400Y-21995500D02*
X64095000Y-21995500D01*
X64095000Y-21995500D02*
X64093400Y-21995500D01*
X63666400Y-21566900D02*
X64095000Y-21995500D01*
X63666400Y-17735300D02*
X63666400Y-21566900D01*
X64000000Y-21995500D02*
X64095000Y-21995500D01*
%TO.N,NS_PED_GRN*%
X67996400Y-69456400D02*
X77070500Y-69456400D01*
X66540000Y-68000000D02*
X67996400Y-69456400D01*
X77995800Y-45510800D02*
X77001300Y-45510800D01*
X78812300Y-45510800D02*
X77995800Y-45510800D01*
X77070500Y-69456400D02*
X77995800Y-68531100D01*
X66540000Y-35049500D02*
X66540000Y-16000000D01*
X78812300Y-45510800D02*
X79212300Y-45510800D01*
X8000000Y-43940000D02*
X10214900Y-46154900D01*
X85000000Y-41400000D02*
X80889200Y-45510800D01*
X77001300Y-45510800D02*
X66540000Y-35049500D01*
X79212300Y-45510800D02*
X80889200Y-45510800D01*
X77995800Y-68531100D02*
X77995800Y-45510800D01*
X10214900Y-46154900D02*
X10214900Y-66733200D01*
%TO.N,EW_GRN*%
X16145900Y-47005900D02*
X8000000Y-38860000D01*
X16145900Y-60755600D02*
X16145900Y-47005900D01*
X50825500Y-63714500D02*
X50825500Y-40625100D01*
X50825500Y-40625100D02*
X54421400Y-37029200D01*
X46540000Y-68000000D02*
X50825500Y-63714500D01*
%TO.N,NS_GRN*%
X63348900Y-54808900D02*
X76540000Y-68000000D01*
X63348900Y-25753100D02*
X63348900Y-54808900D01*
%TO.N,EW_PED_RED*%
X31431300Y-65615500D02*
X32211700Y-64835100D01*
X28737000Y-62899700D02*
X28737000Y-64101600D01*
X28737000Y-64101600D02*
X30250900Y-65615500D01*
X32211700Y-64835100D02*
X32211700Y-54328300D01*
X32211700Y-54328300D02*
X46540000Y-40000000D01*
X30250900Y-65615500D02*
X31431300Y-65615500D01*
%TO.N,K13*%
X56086900Y-22289500D02*
X56086900Y-22463900D01*
X55000000Y-21202600D02*
X56086900Y-22289500D01*
X56086900Y-22463900D02*
X56086900Y-22289500D01*
X55000000Y-16000000D02*
X55000000Y-21202600D01*
%TO.N,NS_PED_RED*%
X13162000Y-46562000D02*
X13162000Y-60792400D01*
X57540000Y-46877000D02*
X57540000Y-39867900D01*
X57540000Y-68000000D02*
X57540000Y-47048500D01*
X57540000Y-39867900D02*
X57540000Y-16000000D01*
X8000000Y-41400000D02*
X13162000Y-46562000D01*
X57540000Y-46965800D02*
X57540000Y-46877000D01*
X57540000Y-47048500D02*
X57540000Y-46965800D01*
%TO.N,NS_RED*%
X64468100Y-19206800D02*
X64468100Y-18540000D01*
X65615100Y-20353800D02*
X65615100Y-43075100D01*
X65615100Y-43075100D02*
X76540000Y-54000000D01*
X64468100Y-19206800D02*
X65615100Y-20353800D01*
%TD*%
M02*
