%TF.GenerationSoftware,KiCad,Pcbnew,10.0.4*%
%TF.CreationDate,2026-07-28T00:21:43+02:00*%
%TF.ProjectId,AmpelKreuzungLernplatine,416d7065-6c4b-4726-9575-7a756e674c65,rev?*%
%TF.SameCoordinates,Original*%
%TF.FileFunction,AssemblyDrawing,Top*%
%FSLAX46Y46*%
G04 Gerber Fmt 4.6, Leading zero omitted, Abs format (unit mm)*
G04 Created by KiCad (PCBNEW 10.0.4) date 2026-07-28 00:21:43*
%MOMM*%
%LPD*%
G01*
G04 APERTURE LIST*
%ADD10C,0.150000*%
%ADD11C,0.120000*%
%ADD12C,0.158750*%
%ADD13C,0.100000*%
G04 APERTURE END LIST*
D10*
X44627142Y-58414819D02*
X44293809Y-57938628D01*
X44055714Y-58414819D02*
X44055714Y-57414819D01*
X44055714Y-57414819D02*
X44436666Y-57414819D01*
X44436666Y-57414819D02*
X44531904Y-57462438D01*
X44531904Y-57462438D02*
X44579523Y-57510057D01*
X44579523Y-57510057D02*
X44627142Y-57605295D01*
X44627142Y-57605295D02*
X44627142Y-57748152D01*
X44627142Y-57748152D02*
X44579523Y-57843390D01*
X44579523Y-57843390D02*
X44531904Y-57891009D01*
X44531904Y-57891009D02*
X44436666Y-57938628D01*
X44436666Y-57938628D02*
X44055714Y-57938628D01*
X45055714Y-57891009D02*
X45389047Y-57891009D01*
X45531904Y-58414819D02*
X45055714Y-58414819D01*
X45055714Y-58414819D02*
X45055714Y-57414819D01*
X45055714Y-57414819D02*
X45531904Y-57414819D01*
X45960476Y-58414819D02*
X45960476Y-57414819D01*
X45960476Y-57414819D02*
X46198571Y-57414819D01*
X46198571Y-57414819D02*
X46341428Y-57462438D01*
X46341428Y-57462438D02*
X46436666Y-57557676D01*
X46436666Y-57557676D02*
X46484285Y-57652914D01*
X46484285Y-57652914D02*
X46531904Y-57843390D01*
X46531904Y-57843390D02*
X46531904Y-57986247D01*
X46531904Y-57986247D02*
X46484285Y-58176723D01*
X46484285Y-58176723D02*
X46436666Y-58271961D01*
X46436666Y-58271961D02*
X46341428Y-58367200D01*
X46341428Y-58367200D02*
X46198571Y-58414819D01*
X46198571Y-58414819D02*
X45960476Y-58414819D01*
D11*
X44679524Y-54363855D02*
X44679524Y-53563855D01*
X44679524Y-53563855D02*
X44870000Y-53563855D01*
X44870000Y-53563855D02*
X44984286Y-53601950D01*
X44984286Y-53601950D02*
X45060476Y-53678140D01*
X45060476Y-53678140D02*
X45098571Y-53754331D01*
X45098571Y-53754331D02*
X45136667Y-53906712D01*
X45136667Y-53906712D02*
X45136667Y-54020998D01*
X45136667Y-54020998D02*
X45098571Y-54173379D01*
X45098571Y-54173379D02*
X45060476Y-54249569D01*
X45060476Y-54249569D02*
X44984286Y-54325760D01*
X44984286Y-54325760D02*
X44870000Y-54363855D01*
X44870000Y-54363855D02*
X44679524Y-54363855D01*
X45403333Y-53563855D02*
X45936667Y-53563855D01*
X45936667Y-53563855D02*
X45593809Y-54363855D01*
D12*
X85233094Y-5579271D02*
X85233094Y-4309271D01*
X85233094Y-4309271D02*
X85656428Y-5216414D01*
X85656428Y-5216414D02*
X86079761Y-4309271D01*
X86079761Y-4309271D02*
X86079761Y-5579271D01*
X86865952Y-5579271D02*
X86745000Y-5518795D01*
X86745000Y-5518795D02*
X86684523Y-5458318D01*
X86684523Y-5458318D02*
X86624047Y-5337366D01*
X86624047Y-5337366D02*
X86624047Y-4974509D01*
X86624047Y-4974509D02*
X86684523Y-4853556D01*
X86684523Y-4853556D02*
X86745000Y-4793080D01*
X86745000Y-4793080D02*
X86865952Y-4732604D01*
X86865952Y-4732604D02*
X87047381Y-4732604D01*
X87047381Y-4732604D02*
X87168333Y-4793080D01*
X87168333Y-4793080D02*
X87228809Y-4853556D01*
X87228809Y-4853556D02*
X87289285Y-4974509D01*
X87289285Y-4974509D02*
X87289285Y-5337366D01*
X87289285Y-5337366D02*
X87228809Y-5458318D01*
X87228809Y-5458318D02*
X87168333Y-5518795D01*
X87168333Y-5518795D02*
X87047381Y-5579271D01*
X87047381Y-5579271D02*
X86865952Y-5579271D01*
X88377857Y-4732604D02*
X88377857Y-5579271D01*
X87833571Y-4732604D02*
X87833571Y-5397842D01*
X87833571Y-5397842D02*
X87894048Y-5518795D01*
X87894048Y-5518795D02*
X88015000Y-5579271D01*
X88015000Y-5579271D02*
X88196429Y-5579271D01*
X88196429Y-5579271D02*
X88317381Y-5518795D01*
X88317381Y-5518795D02*
X88377857Y-5458318D01*
X88982619Y-4732604D02*
X88982619Y-5579271D01*
X88982619Y-4853556D02*
X89043096Y-4793080D01*
X89043096Y-4793080D02*
X89164048Y-4732604D01*
X89164048Y-4732604D02*
X89345477Y-4732604D01*
X89345477Y-4732604D02*
X89466429Y-4793080D01*
X89466429Y-4793080D02*
X89526905Y-4914033D01*
X89526905Y-4914033D02*
X89526905Y-5579271D01*
X89950239Y-4732604D02*
X90434048Y-4732604D01*
X90131667Y-4309271D02*
X90131667Y-5397842D01*
X90131667Y-5397842D02*
X90192144Y-5518795D01*
X90192144Y-5518795D02*
X90313096Y-5579271D01*
X90313096Y-5579271D02*
X90434048Y-5579271D01*
X90857381Y-5579271D02*
X90857381Y-4732604D01*
X90857381Y-4309271D02*
X90796905Y-4369747D01*
X90796905Y-4369747D02*
X90857381Y-4430223D01*
X90857381Y-4430223D02*
X90917858Y-4369747D01*
X90917858Y-4369747D02*
X90857381Y-4309271D01*
X90857381Y-4309271D02*
X90857381Y-4430223D01*
X91462143Y-4732604D02*
X91462143Y-5579271D01*
X91462143Y-4853556D02*
X91522620Y-4793080D01*
X91522620Y-4793080D02*
X91643572Y-4732604D01*
X91643572Y-4732604D02*
X91825001Y-4732604D01*
X91825001Y-4732604D02*
X91945953Y-4793080D01*
X91945953Y-4793080D02*
X92006429Y-4914033D01*
X92006429Y-4914033D02*
X92006429Y-5579271D01*
X93155477Y-4732604D02*
X93155477Y-5760699D01*
X93155477Y-5760699D02*
X93095001Y-5881652D01*
X93095001Y-5881652D02*
X93034525Y-5942128D01*
X93034525Y-5942128D02*
X92913572Y-6002604D01*
X92913572Y-6002604D02*
X92732144Y-6002604D01*
X92732144Y-6002604D02*
X92611191Y-5942128D01*
X93155477Y-5518795D02*
X93034525Y-5579271D01*
X93034525Y-5579271D02*
X92792620Y-5579271D01*
X92792620Y-5579271D02*
X92671668Y-5518795D01*
X92671668Y-5518795D02*
X92611191Y-5458318D01*
X92611191Y-5458318D02*
X92550715Y-5337366D01*
X92550715Y-5337366D02*
X92550715Y-4974509D01*
X92550715Y-4974509D02*
X92611191Y-4853556D01*
X92611191Y-4853556D02*
X92671668Y-4793080D01*
X92671668Y-4793080D02*
X92792620Y-4732604D01*
X92792620Y-4732604D02*
X93034525Y-4732604D01*
X93034525Y-4732604D02*
X93155477Y-4793080D01*
X93760239Y-5579271D02*
X93760239Y-4309271D01*
X93760239Y-4914033D02*
X94485954Y-4914033D01*
X94485954Y-5579271D02*
X94485954Y-4309271D01*
X95272144Y-5579271D02*
X95151192Y-5518795D01*
X95151192Y-5518795D02*
X95090715Y-5458318D01*
X95090715Y-5458318D02*
X95030239Y-5337366D01*
X95030239Y-5337366D02*
X95030239Y-4974509D01*
X95030239Y-4974509D02*
X95090715Y-4853556D01*
X95090715Y-4853556D02*
X95151192Y-4793080D01*
X95151192Y-4793080D02*
X95272144Y-4732604D01*
X95272144Y-4732604D02*
X95453573Y-4732604D01*
X95453573Y-4732604D02*
X95574525Y-4793080D01*
X95574525Y-4793080D02*
X95635001Y-4853556D01*
X95635001Y-4853556D02*
X95695477Y-4974509D01*
X95695477Y-4974509D02*
X95695477Y-5337366D01*
X95695477Y-5337366D02*
X95635001Y-5458318D01*
X95635001Y-5458318D02*
X95574525Y-5518795D01*
X95574525Y-5518795D02*
X95453573Y-5579271D01*
X95453573Y-5579271D02*
X95272144Y-5579271D01*
X96421192Y-5579271D02*
X96300240Y-5518795D01*
X96300240Y-5518795D02*
X96239763Y-5397842D01*
X96239763Y-5397842D02*
X96239763Y-4309271D01*
X97388811Y-5518795D02*
X97267859Y-5579271D01*
X97267859Y-5579271D02*
X97025954Y-5579271D01*
X97025954Y-5579271D02*
X96905001Y-5518795D01*
X96905001Y-5518795D02*
X96844525Y-5397842D01*
X96844525Y-5397842D02*
X96844525Y-4914033D01*
X96844525Y-4914033D02*
X96905001Y-4793080D01*
X96905001Y-4793080D02*
X97025954Y-4732604D01*
X97025954Y-4732604D02*
X97267859Y-4732604D01*
X97267859Y-4732604D02*
X97388811Y-4793080D01*
X97388811Y-4793080D02*
X97449287Y-4914033D01*
X97449287Y-4914033D02*
X97449287Y-5034985D01*
X97449287Y-5034985D02*
X96844525Y-5155937D01*
X97691192Y-5700223D02*
X98658811Y-5700223D01*
X98840239Y-4309271D02*
X99626430Y-4309271D01*
X99626430Y-4309271D02*
X99203096Y-4793080D01*
X99203096Y-4793080D02*
X99384525Y-4793080D01*
X99384525Y-4793080D02*
X99505477Y-4853556D01*
X99505477Y-4853556D02*
X99565953Y-4914033D01*
X99565953Y-4914033D02*
X99626430Y-5034985D01*
X99626430Y-5034985D02*
X99626430Y-5337366D01*
X99626430Y-5337366D02*
X99565953Y-5458318D01*
X99565953Y-5458318D02*
X99505477Y-5518795D01*
X99505477Y-5518795D02*
X99384525Y-5579271D01*
X99384525Y-5579271D02*
X99021668Y-5579271D01*
X99021668Y-5579271D02*
X98900715Y-5518795D01*
X98900715Y-5518795D02*
X98840239Y-5458318D01*
X100170715Y-5458318D02*
X100231192Y-5518795D01*
X100231192Y-5518795D02*
X100170715Y-5579271D01*
X100170715Y-5579271D02*
X100110239Y-5518795D01*
X100110239Y-5518795D02*
X100170715Y-5458318D01*
X100170715Y-5458318D02*
X100170715Y-5579271D01*
X100715001Y-4430223D02*
X100775477Y-4369747D01*
X100775477Y-4369747D02*
X100896430Y-4309271D01*
X100896430Y-4309271D02*
X101198811Y-4309271D01*
X101198811Y-4309271D02*
X101319763Y-4369747D01*
X101319763Y-4369747D02*
X101380239Y-4430223D01*
X101380239Y-4430223D02*
X101440716Y-4551175D01*
X101440716Y-4551175D02*
X101440716Y-4672128D01*
X101440716Y-4672128D02*
X101380239Y-4853556D01*
X101380239Y-4853556D02*
X100654525Y-5579271D01*
X100654525Y-5579271D02*
X101440716Y-5579271D01*
X101985001Y-5579271D02*
X101985001Y-4732604D01*
X101985001Y-4853556D02*
X102045478Y-4793080D01*
X102045478Y-4793080D02*
X102166430Y-4732604D01*
X102166430Y-4732604D02*
X102347859Y-4732604D01*
X102347859Y-4732604D02*
X102468811Y-4793080D01*
X102468811Y-4793080D02*
X102529287Y-4914033D01*
X102529287Y-4914033D02*
X102529287Y-5579271D01*
X102529287Y-4914033D02*
X102589763Y-4793080D01*
X102589763Y-4793080D02*
X102710716Y-4732604D01*
X102710716Y-4732604D02*
X102892144Y-4732604D01*
X102892144Y-4732604D02*
X103013097Y-4793080D01*
X103013097Y-4793080D02*
X103073573Y-4914033D01*
X103073573Y-4914033D02*
X103073573Y-5579271D01*
X103678334Y-5579271D02*
X103678334Y-4732604D01*
X103678334Y-4853556D02*
X103738811Y-4793080D01*
X103738811Y-4793080D02*
X103859763Y-4732604D01*
X103859763Y-4732604D02*
X104041192Y-4732604D01*
X104041192Y-4732604D02*
X104162144Y-4793080D01*
X104162144Y-4793080D02*
X104222620Y-4914033D01*
X104222620Y-4914033D02*
X104222620Y-5579271D01*
X104222620Y-4914033D02*
X104283096Y-4793080D01*
X104283096Y-4793080D02*
X104404049Y-4732604D01*
X104404049Y-4732604D02*
X104585477Y-4732604D01*
X104585477Y-4732604D02*
X104706430Y-4793080D01*
X104706430Y-4793080D02*
X104766906Y-4914033D01*
X104766906Y-4914033D02*
X104766906Y-5579271D01*
X-4766905Y-75579271D02*
X-4766905Y-74309271D01*
X-4766905Y-74309271D02*
X-4343571Y-75216414D01*
X-4343571Y-75216414D02*
X-3920238Y-74309271D01*
X-3920238Y-74309271D02*
X-3920238Y-75579271D01*
X-3134047Y-75579271D02*
X-3254999Y-75518795D01*
X-3254999Y-75518795D02*
X-3315476Y-75458318D01*
X-3315476Y-75458318D02*
X-3375952Y-75337366D01*
X-3375952Y-75337366D02*
X-3375952Y-74974509D01*
X-3375952Y-74974509D02*
X-3315476Y-74853556D01*
X-3315476Y-74853556D02*
X-3254999Y-74793080D01*
X-3254999Y-74793080D02*
X-3134047Y-74732604D01*
X-3134047Y-74732604D02*
X-2952618Y-74732604D01*
X-2952618Y-74732604D02*
X-2831666Y-74793080D01*
X-2831666Y-74793080D02*
X-2771190Y-74853556D01*
X-2771190Y-74853556D02*
X-2710714Y-74974509D01*
X-2710714Y-74974509D02*
X-2710714Y-75337366D01*
X-2710714Y-75337366D02*
X-2771190Y-75458318D01*
X-2771190Y-75458318D02*
X-2831666Y-75518795D01*
X-2831666Y-75518795D02*
X-2952618Y-75579271D01*
X-2952618Y-75579271D02*
X-3134047Y-75579271D01*
X-1622142Y-74732604D02*
X-1622142Y-75579271D01*
X-2166428Y-74732604D02*
X-2166428Y-75397842D01*
X-2166428Y-75397842D02*
X-2105951Y-75518795D01*
X-2105951Y-75518795D02*
X-1984999Y-75579271D01*
X-1984999Y-75579271D02*
X-1803570Y-75579271D01*
X-1803570Y-75579271D02*
X-1682618Y-75518795D01*
X-1682618Y-75518795D02*
X-1622142Y-75458318D01*
X-1017380Y-74732604D02*
X-1017380Y-75579271D01*
X-1017380Y-74853556D02*
X-956903Y-74793080D01*
X-956903Y-74793080D02*
X-835951Y-74732604D01*
X-835951Y-74732604D02*
X-654522Y-74732604D01*
X-654522Y-74732604D02*
X-533570Y-74793080D01*
X-533570Y-74793080D02*
X-473094Y-74914033D01*
X-473094Y-74914033D02*
X-473094Y-75579271D01*
X-49760Y-74732604D02*
X434048Y-74732604D01*
X131667Y-74309271D02*
X131667Y-75397842D01*
X131667Y-75397842D02*
X192144Y-75518795D01*
X192144Y-75518795D02*
X313096Y-75579271D01*
X313096Y-75579271D02*
X434048Y-75579271D01*
X857381Y-75579271D02*
X857381Y-74732604D01*
X857381Y-74309271D02*
X796905Y-74369747D01*
X796905Y-74369747D02*
X857381Y-74430223D01*
X857381Y-74430223D02*
X917858Y-74369747D01*
X917858Y-74369747D02*
X857381Y-74309271D01*
X857381Y-74309271D02*
X857381Y-74430223D01*
X1462143Y-74732604D02*
X1462143Y-75579271D01*
X1462143Y-74853556D02*
X1522620Y-74793080D01*
X1522620Y-74793080D02*
X1643572Y-74732604D01*
X1643572Y-74732604D02*
X1825001Y-74732604D01*
X1825001Y-74732604D02*
X1945953Y-74793080D01*
X1945953Y-74793080D02*
X2006429Y-74914033D01*
X2006429Y-74914033D02*
X2006429Y-75579271D01*
X3155477Y-74732604D02*
X3155477Y-75760699D01*
X3155477Y-75760699D02*
X3095001Y-75881652D01*
X3095001Y-75881652D02*
X3034525Y-75942128D01*
X3034525Y-75942128D02*
X2913572Y-76002604D01*
X2913572Y-76002604D02*
X2732144Y-76002604D01*
X2732144Y-76002604D02*
X2611191Y-75942128D01*
X3155477Y-75518795D02*
X3034525Y-75579271D01*
X3034525Y-75579271D02*
X2792620Y-75579271D01*
X2792620Y-75579271D02*
X2671668Y-75518795D01*
X2671668Y-75518795D02*
X2611191Y-75458318D01*
X2611191Y-75458318D02*
X2550715Y-75337366D01*
X2550715Y-75337366D02*
X2550715Y-74974509D01*
X2550715Y-74974509D02*
X2611191Y-74853556D01*
X2611191Y-74853556D02*
X2671668Y-74793080D01*
X2671668Y-74793080D02*
X2792620Y-74732604D01*
X2792620Y-74732604D02*
X3034525Y-74732604D01*
X3034525Y-74732604D02*
X3155477Y-74793080D01*
X3760239Y-75579271D02*
X3760239Y-74309271D01*
X3760239Y-74914033D02*
X4485954Y-74914033D01*
X4485954Y-75579271D02*
X4485954Y-74309271D01*
X5272144Y-75579271D02*
X5151192Y-75518795D01*
X5151192Y-75518795D02*
X5090715Y-75458318D01*
X5090715Y-75458318D02*
X5030239Y-75337366D01*
X5030239Y-75337366D02*
X5030239Y-74974509D01*
X5030239Y-74974509D02*
X5090715Y-74853556D01*
X5090715Y-74853556D02*
X5151192Y-74793080D01*
X5151192Y-74793080D02*
X5272144Y-74732604D01*
X5272144Y-74732604D02*
X5453573Y-74732604D01*
X5453573Y-74732604D02*
X5574525Y-74793080D01*
X5574525Y-74793080D02*
X5635001Y-74853556D01*
X5635001Y-74853556D02*
X5695477Y-74974509D01*
X5695477Y-74974509D02*
X5695477Y-75337366D01*
X5695477Y-75337366D02*
X5635001Y-75458318D01*
X5635001Y-75458318D02*
X5574525Y-75518795D01*
X5574525Y-75518795D02*
X5453573Y-75579271D01*
X5453573Y-75579271D02*
X5272144Y-75579271D01*
X6421192Y-75579271D02*
X6300240Y-75518795D01*
X6300240Y-75518795D02*
X6239763Y-75397842D01*
X6239763Y-75397842D02*
X6239763Y-74309271D01*
X7388811Y-75518795D02*
X7267859Y-75579271D01*
X7267859Y-75579271D02*
X7025954Y-75579271D01*
X7025954Y-75579271D02*
X6905001Y-75518795D01*
X6905001Y-75518795D02*
X6844525Y-75397842D01*
X6844525Y-75397842D02*
X6844525Y-74914033D01*
X6844525Y-74914033D02*
X6905001Y-74793080D01*
X6905001Y-74793080D02*
X7025954Y-74732604D01*
X7025954Y-74732604D02*
X7267859Y-74732604D01*
X7267859Y-74732604D02*
X7388811Y-74793080D01*
X7388811Y-74793080D02*
X7449287Y-74914033D01*
X7449287Y-74914033D02*
X7449287Y-75034985D01*
X7449287Y-75034985D02*
X6844525Y-75155937D01*
X7691192Y-75700223D02*
X8658811Y-75700223D01*
X8840239Y-74309271D02*
X9626430Y-74309271D01*
X9626430Y-74309271D02*
X9203096Y-74793080D01*
X9203096Y-74793080D02*
X9384525Y-74793080D01*
X9384525Y-74793080D02*
X9505477Y-74853556D01*
X9505477Y-74853556D02*
X9565953Y-74914033D01*
X9565953Y-74914033D02*
X9626430Y-75034985D01*
X9626430Y-75034985D02*
X9626430Y-75337366D01*
X9626430Y-75337366D02*
X9565953Y-75458318D01*
X9565953Y-75458318D02*
X9505477Y-75518795D01*
X9505477Y-75518795D02*
X9384525Y-75579271D01*
X9384525Y-75579271D02*
X9021668Y-75579271D01*
X9021668Y-75579271D02*
X8900715Y-75518795D01*
X8900715Y-75518795D02*
X8840239Y-75458318D01*
X10170715Y-75458318D02*
X10231192Y-75518795D01*
X10231192Y-75518795D02*
X10170715Y-75579271D01*
X10170715Y-75579271D02*
X10110239Y-75518795D01*
X10110239Y-75518795D02*
X10170715Y-75458318D01*
X10170715Y-75458318D02*
X10170715Y-75579271D01*
X10715001Y-74430223D02*
X10775477Y-74369747D01*
X10775477Y-74369747D02*
X10896430Y-74309271D01*
X10896430Y-74309271D02*
X11198811Y-74309271D01*
X11198811Y-74309271D02*
X11319763Y-74369747D01*
X11319763Y-74369747D02*
X11380239Y-74430223D01*
X11380239Y-74430223D02*
X11440716Y-74551175D01*
X11440716Y-74551175D02*
X11440716Y-74672128D01*
X11440716Y-74672128D02*
X11380239Y-74853556D01*
X11380239Y-74853556D02*
X10654525Y-75579271D01*
X10654525Y-75579271D02*
X11440716Y-75579271D01*
X11985001Y-75579271D02*
X11985001Y-74732604D01*
X11985001Y-74853556D02*
X12045478Y-74793080D01*
X12045478Y-74793080D02*
X12166430Y-74732604D01*
X12166430Y-74732604D02*
X12347859Y-74732604D01*
X12347859Y-74732604D02*
X12468811Y-74793080D01*
X12468811Y-74793080D02*
X12529287Y-74914033D01*
X12529287Y-74914033D02*
X12529287Y-75579271D01*
X12529287Y-74914033D02*
X12589763Y-74793080D01*
X12589763Y-74793080D02*
X12710716Y-74732604D01*
X12710716Y-74732604D02*
X12892144Y-74732604D01*
X12892144Y-74732604D02*
X13013097Y-74793080D01*
X13013097Y-74793080D02*
X13073573Y-74914033D01*
X13073573Y-74914033D02*
X13073573Y-75579271D01*
X13678334Y-75579271D02*
X13678334Y-74732604D01*
X13678334Y-74853556D02*
X13738811Y-74793080D01*
X13738811Y-74793080D02*
X13859763Y-74732604D01*
X13859763Y-74732604D02*
X14041192Y-74732604D01*
X14041192Y-74732604D02*
X14162144Y-74793080D01*
X14162144Y-74793080D02*
X14222620Y-74914033D01*
X14222620Y-74914033D02*
X14222620Y-75579271D01*
X14222620Y-74914033D02*
X14283096Y-74793080D01*
X14283096Y-74793080D02*
X14404049Y-74732604D01*
X14404049Y-74732604D02*
X14585477Y-74732604D01*
X14585477Y-74732604D02*
X14706430Y-74793080D01*
X14706430Y-74793080D02*
X14766906Y-74914033D01*
X14766906Y-74914033D02*
X14766906Y-75579271D01*
D10*
X44412857Y-26938628D02*
X44412857Y-27414819D01*
X44079524Y-26414819D02*
X44412857Y-26938628D01*
X44412857Y-26938628D02*
X44746190Y-26414819D01*
X45079524Y-26891009D02*
X45412857Y-26891009D01*
X45555714Y-27414819D02*
X45079524Y-27414819D01*
X45079524Y-27414819D02*
X45079524Y-26414819D01*
X45079524Y-26414819D02*
X45555714Y-26414819D01*
X46460476Y-27414819D02*
X45984286Y-27414819D01*
X45984286Y-27414819D02*
X45984286Y-26414819D01*
D11*
X44679524Y-23363855D02*
X44679524Y-22563855D01*
X44679524Y-22563855D02*
X44870000Y-22563855D01*
X44870000Y-22563855D02*
X44984286Y-22601950D01*
X44984286Y-22601950D02*
X45060476Y-22678140D01*
X45060476Y-22678140D02*
X45098571Y-22754331D01*
X45098571Y-22754331D02*
X45136667Y-22906712D01*
X45136667Y-22906712D02*
X45136667Y-23020998D01*
X45136667Y-23020998D02*
X45098571Y-23173379D01*
X45098571Y-23173379D02*
X45060476Y-23249569D01*
X45060476Y-23249569D02*
X44984286Y-23325760D01*
X44984286Y-23325760D02*
X44870000Y-23363855D01*
X44870000Y-23363855D02*
X44679524Y-23363855D01*
X45441428Y-22640045D02*
X45479524Y-22601950D01*
X45479524Y-22601950D02*
X45555714Y-22563855D01*
X45555714Y-22563855D02*
X45746190Y-22563855D01*
X45746190Y-22563855D02*
X45822381Y-22601950D01*
X45822381Y-22601950D02*
X45860476Y-22640045D01*
X45860476Y-22640045D02*
X45898571Y-22716236D01*
X45898571Y-22716236D02*
X45898571Y-22792426D01*
X45898571Y-22792426D02*
X45860476Y-22906712D01*
X45860476Y-22906712D02*
X45403333Y-23363855D01*
X45403333Y-23363855D02*
X45898571Y-23363855D01*
D10*
X44412857Y-64938628D02*
X44412857Y-65414819D01*
X44079524Y-64414819D02*
X44412857Y-64938628D01*
X44412857Y-64938628D02*
X44746190Y-64414819D01*
X45079524Y-64891009D02*
X45412857Y-64891009D01*
X45555714Y-65414819D02*
X45079524Y-65414819D01*
X45079524Y-65414819D02*
X45079524Y-64414819D01*
X45079524Y-64414819D02*
X45555714Y-64414819D01*
X46460476Y-65414819D02*
X45984286Y-65414819D01*
X45984286Y-65414819D02*
X45984286Y-64414819D01*
D11*
X44679524Y-61363855D02*
X44679524Y-60563855D01*
X44679524Y-60563855D02*
X44870000Y-60563855D01*
X44870000Y-60563855D02*
X44984286Y-60601950D01*
X44984286Y-60601950D02*
X45060476Y-60678140D01*
X45060476Y-60678140D02*
X45098571Y-60754331D01*
X45098571Y-60754331D02*
X45136667Y-60906712D01*
X45136667Y-60906712D02*
X45136667Y-61020998D01*
X45136667Y-61020998D02*
X45098571Y-61173379D01*
X45098571Y-61173379D02*
X45060476Y-61249569D01*
X45060476Y-61249569D02*
X44984286Y-61325760D01*
X44984286Y-61325760D02*
X44870000Y-61363855D01*
X44870000Y-61363855D02*
X44679524Y-61363855D01*
X45593809Y-60906712D02*
X45517619Y-60868617D01*
X45517619Y-60868617D02*
X45479524Y-60830521D01*
X45479524Y-60830521D02*
X45441428Y-60754331D01*
X45441428Y-60754331D02*
X45441428Y-60716236D01*
X45441428Y-60716236D02*
X45479524Y-60640045D01*
X45479524Y-60640045D02*
X45517619Y-60601950D01*
X45517619Y-60601950D02*
X45593809Y-60563855D01*
X45593809Y-60563855D02*
X45746190Y-60563855D01*
X45746190Y-60563855D02*
X45822381Y-60601950D01*
X45822381Y-60601950D02*
X45860476Y-60640045D01*
X45860476Y-60640045D02*
X45898571Y-60716236D01*
X45898571Y-60716236D02*
X45898571Y-60754331D01*
X45898571Y-60754331D02*
X45860476Y-60830521D01*
X45860476Y-60830521D02*
X45822381Y-60868617D01*
X45822381Y-60868617D02*
X45746190Y-60906712D01*
X45746190Y-60906712D02*
X45593809Y-60906712D01*
X45593809Y-60906712D02*
X45517619Y-60944807D01*
X45517619Y-60944807D02*
X45479524Y-60982902D01*
X45479524Y-60982902D02*
X45441428Y-61059093D01*
X45441428Y-61059093D02*
X45441428Y-61211474D01*
X45441428Y-61211474D02*
X45479524Y-61287664D01*
X45479524Y-61287664D02*
X45517619Y-61325760D01*
X45517619Y-61325760D02*
X45593809Y-61363855D01*
X45593809Y-61363855D02*
X45746190Y-61363855D01*
X45746190Y-61363855D02*
X45822381Y-61325760D01*
X45822381Y-61325760D02*
X45860476Y-61287664D01*
X45860476Y-61287664D02*
X45898571Y-61211474D01*
X45898571Y-61211474D02*
X45898571Y-61059093D01*
X45898571Y-61059093D02*
X45860476Y-60982902D01*
X45860476Y-60982902D02*
X45822381Y-60944807D01*
X45822381Y-60944807D02*
X45746190Y-60906712D01*
D10*
X44508095Y-50462438D02*
X44412857Y-50414819D01*
X44412857Y-50414819D02*
X44270000Y-50414819D01*
X44270000Y-50414819D02*
X44127143Y-50462438D01*
X44127143Y-50462438D02*
X44031905Y-50557676D01*
X44031905Y-50557676D02*
X43984286Y-50652914D01*
X43984286Y-50652914D02*
X43936667Y-50843390D01*
X43936667Y-50843390D02*
X43936667Y-50986247D01*
X43936667Y-50986247D02*
X43984286Y-51176723D01*
X43984286Y-51176723D02*
X44031905Y-51271961D01*
X44031905Y-51271961D02*
X44127143Y-51367200D01*
X44127143Y-51367200D02*
X44270000Y-51414819D01*
X44270000Y-51414819D02*
X44365238Y-51414819D01*
X44365238Y-51414819D02*
X44508095Y-51367200D01*
X44508095Y-51367200D02*
X44555714Y-51319580D01*
X44555714Y-51319580D02*
X44555714Y-50986247D01*
X44555714Y-50986247D02*
X44365238Y-50986247D01*
X45555714Y-51414819D02*
X45222381Y-50938628D01*
X44984286Y-51414819D02*
X44984286Y-50414819D01*
X44984286Y-50414819D02*
X45365238Y-50414819D01*
X45365238Y-50414819D02*
X45460476Y-50462438D01*
X45460476Y-50462438D02*
X45508095Y-50510057D01*
X45508095Y-50510057D02*
X45555714Y-50605295D01*
X45555714Y-50605295D02*
X45555714Y-50748152D01*
X45555714Y-50748152D02*
X45508095Y-50843390D01*
X45508095Y-50843390D02*
X45460476Y-50891009D01*
X45460476Y-50891009D02*
X45365238Y-50938628D01*
X45365238Y-50938628D02*
X44984286Y-50938628D01*
X45984286Y-51414819D02*
X45984286Y-50414819D01*
X45984286Y-50414819D02*
X46555714Y-51414819D01*
X46555714Y-51414819D02*
X46555714Y-50414819D01*
D11*
X44298571Y-47363855D02*
X44298571Y-46563855D01*
X44298571Y-46563855D02*
X44489047Y-46563855D01*
X44489047Y-46563855D02*
X44603333Y-46601950D01*
X44603333Y-46601950D02*
X44679523Y-46678140D01*
X44679523Y-46678140D02*
X44717618Y-46754331D01*
X44717618Y-46754331D02*
X44755714Y-46906712D01*
X44755714Y-46906712D02*
X44755714Y-47020998D01*
X44755714Y-47020998D02*
X44717618Y-47173379D01*
X44717618Y-47173379D02*
X44679523Y-47249569D01*
X44679523Y-47249569D02*
X44603333Y-47325760D01*
X44603333Y-47325760D02*
X44489047Y-47363855D01*
X44489047Y-47363855D02*
X44298571Y-47363855D01*
X45517618Y-47363855D02*
X45060475Y-47363855D01*
X45289047Y-47363855D02*
X45289047Y-46563855D01*
X45289047Y-46563855D02*
X45212856Y-46678140D01*
X45212856Y-46678140D02*
X45136666Y-46754331D01*
X45136666Y-46754331D02*
X45060475Y-46792426D01*
X45974761Y-46906712D02*
X45898571Y-46868617D01*
X45898571Y-46868617D02*
X45860476Y-46830521D01*
X45860476Y-46830521D02*
X45822380Y-46754331D01*
X45822380Y-46754331D02*
X45822380Y-46716236D01*
X45822380Y-46716236D02*
X45860476Y-46640045D01*
X45860476Y-46640045D02*
X45898571Y-46601950D01*
X45898571Y-46601950D02*
X45974761Y-46563855D01*
X45974761Y-46563855D02*
X46127142Y-46563855D01*
X46127142Y-46563855D02*
X46203333Y-46601950D01*
X46203333Y-46601950D02*
X46241428Y-46640045D01*
X46241428Y-46640045D02*
X46279523Y-46716236D01*
X46279523Y-46716236D02*
X46279523Y-46754331D01*
X46279523Y-46754331D02*
X46241428Y-46830521D01*
X46241428Y-46830521D02*
X46203333Y-46868617D01*
X46203333Y-46868617D02*
X46127142Y-46906712D01*
X46127142Y-46906712D02*
X45974761Y-46906712D01*
X45974761Y-46906712D02*
X45898571Y-46944807D01*
X45898571Y-46944807D02*
X45860476Y-46982902D01*
X45860476Y-46982902D02*
X45822380Y-47059093D01*
X45822380Y-47059093D02*
X45822380Y-47211474D01*
X45822380Y-47211474D02*
X45860476Y-47287664D01*
X45860476Y-47287664D02*
X45898571Y-47325760D01*
X45898571Y-47325760D02*
X45974761Y-47363855D01*
X45974761Y-47363855D02*
X46127142Y-47363855D01*
X46127142Y-47363855D02*
X46203333Y-47325760D01*
X46203333Y-47325760D02*
X46241428Y-47287664D01*
X46241428Y-47287664D02*
X46279523Y-47211474D01*
X46279523Y-47211474D02*
X46279523Y-47059093D01*
X46279523Y-47059093D02*
X46241428Y-46982902D01*
X46241428Y-46982902D02*
X46203333Y-46944807D01*
X46203333Y-46944807D02*
X46127142Y-46906712D01*
D10*
X74412857Y-64938628D02*
X74412857Y-65414819D01*
X74079524Y-64414819D02*
X74412857Y-64938628D01*
X74412857Y-64938628D02*
X74746190Y-64414819D01*
X75079524Y-64891009D02*
X75412857Y-64891009D01*
X75555714Y-65414819D02*
X75079524Y-65414819D01*
X75079524Y-65414819D02*
X75079524Y-64414819D01*
X75079524Y-64414819D02*
X75555714Y-64414819D01*
X76460476Y-65414819D02*
X75984286Y-65414819D01*
X75984286Y-65414819D02*
X75984286Y-64414819D01*
D11*
X74679524Y-61363855D02*
X74679524Y-60563855D01*
X74679524Y-60563855D02*
X74870000Y-60563855D01*
X74870000Y-60563855D02*
X74984286Y-60601950D01*
X74984286Y-60601950D02*
X75060476Y-60678140D01*
X75060476Y-60678140D02*
X75098571Y-60754331D01*
X75098571Y-60754331D02*
X75136667Y-60906712D01*
X75136667Y-60906712D02*
X75136667Y-61020998D01*
X75136667Y-61020998D02*
X75098571Y-61173379D01*
X75098571Y-61173379D02*
X75060476Y-61249569D01*
X75060476Y-61249569D02*
X74984286Y-61325760D01*
X74984286Y-61325760D02*
X74870000Y-61363855D01*
X74870000Y-61363855D02*
X74679524Y-61363855D01*
X75860476Y-60563855D02*
X75479524Y-60563855D01*
X75479524Y-60563855D02*
X75441428Y-60944807D01*
X75441428Y-60944807D02*
X75479524Y-60906712D01*
X75479524Y-60906712D02*
X75555714Y-60868617D01*
X75555714Y-60868617D02*
X75746190Y-60868617D01*
X75746190Y-60868617D02*
X75822381Y-60906712D01*
X75822381Y-60906712D02*
X75860476Y-60944807D01*
X75860476Y-60944807D02*
X75898571Y-61020998D01*
X75898571Y-61020998D02*
X75898571Y-61211474D01*
X75898571Y-61211474D02*
X75860476Y-61287664D01*
X75860476Y-61287664D02*
X75822381Y-61325760D01*
X75822381Y-61325760D02*
X75746190Y-61363855D01*
X75746190Y-61363855D02*
X75555714Y-61363855D01*
X75555714Y-61363855D02*
X75479524Y-61325760D01*
X75479524Y-61325760D02*
X75441428Y-61287664D01*
D10*
X64508095Y-19462438D02*
X64412857Y-19414819D01*
X64412857Y-19414819D02*
X64270000Y-19414819D01*
X64270000Y-19414819D02*
X64127143Y-19462438D01*
X64127143Y-19462438D02*
X64031905Y-19557676D01*
X64031905Y-19557676D02*
X63984286Y-19652914D01*
X63984286Y-19652914D02*
X63936667Y-19843390D01*
X63936667Y-19843390D02*
X63936667Y-19986247D01*
X63936667Y-19986247D02*
X63984286Y-20176723D01*
X63984286Y-20176723D02*
X64031905Y-20271961D01*
X64031905Y-20271961D02*
X64127143Y-20367200D01*
X64127143Y-20367200D02*
X64270000Y-20414819D01*
X64270000Y-20414819D02*
X64365238Y-20414819D01*
X64365238Y-20414819D02*
X64508095Y-20367200D01*
X64508095Y-20367200D02*
X64555714Y-20319580D01*
X64555714Y-20319580D02*
X64555714Y-19986247D01*
X64555714Y-19986247D02*
X64365238Y-19986247D01*
X65555714Y-20414819D02*
X65222381Y-19938628D01*
X64984286Y-20414819D02*
X64984286Y-19414819D01*
X64984286Y-19414819D02*
X65365238Y-19414819D01*
X65365238Y-19414819D02*
X65460476Y-19462438D01*
X65460476Y-19462438D02*
X65508095Y-19510057D01*
X65508095Y-19510057D02*
X65555714Y-19605295D01*
X65555714Y-19605295D02*
X65555714Y-19748152D01*
X65555714Y-19748152D02*
X65508095Y-19843390D01*
X65508095Y-19843390D02*
X65460476Y-19891009D01*
X65460476Y-19891009D02*
X65365238Y-19938628D01*
X65365238Y-19938628D02*
X64984286Y-19938628D01*
X65984286Y-20414819D02*
X65984286Y-19414819D01*
X65984286Y-19414819D02*
X66555714Y-20414819D01*
X66555714Y-20414819D02*
X66555714Y-19414819D01*
D11*
X64298571Y-16363855D02*
X64298571Y-15563855D01*
X64298571Y-15563855D02*
X64489047Y-15563855D01*
X64489047Y-15563855D02*
X64603333Y-15601950D01*
X64603333Y-15601950D02*
X64679523Y-15678140D01*
X64679523Y-15678140D02*
X64717618Y-15754331D01*
X64717618Y-15754331D02*
X64755714Y-15906712D01*
X64755714Y-15906712D02*
X64755714Y-16020998D01*
X64755714Y-16020998D02*
X64717618Y-16173379D01*
X64717618Y-16173379D02*
X64679523Y-16249569D01*
X64679523Y-16249569D02*
X64603333Y-16325760D01*
X64603333Y-16325760D02*
X64489047Y-16363855D01*
X64489047Y-16363855D02*
X64298571Y-16363855D01*
X65517618Y-16363855D02*
X65060475Y-16363855D01*
X65289047Y-16363855D02*
X65289047Y-15563855D01*
X65289047Y-15563855D02*
X65212856Y-15678140D01*
X65212856Y-15678140D02*
X65136666Y-15754331D01*
X65136666Y-15754331D02*
X65060475Y-15792426D01*
X66203333Y-15830521D02*
X66203333Y-16363855D01*
X66012857Y-15525760D02*
X65822380Y-16097188D01*
X65822380Y-16097188D02*
X66317619Y-16097188D01*
D10*
X74508095Y-33462438D02*
X74412857Y-33414819D01*
X74412857Y-33414819D02*
X74270000Y-33414819D01*
X74270000Y-33414819D02*
X74127143Y-33462438D01*
X74127143Y-33462438D02*
X74031905Y-33557676D01*
X74031905Y-33557676D02*
X73984286Y-33652914D01*
X73984286Y-33652914D02*
X73936667Y-33843390D01*
X73936667Y-33843390D02*
X73936667Y-33986247D01*
X73936667Y-33986247D02*
X73984286Y-34176723D01*
X73984286Y-34176723D02*
X74031905Y-34271961D01*
X74031905Y-34271961D02*
X74127143Y-34367200D01*
X74127143Y-34367200D02*
X74270000Y-34414819D01*
X74270000Y-34414819D02*
X74365238Y-34414819D01*
X74365238Y-34414819D02*
X74508095Y-34367200D01*
X74508095Y-34367200D02*
X74555714Y-34319580D01*
X74555714Y-34319580D02*
X74555714Y-33986247D01*
X74555714Y-33986247D02*
X74365238Y-33986247D01*
X75555714Y-34414819D02*
X75222381Y-33938628D01*
X74984286Y-34414819D02*
X74984286Y-33414819D01*
X74984286Y-33414819D02*
X75365238Y-33414819D01*
X75365238Y-33414819D02*
X75460476Y-33462438D01*
X75460476Y-33462438D02*
X75508095Y-33510057D01*
X75508095Y-33510057D02*
X75555714Y-33605295D01*
X75555714Y-33605295D02*
X75555714Y-33748152D01*
X75555714Y-33748152D02*
X75508095Y-33843390D01*
X75508095Y-33843390D02*
X75460476Y-33891009D01*
X75460476Y-33891009D02*
X75365238Y-33938628D01*
X75365238Y-33938628D02*
X74984286Y-33938628D01*
X75984286Y-34414819D02*
X75984286Y-33414819D01*
X75984286Y-33414819D02*
X76555714Y-34414819D01*
X76555714Y-34414819D02*
X76555714Y-33414819D01*
D11*
X74298571Y-30363855D02*
X74298571Y-29563855D01*
X74298571Y-29563855D02*
X74489047Y-29563855D01*
X74489047Y-29563855D02*
X74603333Y-29601950D01*
X74603333Y-29601950D02*
X74679523Y-29678140D01*
X74679523Y-29678140D02*
X74717618Y-29754331D01*
X74717618Y-29754331D02*
X74755714Y-29906712D01*
X74755714Y-29906712D02*
X74755714Y-30020998D01*
X74755714Y-30020998D02*
X74717618Y-30173379D01*
X74717618Y-30173379D02*
X74679523Y-30249569D01*
X74679523Y-30249569D02*
X74603333Y-30325760D01*
X74603333Y-30325760D02*
X74489047Y-30363855D01*
X74489047Y-30363855D02*
X74298571Y-30363855D01*
X75517618Y-30363855D02*
X75060475Y-30363855D01*
X75289047Y-30363855D02*
X75289047Y-29563855D01*
X75289047Y-29563855D02*
X75212856Y-29678140D01*
X75212856Y-29678140D02*
X75136666Y-29754331D01*
X75136666Y-29754331D02*
X75060475Y-29792426D01*
X75822380Y-29640045D02*
X75860476Y-29601950D01*
X75860476Y-29601950D02*
X75936666Y-29563855D01*
X75936666Y-29563855D02*
X76127142Y-29563855D01*
X76127142Y-29563855D02*
X76203333Y-29601950D01*
X76203333Y-29601950D02*
X76241428Y-29640045D01*
X76241428Y-29640045D02*
X76279523Y-29716236D01*
X76279523Y-29716236D02*
X76279523Y-29792426D01*
X76279523Y-29792426D02*
X76241428Y-29906712D01*
X76241428Y-29906712D02*
X75784285Y-30363855D01*
X75784285Y-30363855D02*
X76279523Y-30363855D01*
D10*
X74508095Y-71462438D02*
X74412857Y-71414819D01*
X74412857Y-71414819D02*
X74270000Y-71414819D01*
X74270000Y-71414819D02*
X74127143Y-71462438D01*
X74127143Y-71462438D02*
X74031905Y-71557676D01*
X74031905Y-71557676D02*
X73984286Y-71652914D01*
X73984286Y-71652914D02*
X73936667Y-71843390D01*
X73936667Y-71843390D02*
X73936667Y-71986247D01*
X73936667Y-71986247D02*
X73984286Y-72176723D01*
X73984286Y-72176723D02*
X74031905Y-72271961D01*
X74031905Y-72271961D02*
X74127143Y-72367200D01*
X74127143Y-72367200D02*
X74270000Y-72414819D01*
X74270000Y-72414819D02*
X74365238Y-72414819D01*
X74365238Y-72414819D02*
X74508095Y-72367200D01*
X74508095Y-72367200D02*
X74555714Y-72319580D01*
X74555714Y-72319580D02*
X74555714Y-71986247D01*
X74555714Y-71986247D02*
X74365238Y-71986247D01*
X75555714Y-72414819D02*
X75222381Y-71938628D01*
X74984286Y-72414819D02*
X74984286Y-71414819D01*
X74984286Y-71414819D02*
X75365238Y-71414819D01*
X75365238Y-71414819D02*
X75460476Y-71462438D01*
X75460476Y-71462438D02*
X75508095Y-71510057D01*
X75508095Y-71510057D02*
X75555714Y-71605295D01*
X75555714Y-71605295D02*
X75555714Y-71748152D01*
X75555714Y-71748152D02*
X75508095Y-71843390D01*
X75508095Y-71843390D02*
X75460476Y-71891009D01*
X75460476Y-71891009D02*
X75365238Y-71938628D01*
X75365238Y-71938628D02*
X74984286Y-71938628D01*
X75984286Y-72414819D02*
X75984286Y-71414819D01*
X75984286Y-71414819D02*
X76555714Y-72414819D01*
X76555714Y-72414819D02*
X76555714Y-71414819D01*
D11*
X74679524Y-68363855D02*
X74679524Y-67563855D01*
X74679524Y-67563855D02*
X74870000Y-67563855D01*
X74870000Y-67563855D02*
X74984286Y-67601950D01*
X74984286Y-67601950D02*
X75060476Y-67678140D01*
X75060476Y-67678140D02*
X75098571Y-67754331D01*
X75098571Y-67754331D02*
X75136667Y-67906712D01*
X75136667Y-67906712D02*
X75136667Y-68020998D01*
X75136667Y-68020998D02*
X75098571Y-68173379D01*
X75098571Y-68173379D02*
X75060476Y-68249569D01*
X75060476Y-68249569D02*
X74984286Y-68325760D01*
X74984286Y-68325760D02*
X74870000Y-68363855D01*
X74870000Y-68363855D02*
X74679524Y-68363855D01*
X75822381Y-67563855D02*
X75670000Y-67563855D01*
X75670000Y-67563855D02*
X75593809Y-67601950D01*
X75593809Y-67601950D02*
X75555714Y-67640045D01*
X75555714Y-67640045D02*
X75479524Y-67754331D01*
X75479524Y-67754331D02*
X75441428Y-67906712D01*
X75441428Y-67906712D02*
X75441428Y-68211474D01*
X75441428Y-68211474D02*
X75479524Y-68287664D01*
X75479524Y-68287664D02*
X75517619Y-68325760D01*
X75517619Y-68325760D02*
X75593809Y-68363855D01*
X75593809Y-68363855D02*
X75746190Y-68363855D01*
X75746190Y-68363855D02*
X75822381Y-68325760D01*
X75822381Y-68325760D02*
X75860476Y-68287664D01*
X75860476Y-68287664D02*
X75898571Y-68211474D01*
X75898571Y-68211474D02*
X75898571Y-68020998D01*
X75898571Y-68020998D02*
X75860476Y-67944807D01*
X75860476Y-67944807D02*
X75822381Y-67906712D01*
X75822381Y-67906712D02*
X75746190Y-67868617D01*
X75746190Y-67868617D02*
X75593809Y-67868617D01*
X75593809Y-67868617D02*
X75517619Y-67906712D01*
X75517619Y-67906712D02*
X75479524Y-67944807D01*
X75479524Y-67944807D02*
X75441428Y-68020998D01*
D10*
X74627142Y-44414819D02*
X74293809Y-43938628D01*
X74055714Y-44414819D02*
X74055714Y-43414819D01*
X74055714Y-43414819D02*
X74436666Y-43414819D01*
X74436666Y-43414819D02*
X74531904Y-43462438D01*
X74531904Y-43462438D02*
X74579523Y-43510057D01*
X74579523Y-43510057D02*
X74627142Y-43605295D01*
X74627142Y-43605295D02*
X74627142Y-43748152D01*
X74627142Y-43748152D02*
X74579523Y-43843390D01*
X74579523Y-43843390D02*
X74531904Y-43891009D01*
X74531904Y-43891009D02*
X74436666Y-43938628D01*
X74436666Y-43938628D02*
X74055714Y-43938628D01*
X75055714Y-43891009D02*
X75389047Y-43891009D01*
X75531904Y-44414819D02*
X75055714Y-44414819D01*
X75055714Y-44414819D02*
X75055714Y-43414819D01*
X75055714Y-43414819D02*
X75531904Y-43414819D01*
X75960476Y-44414819D02*
X75960476Y-43414819D01*
X75960476Y-43414819D02*
X76198571Y-43414819D01*
X76198571Y-43414819D02*
X76341428Y-43462438D01*
X76341428Y-43462438D02*
X76436666Y-43557676D01*
X76436666Y-43557676D02*
X76484285Y-43652914D01*
X76484285Y-43652914D02*
X76531904Y-43843390D01*
X76531904Y-43843390D02*
X76531904Y-43986247D01*
X76531904Y-43986247D02*
X76484285Y-44176723D01*
X76484285Y-44176723D02*
X76436666Y-44271961D01*
X76436666Y-44271961D02*
X76341428Y-44367200D01*
X76341428Y-44367200D02*
X76198571Y-44414819D01*
X76198571Y-44414819D02*
X75960476Y-44414819D01*
D11*
X74298571Y-40363855D02*
X74298571Y-39563855D01*
X74298571Y-39563855D02*
X74489047Y-39563855D01*
X74489047Y-39563855D02*
X74603333Y-39601950D01*
X74603333Y-39601950D02*
X74679523Y-39678140D01*
X74679523Y-39678140D02*
X74717618Y-39754331D01*
X74717618Y-39754331D02*
X74755714Y-39906712D01*
X74755714Y-39906712D02*
X74755714Y-40020998D01*
X74755714Y-40020998D02*
X74717618Y-40173379D01*
X74717618Y-40173379D02*
X74679523Y-40249569D01*
X74679523Y-40249569D02*
X74603333Y-40325760D01*
X74603333Y-40325760D02*
X74489047Y-40363855D01*
X74489047Y-40363855D02*
X74298571Y-40363855D01*
X75517618Y-40363855D02*
X75060475Y-40363855D01*
X75289047Y-40363855D02*
X75289047Y-39563855D01*
X75289047Y-39563855D02*
X75212856Y-39678140D01*
X75212856Y-39678140D02*
X75136666Y-39754331D01*
X75136666Y-39754331D02*
X75060475Y-39792426D01*
X75898571Y-40363855D02*
X76050952Y-40363855D01*
X76050952Y-40363855D02*
X76127142Y-40325760D01*
X76127142Y-40325760D02*
X76165238Y-40287664D01*
X76165238Y-40287664D02*
X76241428Y-40173379D01*
X76241428Y-40173379D02*
X76279523Y-40020998D01*
X76279523Y-40020998D02*
X76279523Y-39716236D01*
X76279523Y-39716236D02*
X76241428Y-39640045D01*
X76241428Y-39640045D02*
X76203333Y-39601950D01*
X76203333Y-39601950D02*
X76127142Y-39563855D01*
X76127142Y-39563855D02*
X75974761Y-39563855D01*
X75974761Y-39563855D02*
X75898571Y-39601950D01*
X75898571Y-39601950D02*
X75860476Y-39640045D01*
X75860476Y-39640045D02*
X75822380Y-39716236D01*
X75822380Y-39716236D02*
X75822380Y-39906712D01*
X75822380Y-39906712D02*
X75860476Y-39982902D01*
X75860476Y-39982902D02*
X75898571Y-40020998D01*
X75898571Y-40020998D02*
X75974761Y-40059093D01*
X75974761Y-40059093D02*
X76127142Y-40059093D01*
X76127142Y-40059093D02*
X76203333Y-40020998D01*
X76203333Y-40020998D02*
X76241428Y-39982902D01*
X76241428Y-39982902D02*
X76279523Y-39906712D01*
D10*
X27693332Y-66961009D02*
X27836189Y-67008628D01*
X27836189Y-67008628D02*
X27883808Y-67056247D01*
X27883808Y-67056247D02*
X27931427Y-67151485D01*
X27931427Y-67151485D02*
X27931427Y-67294342D01*
X27931427Y-67294342D02*
X27883808Y-67389580D01*
X27883808Y-67389580D02*
X27836189Y-67437200D01*
X27836189Y-67437200D02*
X27740951Y-67484819D01*
X27740951Y-67484819D02*
X27359999Y-67484819D01*
X27359999Y-67484819D02*
X27359999Y-66484819D01*
X27359999Y-66484819D02*
X27693332Y-66484819D01*
X27693332Y-66484819D02*
X27788570Y-66532438D01*
X27788570Y-66532438D02*
X27836189Y-66580057D01*
X27836189Y-66580057D02*
X27883808Y-66675295D01*
X27883808Y-66675295D02*
X27883808Y-66770533D01*
X27883808Y-66770533D02*
X27836189Y-66865771D01*
X27836189Y-66865771D02*
X27788570Y-66913390D01*
X27788570Y-66913390D02*
X27693332Y-66961009D01*
X27693332Y-66961009D02*
X27359999Y-66961009D01*
X28502856Y-67484819D02*
X28407618Y-67437200D01*
X28407618Y-67437200D02*
X28359999Y-67341961D01*
X28359999Y-67341961D02*
X28359999Y-66484819D01*
X29312380Y-66818152D02*
X29312380Y-67484819D01*
X28883809Y-66818152D02*
X28883809Y-67341961D01*
X28883809Y-67341961D02*
X28931428Y-67437200D01*
X28931428Y-67437200D02*
X29026666Y-67484819D01*
X29026666Y-67484819D02*
X29169523Y-67484819D01*
X29169523Y-67484819D02*
X29264761Y-67437200D01*
X29264761Y-67437200D02*
X29312380Y-67389580D01*
X30169523Y-67437200D02*
X30074285Y-67484819D01*
X30074285Y-67484819D02*
X29883809Y-67484819D01*
X29883809Y-67484819D02*
X29788571Y-67437200D01*
X29788571Y-67437200D02*
X29740952Y-67341961D01*
X29740952Y-67341961D02*
X29740952Y-66961009D01*
X29740952Y-66961009D02*
X29788571Y-66865771D01*
X29788571Y-66865771D02*
X29883809Y-66818152D01*
X29883809Y-66818152D02*
X30074285Y-66818152D01*
X30074285Y-66818152D02*
X30169523Y-66865771D01*
X30169523Y-66865771D02*
X30217142Y-66961009D01*
X30217142Y-66961009D02*
X30217142Y-67056247D01*
X30217142Y-67056247D02*
X29740952Y-67151485D01*
X30645714Y-66818152D02*
X30645714Y-67818152D01*
X30645714Y-66865771D02*
X30740952Y-66818152D01*
X30740952Y-66818152D02*
X30931428Y-66818152D01*
X30931428Y-66818152D02*
X31026666Y-66865771D01*
X31026666Y-66865771D02*
X31074285Y-66913390D01*
X31074285Y-66913390D02*
X31121904Y-67008628D01*
X31121904Y-67008628D02*
X31121904Y-67294342D01*
X31121904Y-67294342D02*
X31074285Y-67389580D01*
X31074285Y-67389580D02*
X31026666Y-67437200D01*
X31026666Y-67437200D02*
X30931428Y-67484819D01*
X30931428Y-67484819D02*
X30740952Y-67484819D01*
X30740952Y-67484819D02*
X30645714Y-67437200D01*
X31550476Y-67484819D02*
X31550476Y-66818152D01*
X31550476Y-66484819D02*
X31502857Y-66532438D01*
X31502857Y-66532438D02*
X31550476Y-66580057D01*
X31550476Y-66580057D02*
X31598095Y-66532438D01*
X31598095Y-66532438D02*
X31550476Y-66484819D01*
X31550476Y-66484819D02*
X31550476Y-66580057D01*
X32169523Y-67484819D02*
X32074285Y-67437200D01*
X32074285Y-67437200D02*
X32026666Y-67341961D01*
X32026666Y-67341961D02*
X32026666Y-66484819D01*
X32693333Y-67484819D02*
X32598095Y-67437200D01*
X32598095Y-67437200D02*
X32550476Y-67341961D01*
X32550476Y-67341961D02*
X32550476Y-66484819D01*
X32836191Y-67580057D02*
X33598095Y-67580057D01*
X34169524Y-66961009D02*
X34312381Y-67008628D01*
X34312381Y-67008628D02*
X34360000Y-67056247D01*
X34360000Y-67056247D02*
X34407619Y-67151485D01*
X34407619Y-67151485D02*
X34407619Y-67294342D01*
X34407619Y-67294342D02*
X34360000Y-67389580D01*
X34360000Y-67389580D02*
X34312381Y-67437200D01*
X34312381Y-67437200D02*
X34217143Y-67484819D01*
X34217143Y-67484819D02*
X33836191Y-67484819D01*
X33836191Y-67484819D02*
X33836191Y-66484819D01*
X33836191Y-66484819D02*
X34169524Y-66484819D01*
X34169524Y-66484819D02*
X34264762Y-66532438D01*
X34264762Y-66532438D02*
X34312381Y-66580057D01*
X34312381Y-66580057D02*
X34360000Y-66675295D01*
X34360000Y-66675295D02*
X34360000Y-66770533D01*
X34360000Y-66770533D02*
X34312381Y-66865771D01*
X34312381Y-66865771D02*
X34264762Y-66913390D01*
X34264762Y-66913390D02*
X34169524Y-66961009D01*
X34169524Y-66961009D02*
X33836191Y-66961009D01*
X30314819Y-40891904D02*
X31124342Y-40891904D01*
X31124342Y-40891904D02*
X31219580Y-40844285D01*
X31219580Y-40844285D02*
X31267200Y-40796666D01*
X31267200Y-40796666D02*
X31314819Y-40701428D01*
X31314819Y-40701428D02*
X31314819Y-40510952D01*
X31314819Y-40510952D02*
X31267200Y-40415714D01*
X31267200Y-40415714D02*
X31219580Y-40368095D01*
X31219580Y-40368095D02*
X31124342Y-40320476D01*
X31124342Y-40320476D02*
X30314819Y-40320476D01*
X30410057Y-39891904D02*
X30362438Y-39844285D01*
X30362438Y-39844285D02*
X30314819Y-39749047D01*
X30314819Y-39749047D02*
X30314819Y-39510952D01*
X30314819Y-39510952D02*
X30362438Y-39415714D01*
X30362438Y-39415714D02*
X30410057Y-39368095D01*
X30410057Y-39368095D02*
X30505295Y-39320476D01*
X30505295Y-39320476D02*
X30600533Y-39320476D01*
X30600533Y-39320476D02*
X30743390Y-39368095D01*
X30743390Y-39368095D02*
X31314819Y-39939523D01*
X31314819Y-39939523D02*
X31314819Y-39320476D01*
X64508095Y-71462438D02*
X64412857Y-71414819D01*
X64412857Y-71414819D02*
X64270000Y-71414819D01*
X64270000Y-71414819D02*
X64127143Y-71462438D01*
X64127143Y-71462438D02*
X64031905Y-71557676D01*
X64031905Y-71557676D02*
X63984286Y-71652914D01*
X63984286Y-71652914D02*
X63936667Y-71843390D01*
X63936667Y-71843390D02*
X63936667Y-71986247D01*
X63936667Y-71986247D02*
X63984286Y-72176723D01*
X63984286Y-72176723D02*
X64031905Y-72271961D01*
X64031905Y-72271961D02*
X64127143Y-72367200D01*
X64127143Y-72367200D02*
X64270000Y-72414819D01*
X64270000Y-72414819D02*
X64365238Y-72414819D01*
X64365238Y-72414819D02*
X64508095Y-72367200D01*
X64508095Y-72367200D02*
X64555714Y-72319580D01*
X64555714Y-72319580D02*
X64555714Y-71986247D01*
X64555714Y-71986247D02*
X64365238Y-71986247D01*
X65555714Y-72414819D02*
X65222381Y-71938628D01*
X64984286Y-72414819D02*
X64984286Y-71414819D01*
X64984286Y-71414819D02*
X65365238Y-71414819D01*
X65365238Y-71414819D02*
X65460476Y-71462438D01*
X65460476Y-71462438D02*
X65508095Y-71510057D01*
X65508095Y-71510057D02*
X65555714Y-71605295D01*
X65555714Y-71605295D02*
X65555714Y-71748152D01*
X65555714Y-71748152D02*
X65508095Y-71843390D01*
X65508095Y-71843390D02*
X65460476Y-71891009D01*
X65460476Y-71891009D02*
X65365238Y-71938628D01*
X65365238Y-71938628D02*
X64984286Y-71938628D01*
X65984286Y-72414819D02*
X65984286Y-71414819D01*
X65984286Y-71414819D02*
X66555714Y-72414819D01*
X66555714Y-72414819D02*
X66555714Y-71414819D01*
D11*
X64298571Y-68363855D02*
X64298571Y-67563855D01*
X64298571Y-67563855D02*
X64489047Y-67563855D01*
X64489047Y-67563855D02*
X64603333Y-67601950D01*
X64603333Y-67601950D02*
X64679523Y-67678140D01*
X64679523Y-67678140D02*
X64717618Y-67754331D01*
X64717618Y-67754331D02*
X64755714Y-67906712D01*
X64755714Y-67906712D02*
X64755714Y-68020998D01*
X64755714Y-68020998D02*
X64717618Y-68173379D01*
X64717618Y-68173379D02*
X64679523Y-68249569D01*
X64679523Y-68249569D02*
X64603333Y-68325760D01*
X64603333Y-68325760D02*
X64489047Y-68363855D01*
X64489047Y-68363855D02*
X64298571Y-68363855D01*
X65517618Y-68363855D02*
X65060475Y-68363855D01*
X65289047Y-68363855D02*
X65289047Y-67563855D01*
X65289047Y-67563855D02*
X65212856Y-67678140D01*
X65212856Y-67678140D02*
X65136666Y-67754331D01*
X65136666Y-67754331D02*
X65060475Y-67792426D01*
X66203333Y-67563855D02*
X66050952Y-67563855D01*
X66050952Y-67563855D02*
X65974761Y-67601950D01*
X65974761Y-67601950D02*
X65936666Y-67640045D01*
X65936666Y-67640045D02*
X65860476Y-67754331D01*
X65860476Y-67754331D02*
X65822380Y-67906712D01*
X65822380Y-67906712D02*
X65822380Y-68211474D01*
X65822380Y-68211474D02*
X65860476Y-68287664D01*
X65860476Y-68287664D02*
X65898571Y-68325760D01*
X65898571Y-68325760D02*
X65974761Y-68363855D01*
X65974761Y-68363855D02*
X66127142Y-68363855D01*
X66127142Y-68363855D02*
X66203333Y-68325760D01*
X66203333Y-68325760D02*
X66241428Y-68287664D01*
X66241428Y-68287664D02*
X66279523Y-68211474D01*
X66279523Y-68211474D02*
X66279523Y-68020998D01*
X66279523Y-68020998D02*
X66241428Y-67944807D01*
X66241428Y-67944807D02*
X66203333Y-67906712D01*
X66203333Y-67906712D02*
X66127142Y-67868617D01*
X66127142Y-67868617D02*
X65974761Y-67868617D01*
X65974761Y-67868617D02*
X65898571Y-67906712D01*
X65898571Y-67906712D02*
X65860476Y-67944807D01*
X65860476Y-67944807D02*
X65822380Y-68020998D01*
D12*
X-4766905Y-5579271D02*
X-4766905Y-4309271D01*
X-4766905Y-4309271D02*
X-4343571Y-5216414D01*
X-4343571Y-5216414D02*
X-3920238Y-4309271D01*
X-3920238Y-4309271D02*
X-3920238Y-5579271D01*
X-3134047Y-5579271D02*
X-3254999Y-5518795D01*
X-3254999Y-5518795D02*
X-3315476Y-5458318D01*
X-3315476Y-5458318D02*
X-3375952Y-5337366D01*
X-3375952Y-5337366D02*
X-3375952Y-4974509D01*
X-3375952Y-4974509D02*
X-3315476Y-4853556D01*
X-3315476Y-4853556D02*
X-3254999Y-4793080D01*
X-3254999Y-4793080D02*
X-3134047Y-4732604D01*
X-3134047Y-4732604D02*
X-2952618Y-4732604D01*
X-2952618Y-4732604D02*
X-2831666Y-4793080D01*
X-2831666Y-4793080D02*
X-2771190Y-4853556D01*
X-2771190Y-4853556D02*
X-2710714Y-4974509D01*
X-2710714Y-4974509D02*
X-2710714Y-5337366D01*
X-2710714Y-5337366D02*
X-2771190Y-5458318D01*
X-2771190Y-5458318D02*
X-2831666Y-5518795D01*
X-2831666Y-5518795D02*
X-2952618Y-5579271D01*
X-2952618Y-5579271D02*
X-3134047Y-5579271D01*
X-1622142Y-4732604D02*
X-1622142Y-5579271D01*
X-2166428Y-4732604D02*
X-2166428Y-5397842D01*
X-2166428Y-5397842D02*
X-2105951Y-5518795D01*
X-2105951Y-5518795D02*
X-1984999Y-5579271D01*
X-1984999Y-5579271D02*
X-1803570Y-5579271D01*
X-1803570Y-5579271D02*
X-1682618Y-5518795D01*
X-1682618Y-5518795D02*
X-1622142Y-5458318D01*
X-1017380Y-4732604D02*
X-1017380Y-5579271D01*
X-1017380Y-4853556D02*
X-956903Y-4793080D01*
X-956903Y-4793080D02*
X-835951Y-4732604D01*
X-835951Y-4732604D02*
X-654522Y-4732604D01*
X-654522Y-4732604D02*
X-533570Y-4793080D01*
X-533570Y-4793080D02*
X-473094Y-4914033D01*
X-473094Y-4914033D02*
X-473094Y-5579271D01*
X-49760Y-4732604D02*
X434048Y-4732604D01*
X131667Y-4309271D02*
X131667Y-5397842D01*
X131667Y-5397842D02*
X192144Y-5518795D01*
X192144Y-5518795D02*
X313096Y-5579271D01*
X313096Y-5579271D02*
X434048Y-5579271D01*
X857381Y-5579271D02*
X857381Y-4732604D01*
X857381Y-4309271D02*
X796905Y-4369747D01*
X796905Y-4369747D02*
X857381Y-4430223D01*
X857381Y-4430223D02*
X917858Y-4369747D01*
X917858Y-4369747D02*
X857381Y-4309271D01*
X857381Y-4309271D02*
X857381Y-4430223D01*
X1462143Y-4732604D02*
X1462143Y-5579271D01*
X1462143Y-4853556D02*
X1522620Y-4793080D01*
X1522620Y-4793080D02*
X1643572Y-4732604D01*
X1643572Y-4732604D02*
X1825001Y-4732604D01*
X1825001Y-4732604D02*
X1945953Y-4793080D01*
X1945953Y-4793080D02*
X2006429Y-4914033D01*
X2006429Y-4914033D02*
X2006429Y-5579271D01*
X3155477Y-4732604D02*
X3155477Y-5760699D01*
X3155477Y-5760699D02*
X3095001Y-5881652D01*
X3095001Y-5881652D02*
X3034525Y-5942128D01*
X3034525Y-5942128D02*
X2913572Y-6002604D01*
X2913572Y-6002604D02*
X2732144Y-6002604D01*
X2732144Y-6002604D02*
X2611191Y-5942128D01*
X3155477Y-5518795D02*
X3034525Y-5579271D01*
X3034525Y-5579271D02*
X2792620Y-5579271D01*
X2792620Y-5579271D02*
X2671668Y-5518795D01*
X2671668Y-5518795D02*
X2611191Y-5458318D01*
X2611191Y-5458318D02*
X2550715Y-5337366D01*
X2550715Y-5337366D02*
X2550715Y-4974509D01*
X2550715Y-4974509D02*
X2611191Y-4853556D01*
X2611191Y-4853556D02*
X2671668Y-4793080D01*
X2671668Y-4793080D02*
X2792620Y-4732604D01*
X2792620Y-4732604D02*
X3034525Y-4732604D01*
X3034525Y-4732604D02*
X3155477Y-4793080D01*
X3760239Y-5579271D02*
X3760239Y-4309271D01*
X3760239Y-4914033D02*
X4485954Y-4914033D01*
X4485954Y-5579271D02*
X4485954Y-4309271D01*
X5272144Y-5579271D02*
X5151192Y-5518795D01*
X5151192Y-5518795D02*
X5090715Y-5458318D01*
X5090715Y-5458318D02*
X5030239Y-5337366D01*
X5030239Y-5337366D02*
X5030239Y-4974509D01*
X5030239Y-4974509D02*
X5090715Y-4853556D01*
X5090715Y-4853556D02*
X5151192Y-4793080D01*
X5151192Y-4793080D02*
X5272144Y-4732604D01*
X5272144Y-4732604D02*
X5453573Y-4732604D01*
X5453573Y-4732604D02*
X5574525Y-4793080D01*
X5574525Y-4793080D02*
X5635001Y-4853556D01*
X5635001Y-4853556D02*
X5695477Y-4974509D01*
X5695477Y-4974509D02*
X5695477Y-5337366D01*
X5695477Y-5337366D02*
X5635001Y-5458318D01*
X5635001Y-5458318D02*
X5574525Y-5518795D01*
X5574525Y-5518795D02*
X5453573Y-5579271D01*
X5453573Y-5579271D02*
X5272144Y-5579271D01*
X6421192Y-5579271D02*
X6300240Y-5518795D01*
X6300240Y-5518795D02*
X6239763Y-5397842D01*
X6239763Y-5397842D02*
X6239763Y-4309271D01*
X7388811Y-5518795D02*
X7267859Y-5579271D01*
X7267859Y-5579271D02*
X7025954Y-5579271D01*
X7025954Y-5579271D02*
X6905001Y-5518795D01*
X6905001Y-5518795D02*
X6844525Y-5397842D01*
X6844525Y-5397842D02*
X6844525Y-4914033D01*
X6844525Y-4914033D02*
X6905001Y-4793080D01*
X6905001Y-4793080D02*
X7025954Y-4732604D01*
X7025954Y-4732604D02*
X7267859Y-4732604D01*
X7267859Y-4732604D02*
X7388811Y-4793080D01*
X7388811Y-4793080D02*
X7449287Y-4914033D01*
X7449287Y-4914033D02*
X7449287Y-5034985D01*
X7449287Y-5034985D02*
X6844525Y-5155937D01*
X7691192Y-5700223D02*
X8658811Y-5700223D01*
X8840239Y-4309271D02*
X9626430Y-4309271D01*
X9626430Y-4309271D02*
X9203096Y-4793080D01*
X9203096Y-4793080D02*
X9384525Y-4793080D01*
X9384525Y-4793080D02*
X9505477Y-4853556D01*
X9505477Y-4853556D02*
X9565953Y-4914033D01*
X9565953Y-4914033D02*
X9626430Y-5034985D01*
X9626430Y-5034985D02*
X9626430Y-5337366D01*
X9626430Y-5337366D02*
X9565953Y-5458318D01*
X9565953Y-5458318D02*
X9505477Y-5518795D01*
X9505477Y-5518795D02*
X9384525Y-5579271D01*
X9384525Y-5579271D02*
X9021668Y-5579271D01*
X9021668Y-5579271D02*
X8900715Y-5518795D01*
X8900715Y-5518795D02*
X8840239Y-5458318D01*
X10170715Y-5458318D02*
X10231192Y-5518795D01*
X10231192Y-5518795D02*
X10170715Y-5579271D01*
X10170715Y-5579271D02*
X10110239Y-5518795D01*
X10110239Y-5518795D02*
X10170715Y-5458318D01*
X10170715Y-5458318D02*
X10170715Y-5579271D01*
X10715001Y-4430223D02*
X10775477Y-4369747D01*
X10775477Y-4369747D02*
X10896430Y-4309271D01*
X10896430Y-4309271D02*
X11198811Y-4309271D01*
X11198811Y-4309271D02*
X11319763Y-4369747D01*
X11319763Y-4369747D02*
X11380239Y-4430223D01*
X11380239Y-4430223D02*
X11440716Y-4551175D01*
X11440716Y-4551175D02*
X11440716Y-4672128D01*
X11440716Y-4672128D02*
X11380239Y-4853556D01*
X11380239Y-4853556D02*
X10654525Y-5579271D01*
X10654525Y-5579271D02*
X11440716Y-5579271D01*
X11985001Y-5579271D02*
X11985001Y-4732604D01*
X11985001Y-4853556D02*
X12045478Y-4793080D01*
X12045478Y-4793080D02*
X12166430Y-4732604D01*
X12166430Y-4732604D02*
X12347859Y-4732604D01*
X12347859Y-4732604D02*
X12468811Y-4793080D01*
X12468811Y-4793080D02*
X12529287Y-4914033D01*
X12529287Y-4914033D02*
X12529287Y-5579271D01*
X12529287Y-4914033D02*
X12589763Y-4793080D01*
X12589763Y-4793080D02*
X12710716Y-4732604D01*
X12710716Y-4732604D02*
X12892144Y-4732604D01*
X12892144Y-4732604D02*
X13013097Y-4793080D01*
X13013097Y-4793080D02*
X13073573Y-4914033D01*
X13073573Y-4914033D02*
X13073573Y-5579271D01*
X13678334Y-5579271D02*
X13678334Y-4732604D01*
X13678334Y-4853556D02*
X13738811Y-4793080D01*
X13738811Y-4793080D02*
X13859763Y-4732604D01*
X13859763Y-4732604D02*
X14041192Y-4732604D01*
X14041192Y-4732604D02*
X14162144Y-4793080D01*
X14162144Y-4793080D02*
X14222620Y-4914033D01*
X14222620Y-4914033D02*
X14222620Y-5579271D01*
X14222620Y-4914033D02*
X14283096Y-4793080D01*
X14283096Y-4793080D02*
X14404049Y-4732604D01*
X14404049Y-4732604D02*
X14585477Y-4732604D01*
X14585477Y-4732604D02*
X14706430Y-4793080D01*
X14706430Y-4793080D02*
X14766906Y-4914033D01*
X14766906Y-4914033D02*
X14766906Y-5579271D01*
D10*
X44508095Y-33462438D02*
X44412857Y-33414819D01*
X44412857Y-33414819D02*
X44270000Y-33414819D01*
X44270000Y-33414819D02*
X44127143Y-33462438D01*
X44127143Y-33462438D02*
X44031905Y-33557676D01*
X44031905Y-33557676D02*
X43984286Y-33652914D01*
X43984286Y-33652914D02*
X43936667Y-33843390D01*
X43936667Y-33843390D02*
X43936667Y-33986247D01*
X43936667Y-33986247D02*
X43984286Y-34176723D01*
X43984286Y-34176723D02*
X44031905Y-34271961D01*
X44031905Y-34271961D02*
X44127143Y-34367200D01*
X44127143Y-34367200D02*
X44270000Y-34414819D01*
X44270000Y-34414819D02*
X44365238Y-34414819D01*
X44365238Y-34414819D02*
X44508095Y-34367200D01*
X44508095Y-34367200D02*
X44555714Y-34319580D01*
X44555714Y-34319580D02*
X44555714Y-33986247D01*
X44555714Y-33986247D02*
X44365238Y-33986247D01*
X45555714Y-34414819D02*
X45222381Y-33938628D01*
X44984286Y-34414819D02*
X44984286Y-33414819D01*
X44984286Y-33414819D02*
X45365238Y-33414819D01*
X45365238Y-33414819D02*
X45460476Y-33462438D01*
X45460476Y-33462438D02*
X45508095Y-33510057D01*
X45508095Y-33510057D02*
X45555714Y-33605295D01*
X45555714Y-33605295D02*
X45555714Y-33748152D01*
X45555714Y-33748152D02*
X45508095Y-33843390D01*
X45508095Y-33843390D02*
X45460476Y-33891009D01*
X45460476Y-33891009D02*
X45365238Y-33938628D01*
X45365238Y-33938628D02*
X44984286Y-33938628D01*
X45984286Y-34414819D02*
X45984286Y-33414819D01*
X45984286Y-33414819D02*
X46555714Y-34414819D01*
X46555714Y-34414819D02*
X46555714Y-33414819D01*
D11*
X44679524Y-30363855D02*
X44679524Y-29563855D01*
X44679524Y-29563855D02*
X44870000Y-29563855D01*
X44870000Y-29563855D02*
X44984286Y-29601950D01*
X44984286Y-29601950D02*
X45060476Y-29678140D01*
X45060476Y-29678140D02*
X45098571Y-29754331D01*
X45098571Y-29754331D02*
X45136667Y-29906712D01*
X45136667Y-29906712D02*
X45136667Y-30020998D01*
X45136667Y-30020998D02*
X45098571Y-30173379D01*
X45098571Y-30173379D02*
X45060476Y-30249569D01*
X45060476Y-30249569D02*
X44984286Y-30325760D01*
X44984286Y-30325760D02*
X44870000Y-30363855D01*
X44870000Y-30363855D02*
X44679524Y-30363855D01*
X45403333Y-29563855D02*
X45898571Y-29563855D01*
X45898571Y-29563855D02*
X45631905Y-29868617D01*
X45631905Y-29868617D02*
X45746190Y-29868617D01*
X45746190Y-29868617D02*
X45822381Y-29906712D01*
X45822381Y-29906712D02*
X45860476Y-29944807D01*
X45860476Y-29944807D02*
X45898571Y-30020998D01*
X45898571Y-30020998D02*
X45898571Y-30211474D01*
X45898571Y-30211474D02*
X45860476Y-30287664D01*
X45860476Y-30287664D02*
X45822381Y-30325760D01*
X45822381Y-30325760D02*
X45746190Y-30363855D01*
X45746190Y-30363855D02*
X45517619Y-30363855D01*
X45517619Y-30363855D02*
X45441428Y-30325760D01*
X45441428Y-30325760D02*
X45403333Y-30287664D01*
D10*
X55627142Y-20414819D02*
X55293809Y-19938628D01*
X55055714Y-20414819D02*
X55055714Y-19414819D01*
X55055714Y-19414819D02*
X55436666Y-19414819D01*
X55436666Y-19414819D02*
X55531904Y-19462438D01*
X55531904Y-19462438D02*
X55579523Y-19510057D01*
X55579523Y-19510057D02*
X55627142Y-19605295D01*
X55627142Y-19605295D02*
X55627142Y-19748152D01*
X55627142Y-19748152D02*
X55579523Y-19843390D01*
X55579523Y-19843390D02*
X55531904Y-19891009D01*
X55531904Y-19891009D02*
X55436666Y-19938628D01*
X55436666Y-19938628D02*
X55055714Y-19938628D01*
X56055714Y-19891009D02*
X56389047Y-19891009D01*
X56531904Y-20414819D02*
X56055714Y-20414819D01*
X56055714Y-20414819D02*
X56055714Y-19414819D01*
X56055714Y-19414819D02*
X56531904Y-19414819D01*
X56960476Y-20414819D02*
X56960476Y-19414819D01*
X56960476Y-19414819D02*
X57198571Y-19414819D01*
X57198571Y-19414819D02*
X57341428Y-19462438D01*
X57341428Y-19462438D02*
X57436666Y-19557676D01*
X57436666Y-19557676D02*
X57484285Y-19652914D01*
X57484285Y-19652914D02*
X57531904Y-19843390D01*
X57531904Y-19843390D02*
X57531904Y-19986247D01*
X57531904Y-19986247D02*
X57484285Y-20176723D01*
X57484285Y-20176723D02*
X57436666Y-20271961D01*
X57436666Y-20271961D02*
X57341428Y-20367200D01*
X57341428Y-20367200D02*
X57198571Y-20414819D01*
X57198571Y-20414819D02*
X56960476Y-20414819D01*
D11*
X55298571Y-16363855D02*
X55298571Y-15563855D01*
X55298571Y-15563855D02*
X55489047Y-15563855D01*
X55489047Y-15563855D02*
X55603333Y-15601950D01*
X55603333Y-15601950D02*
X55679523Y-15678140D01*
X55679523Y-15678140D02*
X55717618Y-15754331D01*
X55717618Y-15754331D02*
X55755714Y-15906712D01*
X55755714Y-15906712D02*
X55755714Y-16020998D01*
X55755714Y-16020998D02*
X55717618Y-16173379D01*
X55717618Y-16173379D02*
X55679523Y-16249569D01*
X55679523Y-16249569D02*
X55603333Y-16325760D01*
X55603333Y-16325760D02*
X55489047Y-16363855D01*
X55489047Y-16363855D02*
X55298571Y-16363855D01*
X56517618Y-16363855D02*
X56060475Y-16363855D01*
X56289047Y-16363855D02*
X56289047Y-15563855D01*
X56289047Y-15563855D02*
X56212856Y-15678140D01*
X56212856Y-15678140D02*
X56136666Y-15754331D01*
X56136666Y-15754331D02*
X56060475Y-15792426D01*
X56784285Y-15563855D02*
X57279523Y-15563855D01*
X57279523Y-15563855D02*
X57012857Y-15868617D01*
X57012857Y-15868617D02*
X57127142Y-15868617D01*
X57127142Y-15868617D02*
X57203333Y-15906712D01*
X57203333Y-15906712D02*
X57241428Y-15944807D01*
X57241428Y-15944807D02*
X57279523Y-16020998D01*
X57279523Y-16020998D02*
X57279523Y-16211474D01*
X57279523Y-16211474D02*
X57241428Y-16287664D01*
X57241428Y-16287664D02*
X57203333Y-16325760D01*
X57203333Y-16325760D02*
X57127142Y-16363855D01*
X57127142Y-16363855D02*
X56898571Y-16363855D01*
X56898571Y-16363855D02*
X56822380Y-16325760D01*
X56822380Y-16325760D02*
X56784285Y-16287664D01*
D10*
X74627142Y-20414819D02*
X74293809Y-19938628D01*
X74055714Y-20414819D02*
X74055714Y-19414819D01*
X74055714Y-19414819D02*
X74436666Y-19414819D01*
X74436666Y-19414819D02*
X74531904Y-19462438D01*
X74531904Y-19462438D02*
X74579523Y-19510057D01*
X74579523Y-19510057D02*
X74627142Y-19605295D01*
X74627142Y-19605295D02*
X74627142Y-19748152D01*
X74627142Y-19748152D02*
X74579523Y-19843390D01*
X74579523Y-19843390D02*
X74531904Y-19891009D01*
X74531904Y-19891009D02*
X74436666Y-19938628D01*
X74436666Y-19938628D02*
X74055714Y-19938628D01*
X75055714Y-19891009D02*
X75389047Y-19891009D01*
X75531904Y-20414819D02*
X75055714Y-20414819D01*
X75055714Y-20414819D02*
X75055714Y-19414819D01*
X75055714Y-19414819D02*
X75531904Y-19414819D01*
X75960476Y-20414819D02*
X75960476Y-19414819D01*
X75960476Y-19414819D02*
X76198571Y-19414819D01*
X76198571Y-19414819D02*
X76341428Y-19462438D01*
X76341428Y-19462438D02*
X76436666Y-19557676D01*
X76436666Y-19557676D02*
X76484285Y-19652914D01*
X76484285Y-19652914D02*
X76531904Y-19843390D01*
X76531904Y-19843390D02*
X76531904Y-19986247D01*
X76531904Y-19986247D02*
X76484285Y-20176723D01*
X76484285Y-20176723D02*
X76436666Y-20271961D01*
X76436666Y-20271961D02*
X76341428Y-20367200D01*
X76341428Y-20367200D02*
X76198571Y-20414819D01*
X76198571Y-20414819D02*
X75960476Y-20414819D01*
D11*
X74298571Y-16363855D02*
X74298571Y-15563855D01*
X74298571Y-15563855D02*
X74489047Y-15563855D01*
X74489047Y-15563855D02*
X74603333Y-15601950D01*
X74603333Y-15601950D02*
X74679523Y-15678140D01*
X74679523Y-15678140D02*
X74717618Y-15754331D01*
X74717618Y-15754331D02*
X74755714Y-15906712D01*
X74755714Y-15906712D02*
X74755714Y-16020998D01*
X74755714Y-16020998D02*
X74717618Y-16173379D01*
X74717618Y-16173379D02*
X74679523Y-16249569D01*
X74679523Y-16249569D02*
X74603333Y-16325760D01*
X74603333Y-16325760D02*
X74489047Y-16363855D01*
X74489047Y-16363855D02*
X74298571Y-16363855D01*
X75517618Y-16363855D02*
X75060475Y-16363855D01*
X75289047Y-16363855D02*
X75289047Y-15563855D01*
X75289047Y-15563855D02*
X75212856Y-15678140D01*
X75212856Y-15678140D02*
X75136666Y-15754331D01*
X75136666Y-15754331D02*
X75060475Y-15792426D01*
X76012857Y-15563855D02*
X76089047Y-15563855D01*
X76089047Y-15563855D02*
X76165238Y-15601950D01*
X76165238Y-15601950D02*
X76203333Y-15640045D01*
X76203333Y-15640045D02*
X76241428Y-15716236D01*
X76241428Y-15716236D02*
X76279523Y-15868617D01*
X76279523Y-15868617D02*
X76279523Y-16059093D01*
X76279523Y-16059093D02*
X76241428Y-16211474D01*
X76241428Y-16211474D02*
X76203333Y-16287664D01*
X76203333Y-16287664D02*
X76165238Y-16325760D01*
X76165238Y-16325760D02*
X76089047Y-16363855D01*
X76089047Y-16363855D02*
X76012857Y-16363855D01*
X76012857Y-16363855D02*
X75936666Y-16325760D01*
X75936666Y-16325760D02*
X75898571Y-16287664D01*
X75898571Y-16287664D02*
X75860476Y-16211474D01*
X75860476Y-16211474D02*
X75822380Y-16059093D01*
X75822380Y-16059093D02*
X75822380Y-15868617D01*
X75822380Y-15868617D02*
X75860476Y-15716236D01*
X75860476Y-15716236D02*
X75898571Y-15640045D01*
X75898571Y-15640045D02*
X75936666Y-15601950D01*
X75936666Y-15601950D02*
X76012857Y-15563855D01*
D10*
X74627142Y-58414819D02*
X74293809Y-57938628D01*
X74055714Y-58414819D02*
X74055714Y-57414819D01*
X74055714Y-57414819D02*
X74436666Y-57414819D01*
X74436666Y-57414819D02*
X74531904Y-57462438D01*
X74531904Y-57462438D02*
X74579523Y-57510057D01*
X74579523Y-57510057D02*
X74627142Y-57605295D01*
X74627142Y-57605295D02*
X74627142Y-57748152D01*
X74627142Y-57748152D02*
X74579523Y-57843390D01*
X74579523Y-57843390D02*
X74531904Y-57891009D01*
X74531904Y-57891009D02*
X74436666Y-57938628D01*
X74436666Y-57938628D02*
X74055714Y-57938628D01*
X75055714Y-57891009D02*
X75389047Y-57891009D01*
X75531904Y-58414819D02*
X75055714Y-58414819D01*
X75055714Y-58414819D02*
X75055714Y-57414819D01*
X75055714Y-57414819D02*
X75531904Y-57414819D01*
X75960476Y-58414819D02*
X75960476Y-57414819D01*
X75960476Y-57414819D02*
X76198571Y-57414819D01*
X76198571Y-57414819D02*
X76341428Y-57462438D01*
X76341428Y-57462438D02*
X76436666Y-57557676D01*
X76436666Y-57557676D02*
X76484285Y-57652914D01*
X76484285Y-57652914D02*
X76531904Y-57843390D01*
X76531904Y-57843390D02*
X76531904Y-57986247D01*
X76531904Y-57986247D02*
X76484285Y-58176723D01*
X76484285Y-58176723D02*
X76436666Y-58271961D01*
X76436666Y-58271961D02*
X76341428Y-58367200D01*
X76341428Y-58367200D02*
X76198571Y-58414819D01*
X76198571Y-58414819D02*
X75960476Y-58414819D01*
D11*
X74679524Y-54363855D02*
X74679524Y-53563855D01*
X74679524Y-53563855D02*
X74870000Y-53563855D01*
X74870000Y-53563855D02*
X74984286Y-53601950D01*
X74984286Y-53601950D02*
X75060476Y-53678140D01*
X75060476Y-53678140D02*
X75098571Y-53754331D01*
X75098571Y-53754331D02*
X75136667Y-53906712D01*
X75136667Y-53906712D02*
X75136667Y-54020998D01*
X75136667Y-54020998D02*
X75098571Y-54173379D01*
X75098571Y-54173379D02*
X75060476Y-54249569D01*
X75060476Y-54249569D02*
X74984286Y-54325760D01*
X74984286Y-54325760D02*
X74870000Y-54363855D01*
X74870000Y-54363855D02*
X74679524Y-54363855D01*
X75822381Y-53830521D02*
X75822381Y-54363855D01*
X75631905Y-53525760D02*
X75441428Y-54097188D01*
X75441428Y-54097188D02*
X75936667Y-54097188D01*
D12*
X85233094Y-75579271D02*
X85233094Y-74309271D01*
X85233094Y-74309271D02*
X85656428Y-75216414D01*
X85656428Y-75216414D02*
X86079761Y-74309271D01*
X86079761Y-74309271D02*
X86079761Y-75579271D01*
X86865952Y-75579271D02*
X86745000Y-75518795D01*
X86745000Y-75518795D02*
X86684523Y-75458318D01*
X86684523Y-75458318D02*
X86624047Y-75337366D01*
X86624047Y-75337366D02*
X86624047Y-74974509D01*
X86624047Y-74974509D02*
X86684523Y-74853556D01*
X86684523Y-74853556D02*
X86745000Y-74793080D01*
X86745000Y-74793080D02*
X86865952Y-74732604D01*
X86865952Y-74732604D02*
X87047381Y-74732604D01*
X87047381Y-74732604D02*
X87168333Y-74793080D01*
X87168333Y-74793080D02*
X87228809Y-74853556D01*
X87228809Y-74853556D02*
X87289285Y-74974509D01*
X87289285Y-74974509D02*
X87289285Y-75337366D01*
X87289285Y-75337366D02*
X87228809Y-75458318D01*
X87228809Y-75458318D02*
X87168333Y-75518795D01*
X87168333Y-75518795D02*
X87047381Y-75579271D01*
X87047381Y-75579271D02*
X86865952Y-75579271D01*
X88377857Y-74732604D02*
X88377857Y-75579271D01*
X87833571Y-74732604D02*
X87833571Y-75397842D01*
X87833571Y-75397842D02*
X87894048Y-75518795D01*
X87894048Y-75518795D02*
X88015000Y-75579271D01*
X88015000Y-75579271D02*
X88196429Y-75579271D01*
X88196429Y-75579271D02*
X88317381Y-75518795D01*
X88317381Y-75518795D02*
X88377857Y-75458318D01*
X88982619Y-74732604D02*
X88982619Y-75579271D01*
X88982619Y-74853556D02*
X89043096Y-74793080D01*
X89043096Y-74793080D02*
X89164048Y-74732604D01*
X89164048Y-74732604D02*
X89345477Y-74732604D01*
X89345477Y-74732604D02*
X89466429Y-74793080D01*
X89466429Y-74793080D02*
X89526905Y-74914033D01*
X89526905Y-74914033D02*
X89526905Y-75579271D01*
X89950239Y-74732604D02*
X90434048Y-74732604D01*
X90131667Y-74309271D02*
X90131667Y-75397842D01*
X90131667Y-75397842D02*
X90192144Y-75518795D01*
X90192144Y-75518795D02*
X90313096Y-75579271D01*
X90313096Y-75579271D02*
X90434048Y-75579271D01*
X90857381Y-75579271D02*
X90857381Y-74732604D01*
X90857381Y-74309271D02*
X90796905Y-74369747D01*
X90796905Y-74369747D02*
X90857381Y-74430223D01*
X90857381Y-74430223D02*
X90917858Y-74369747D01*
X90917858Y-74369747D02*
X90857381Y-74309271D01*
X90857381Y-74309271D02*
X90857381Y-74430223D01*
X91462143Y-74732604D02*
X91462143Y-75579271D01*
X91462143Y-74853556D02*
X91522620Y-74793080D01*
X91522620Y-74793080D02*
X91643572Y-74732604D01*
X91643572Y-74732604D02*
X91825001Y-74732604D01*
X91825001Y-74732604D02*
X91945953Y-74793080D01*
X91945953Y-74793080D02*
X92006429Y-74914033D01*
X92006429Y-74914033D02*
X92006429Y-75579271D01*
X93155477Y-74732604D02*
X93155477Y-75760699D01*
X93155477Y-75760699D02*
X93095001Y-75881652D01*
X93095001Y-75881652D02*
X93034525Y-75942128D01*
X93034525Y-75942128D02*
X92913572Y-76002604D01*
X92913572Y-76002604D02*
X92732144Y-76002604D01*
X92732144Y-76002604D02*
X92611191Y-75942128D01*
X93155477Y-75518795D02*
X93034525Y-75579271D01*
X93034525Y-75579271D02*
X92792620Y-75579271D01*
X92792620Y-75579271D02*
X92671668Y-75518795D01*
X92671668Y-75518795D02*
X92611191Y-75458318D01*
X92611191Y-75458318D02*
X92550715Y-75337366D01*
X92550715Y-75337366D02*
X92550715Y-74974509D01*
X92550715Y-74974509D02*
X92611191Y-74853556D01*
X92611191Y-74853556D02*
X92671668Y-74793080D01*
X92671668Y-74793080D02*
X92792620Y-74732604D01*
X92792620Y-74732604D02*
X93034525Y-74732604D01*
X93034525Y-74732604D02*
X93155477Y-74793080D01*
X93760239Y-75579271D02*
X93760239Y-74309271D01*
X93760239Y-74914033D02*
X94485954Y-74914033D01*
X94485954Y-75579271D02*
X94485954Y-74309271D01*
X95272144Y-75579271D02*
X95151192Y-75518795D01*
X95151192Y-75518795D02*
X95090715Y-75458318D01*
X95090715Y-75458318D02*
X95030239Y-75337366D01*
X95030239Y-75337366D02*
X95030239Y-74974509D01*
X95030239Y-74974509D02*
X95090715Y-74853556D01*
X95090715Y-74853556D02*
X95151192Y-74793080D01*
X95151192Y-74793080D02*
X95272144Y-74732604D01*
X95272144Y-74732604D02*
X95453573Y-74732604D01*
X95453573Y-74732604D02*
X95574525Y-74793080D01*
X95574525Y-74793080D02*
X95635001Y-74853556D01*
X95635001Y-74853556D02*
X95695477Y-74974509D01*
X95695477Y-74974509D02*
X95695477Y-75337366D01*
X95695477Y-75337366D02*
X95635001Y-75458318D01*
X95635001Y-75458318D02*
X95574525Y-75518795D01*
X95574525Y-75518795D02*
X95453573Y-75579271D01*
X95453573Y-75579271D02*
X95272144Y-75579271D01*
X96421192Y-75579271D02*
X96300240Y-75518795D01*
X96300240Y-75518795D02*
X96239763Y-75397842D01*
X96239763Y-75397842D02*
X96239763Y-74309271D01*
X97388811Y-75518795D02*
X97267859Y-75579271D01*
X97267859Y-75579271D02*
X97025954Y-75579271D01*
X97025954Y-75579271D02*
X96905001Y-75518795D01*
X96905001Y-75518795D02*
X96844525Y-75397842D01*
X96844525Y-75397842D02*
X96844525Y-74914033D01*
X96844525Y-74914033D02*
X96905001Y-74793080D01*
X96905001Y-74793080D02*
X97025954Y-74732604D01*
X97025954Y-74732604D02*
X97267859Y-74732604D01*
X97267859Y-74732604D02*
X97388811Y-74793080D01*
X97388811Y-74793080D02*
X97449287Y-74914033D01*
X97449287Y-74914033D02*
X97449287Y-75034985D01*
X97449287Y-75034985D02*
X96844525Y-75155937D01*
X97691192Y-75700223D02*
X98658811Y-75700223D01*
X98840239Y-74309271D02*
X99626430Y-74309271D01*
X99626430Y-74309271D02*
X99203096Y-74793080D01*
X99203096Y-74793080D02*
X99384525Y-74793080D01*
X99384525Y-74793080D02*
X99505477Y-74853556D01*
X99505477Y-74853556D02*
X99565953Y-74914033D01*
X99565953Y-74914033D02*
X99626430Y-75034985D01*
X99626430Y-75034985D02*
X99626430Y-75337366D01*
X99626430Y-75337366D02*
X99565953Y-75458318D01*
X99565953Y-75458318D02*
X99505477Y-75518795D01*
X99505477Y-75518795D02*
X99384525Y-75579271D01*
X99384525Y-75579271D02*
X99021668Y-75579271D01*
X99021668Y-75579271D02*
X98900715Y-75518795D01*
X98900715Y-75518795D02*
X98840239Y-75458318D01*
X100170715Y-75458318D02*
X100231192Y-75518795D01*
X100231192Y-75518795D02*
X100170715Y-75579271D01*
X100170715Y-75579271D02*
X100110239Y-75518795D01*
X100110239Y-75518795D02*
X100170715Y-75458318D01*
X100170715Y-75458318D02*
X100170715Y-75579271D01*
X100715001Y-74430223D02*
X100775477Y-74369747D01*
X100775477Y-74369747D02*
X100896430Y-74309271D01*
X100896430Y-74309271D02*
X101198811Y-74309271D01*
X101198811Y-74309271D02*
X101319763Y-74369747D01*
X101319763Y-74369747D02*
X101380239Y-74430223D01*
X101380239Y-74430223D02*
X101440716Y-74551175D01*
X101440716Y-74551175D02*
X101440716Y-74672128D01*
X101440716Y-74672128D02*
X101380239Y-74853556D01*
X101380239Y-74853556D02*
X100654525Y-75579271D01*
X100654525Y-75579271D02*
X101440716Y-75579271D01*
X101985001Y-75579271D02*
X101985001Y-74732604D01*
X101985001Y-74853556D02*
X102045478Y-74793080D01*
X102045478Y-74793080D02*
X102166430Y-74732604D01*
X102166430Y-74732604D02*
X102347859Y-74732604D01*
X102347859Y-74732604D02*
X102468811Y-74793080D01*
X102468811Y-74793080D02*
X102529287Y-74914033D01*
X102529287Y-74914033D02*
X102529287Y-75579271D01*
X102529287Y-74914033D02*
X102589763Y-74793080D01*
X102589763Y-74793080D02*
X102710716Y-74732604D01*
X102710716Y-74732604D02*
X102892144Y-74732604D01*
X102892144Y-74732604D02*
X103013097Y-74793080D01*
X103013097Y-74793080D02*
X103073573Y-74914033D01*
X103073573Y-74914033D02*
X103073573Y-75579271D01*
X103678334Y-75579271D02*
X103678334Y-74732604D01*
X103678334Y-74853556D02*
X103738811Y-74793080D01*
X103738811Y-74793080D02*
X103859763Y-74732604D01*
X103859763Y-74732604D02*
X104041192Y-74732604D01*
X104041192Y-74732604D02*
X104162144Y-74793080D01*
X104162144Y-74793080D02*
X104222620Y-74914033D01*
X104222620Y-74914033D02*
X104222620Y-75579271D01*
X104222620Y-74914033D02*
X104283096Y-74793080D01*
X104283096Y-74793080D02*
X104404049Y-74732604D01*
X104404049Y-74732604D02*
X104585477Y-74732604D01*
X104585477Y-74732604D02*
X104706430Y-74793080D01*
X104706430Y-74793080D02*
X104766906Y-74914033D01*
X104766906Y-74914033D02*
X104766906Y-75579271D01*
D10*
X83698571Y-67094819D02*
X83365238Y-66618628D01*
X83127143Y-67094819D02*
X83127143Y-66094819D01*
X83127143Y-66094819D02*
X83508095Y-66094819D01*
X83508095Y-66094819D02*
X83603333Y-66142438D01*
X83603333Y-66142438D02*
X83650952Y-66190057D01*
X83650952Y-66190057D02*
X83698571Y-66285295D01*
X83698571Y-66285295D02*
X83698571Y-66428152D01*
X83698571Y-66428152D02*
X83650952Y-66523390D01*
X83650952Y-66523390D02*
X83603333Y-66571009D01*
X83603333Y-66571009D02*
X83508095Y-66618628D01*
X83508095Y-66618628D02*
X83127143Y-66618628D01*
X84127143Y-67094819D02*
X84127143Y-66094819D01*
X84127143Y-66094819D02*
X84508095Y-66094819D01*
X84508095Y-66094819D02*
X84603333Y-66142438D01*
X84603333Y-66142438D02*
X84650952Y-66190057D01*
X84650952Y-66190057D02*
X84698571Y-66285295D01*
X84698571Y-66285295D02*
X84698571Y-66428152D01*
X84698571Y-66428152D02*
X84650952Y-66523390D01*
X84650952Y-66523390D02*
X84603333Y-66571009D01*
X84603333Y-66571009D02*
X84508095Y-66618628D01*
X84508095Y-66618628D02*
X84127143Y-66618628D01*
X85127143Y-67094819D02*
X85127143Y-66428152D01*
X85127143Y-66094819D02*
X85079524Y-66142438D01*
X85079524Y-66142438D02*
X85127143Y-66190057D01*
X85127143Y-66190057D02*
X85174762Y-66142438D01*
X85174762Y-66142438D02*
X85127143Y-66094819D01*
X85127143Y-66094819D02*
X85127143Y-66190057D01*
X85365238Y-67190057D02*
X86127142Y-67190057D01*
X86889047Y-66142438D02*
X86793809Y-66094819D01*
X86793809Y-66094819D02*
X86650952Y-66094819D01*
X86650952Y-66094819D02*
X86508095Y-66142438D01*
X86508095Y-66142438D02*
X86412857Y-66237676D01*
X86412857Y-66237676D02*
X86365238Y-66332914D01*
X86365238Y-66332914D02*
X86317619Y-66523390D01*
X86317619Y-66523390D02*
X86317619Y-66666247D01*
X86317619Y-66666247D02*
X86365238Y-66856723D01*
X86365238Y-66856723D02*
X86412857Y-66951961D01*
X86412857Y-66951961D02*
X86508095Y-67047200D01*
X86508095Y-67047200D02*
X86650952Y-67094819D01*
X86650952Y-67094819D02*
X86746190Y-67094819D01*
X86746190Y-67094819D02*
X86889047Y-67047200D01*
X86889047Y-67047200D02*
X86936666Y-66999580D01*
X86936666Y-66999580D02*
X86936666Y-66666247D01*
X86936666Y-66666247D02*
X86746190Y-66666247D01*
X87365238Y-67094819D02*
X87365238Y-66094819D01*
X87365238Y-66094819D02*
X87746190Y-66094819D01*
X87746190Y-66094819D02*
X87841428Y-66142438D01*
X87841428Y-66142438D02*
X87889047Y-66190057D01*
X87889047Y-66190057D02*
X87936666Y-66285295D01*
X87936666Y-66285295D02*
X87936666Y-66428152D01*
X87936666Y-66428152D02*
X87889047Y-66523390D01*
X87889047Y-66523390D02*
X87841428Y-66571009D01*
X87841428Y-66571009D02*
X87746190Y-66618628D01*
X87746190Y-66618628D02*
X87365238Y-66618628D01*
X88365238Y-67094819D02*
X88365238Y-66094819D01*
X89031904Y-66094819D02*
X89222380Y-66094819D01*
X89222380Y-66094819D02*
X89317618Y-66142438D01*
X89317618Y-66142438D02*
X89412856Y-66237676D01*
X89412856Y-66237676D02*
X89460475Y-66428152D01*
X89460475Y-66428152D02*
X89460475Y-66761485D01*
X89460475Y-66761485D02*
X89412856Y-66951961D01*
X89412856Y-66951961D02*
X89317618Y-67047200D01*
X89317618Y-67047200D02*
X89222380Y-67094819D01*
X89222380Y-67094819D02*
X89031904Y-67094819D01*
X89031904Y-67094819D02*
X88936666Y-67047200D01*
X88936666Y-67047200D02*
X88841428Y-66951961D01*
X88841428Y-66951961D02*
X88793809Y-66761485D01*
X88793809Y-66761485D02*
X88793809Y-66428152D01*
X88793809Y-66428152D02*
X88841428Y-66237676D01*
X88841428Y-66237676D02*
X88936666Y-66142438D01*
X88936666Y-66142438D02*
X89031904Y-66094819D01*
X85724819Y-40463333D02*
X86439104Y-40463333D01*
X86439104Y-40463333D02*
X86581961Y-40510952D01*
X86581961Y-40510952D02*
X86677200Y-40606190D01*
X86677200Y-40606190D02*
X86724819Y-40749047D01*
X86724819Y-40749047D02*
X86724819Y-40844285D01*
X86724819Y-39463333D02*
X86724819Y-40034761D01*
X86724819Y-39749047D02*
X85724819Y-39749047D01*
X85724819Y-39749047D02*
X85867676Y-39844285D01*
X85867676Y-39844285D02*
X85962914Y-39939523D01*
X85962914Y-39939523D02*
X86010533Y-40034761D01*
X74508095Y-50462438D02*
X74412857Y-50414819D01*
X74412857Y-50414819D02*
X74270000Y-50414819D01*
X74270000Y-50414819D02*
X74127143Y-50462438D01*
X74127143Y-50462438D02*
X74031905Y-50557676D01*
X74031905Y-50557676D02*
X73984286Y-50652914D01*
X73984286Y-50652914D02*
X73936667Y-50843390D01*
X73936667Y-50843390D02*
X73936667Y-50986247D01*
X73936667Y-50986247D02*
X73984286Y-51176723D01*
X73984286Y-51176723D02*
X74031905Y-51271961D01*
X74031905Y-51271961D02*
X74127143Y-51367200D01*
X74127143Y-51367200D02*
X74270000Y-51414819D01*
X74270000Y-51414819D02*
X74365238Y-51414819D01*
X74365238Y-51414819D02*
X74508095Y-51367200D01*
X74508095Y-51367200D02*
X74555714Y-51319580D01*
X74555714Y-51319580D02*
X74555714Y-50986247D01*
X74555714Y-50986247D02*
X74365238Y-50986247D01*
X75555714Y-51414819D02*
X75222381Y-50938628D01*
X74984286Y-51414819D02*
X74984286Y-50414819D01*
X74984286Y-50414819D02*
X75365238Y-50414819D01*
X75365238Y-50414819D02*
X75460476Y-50462438D01*
X75460476Y-50462438D02*
X75508095Y-50510057D01*
X75508095Y-50510057D02*
X75555714Y-50605295D01*
X75555714Y-50605295D02*
X75555714Y-50748152D01*
X75555714Y-50748152D02*
X75508095Y-50843390D01*
X75508095Y-50843390D02*
X75460476Y-50891009D01*
X75460476Y-50891009D02*
X75365238Y-50938628D01*
X75365238Y-50938628D02*
X74984286Y-50938628D01*
X75984286Y-51414819D02*
X75984286Y-50414819D01*
X75984286Y-50414819D02*
X76555714Y-51414819D01*
X76555714Y-51414819D02*
X76555714Y-50414819D01*
D11*
X74298571Y-47363855D02*
X74298571Y-46563855D01*
X74298571Y-46563855D02*
X74489047Y-46563855D01*
X74489047Y-46563855D02*
X74603333Y-46601950D01*
X74603333Y-46601950D02*
X74679523Y-46678140D01*
X74679523Y-46678140D02*
X74717618Y-46754331D01*
X74717618Y-46754331D02*
X74755714Y-46906712D01*
X74755714Y-46906712D02*
X74755714Y-47020998D01*
X74755714Y-47020998D02*
X74717618Y-47173379D01*
X74717618Y-47173379D02*
X74679523Y-47249569D01*
X74679523Y-47249569D02*
X74603333Y-47325760D01*
X74603333Y-47325760D02*
X74489047Y-47363855D01*
X74489047Y-47363855D02*
X74298571Y-47363855D01*
X75060475Y-46640045D02*
X75098571Y-46601950D01*
X75098571Y-46601950D02*
X75174761Y-46563855D01*
X75174761Y-46563855D02*
X75365237Y-46563855D01*
X75365237Y-46563855D02*
X75441428Y-46601950D01*
X75441428Y-46601950D02*
X75479523Y-46640045D01*
X75479523Y-46640045D02*
X75517618Y-46716236D01*
X75517618Y-46716236D02*
X75517618Y-46792426D01*
X75517618Y-46792426D02*
X75479523Y-46906712D01*
X75479523Y-46906712D02*
X75022380Y-47363855D01*
X75022380Y-47363855D02*
X75517618Y-47363855D01*
X76012857Y-46563855D02*
X76089047Y-46563855D01*
X76089047Y-46563855D02*
X76165238Y-46601950D01*
X76165238Y-46601950D02*
X76203333Y-46640045D01*
X76203333Y-46640045D02*
X76241428Y-46716236D01*
X76241428Y-46716236D02*
X76279523Y-46868617D01*
X76279523Y-46868617D02*
X76279523Y-47059093D01*
X76279523Y-47059093D02*
X76241428Y-47211474D01*
X76241428Y-47211474D02*
X76203333Y-47287664D01*
X76203333Y-47287664D02*
X76165238Y-47325760D01*
X76165238Y-47325760D02*
X76089047Y-47363855D01*
X76089047Y-47363855D02*
X76012857Y-47363855D01*
X76012857Y-47363855D02*
X75936666Y-47325760D01*
X75936666Y-47325760D02*
X75898571Y-47287664D01*
X75898571Y-47287664D02*
X75860476Y-47211474D01*
X75860476Y-47211474D02*
X75822380Y-47059093D01*
X75822380Y-47059093D02*
X75822380Y-46868617D01*
X75822380Y-46868617D02*
X75860476Y-46716236D01*
X75860476Y-46716236D02*
X75898571Y-46640045D01*
X75898571Y-46640045D02*
X75936666Y-46601950D01*
X75936666Y-46601950D02*
X76012857Y-46563855D01*
D10*
X74412857Y-26938628D02*
X74412857Y-27414819D01*
X74079524Y-26414819D02*
X74412857Y-26938628D01*
X74412857Y-26938628D02*
X74746190Y-26414819D01*
X75079524Y-26891009D02*
X75412857Y-26891009D01*
X75555714Y-27414819D02*
X75079524Y-27414819D01*
X75079524Y-27414819D02*
X75079524Y-26414819D01*
X75079524Y-26414819D02*
X75555714Y-26414819D01*
X76460476Y-27414819D02*
X75984286Y-27414819D01*
X75984286Y-27414819D02*
X75984286Y-26414819D01*
D11*
X74298571Y-23363855D02*
X74298571Y-22563855D01*
X74298571Y-22563855D02*
X74489047Y-22563855D01*
X74489047Y-22563855D02*
X74603333Y-22601950D01*
X74603333Y-22601950D02*
X74679523Y-22678140D01*
X74679523Y-22678140D02*
X74717618Y-22754331D01*
X74717618Y-22754331D02*
X74755714Y-22906712D01*
X74755714Y-22906712D02*
X74755714Y-23020998D01*
X74755714Y-23020998D02*
X74717618Y-23173379D01*
X74717618Y-23173379D02*
X74679523Y-23249569D01*
X74679523Y-23249569D02*
X74603333Y-23325760D01*
X74603333Y-23325760D02*
X74489047Y-23363855D01*
X74489047Y-23363855D02*
X74298571Y-23363855D01*
X75517618Y-23363855D02*
X75060475Y-23363855D01*
X75289047Y-23363855D02*
X75289047Y-22563855D01*
X75289047Y-22563855D02*
X75212856Y-22678140D01*
X75212856Y-22678140D02*
X75136666Y-22754331D01*
X75136666Y-22754331D02*
X75060475Y-22792426D01*
X76279523Y-23363855D02*
X75822380Y-23363855D01*
X76050952Y-23363855D02*
X76050952Y-22563855D01*
X76050952Y-22563855D02*
X75974761Y-22678140D01*
X75974761Y-22678140D02*
X75898571Y-22754331D01*
X75898571Y-22754331D02*
X75822380Y-22792426D01*
D10*
X44508095Y-71462438D02*
X44412857Y-71414819D01*
X44412857Y-71414819D02*
X44270000Y-71414819D01*
X44270000Y-71414819D02*
X44127143Y-71462438D01*
X44127143Y-71462438D02*
X44031905Y-71557676D01*
X44031905Y-71557676D02*
X43984286Y-71652914D01*
X43984286Y-71652914D02*
X43936667Y-71843390D01*
X43936667Y-71843390D02*
X43936667Y-71986247D01*
X43936667Y-71986247D02*
X43984286Y-72176723D01*
X43984286Y-72176723D02*
X44031905Y-72271961D01*
X44031905Y-72271961D02*
X44127143Y-72367200D01*
X44127143Y-72367200D02*
X44270000Y-72414819D01*
X44270000Y-72414819D02*
X44365238Y-72414819D01*
X44365238Y-72414819D02*
X44508095Y-72367200D01*
X44508095Y-72367200D02*
X44555714Y-72319580D01*
X44555714Y-72319580D02*
X44555714Y-71986247D01*
X44555714Y-71986247D02*
X44365238Y-71986247D01*
X45555714Y-72414819D02*
X45222381Y-71938628D01*
X44984286Y-72414819D02*
X44984286Y-71414819D01*
X44984286Y-71414819D02*
X45365238Y-71414819D01*
X45365238Y-71414819D02*
X45460476Y-71462438D01*
X45460476Y-71462438D02*
X45508095Y-71510057D01*
X45508095Y-71510057D02*
X45555714Y-71605295D01*
X45555714Y-71605295D02*
X45555714Y-71748152D01*
X45555714Y-71748152D02*
X45508095Y-71843390D01*
X45508095Y-71843390D02*
X45460476Y-71891009D01*
X45460476Y-71891009D02*
X45365238Y-71938628D01*
X45365238Y-71938628D02*
X44984286Y-71938628D01*
X45984286Y-72414819D02*
X45984286Y-71414819D01*
X45984286Y-71414819D02*
X46555714Y-72414819D01*
X46555714Y-72414819D02*
X46555714Y-71414819D01*
D11*
X44679524Y-68363855D02*
X44679524Y-67563855D01*
X44679524Y-67563855D02*
X44870000Y-67563855D01*
X44870000Y-67563855D02*
X44984286Y-67601950D01*
X44984286Y-67601950D02*
X45060476Y-67678140D01*
X45060476Y-67678140D02*
X45098571Y-67754331D01*
X45098571Y-67754331D02*
X45136667Y-67906712D01*
X45136667Y-67906712D02*
X45136667Y-68020998D01*
X45136667Y-68020998D02*
X45098571Y-68173379D01*
X45098571Y-68173379D02*
X45060476Y-68249569D01*
X45060476Y-68249569D02*
X44984286Y-68325760D01*
X44984286Y-68325760D02*
X44870000Y-68363855D01*
X44870000Y-68363855D02*
X44679524Y-68363855D01*
X45517619Y-68363855D02*
X45670000Y-68363855D01*
X45670000Y-68363855D02*
X45746190Y-68325760D01*
X45746190Y-68325760D02*
X45784286Y-68287664D01*
X45784286Y-68287664D02*
X45860476Y-68173379D01*
X45860476Y-68173379D02*
X45898571Y-68020998D01*
X45898571Y-68020998D02*
X45898571Y-67716236D01*
X45898571Y-67716236D02*
X45860476Y-67640045D01*
X45860476Y-67640045D02*
X45822381Y-67601950D01*
X45822381Y-67601950D02*
X45746190Y-67563855D01*
X45746190Y-67563855D02*
X45593809Y-67563855D01*
X45593809Y-67563855D02*
X45517619Y-67601950D01*
X45517619Y-67601950D02*
X45479524Y-67640045D01*
X45479524Y-67640045D02*
X45441428Y-67716236D01*
X45441428Y-67716236D02*
X45441428Y-67906712D01*
X45441428Y-67906712D02*
X45479524Y-67982902D01*
X45479524Y-67982902D02*
X45517619Y-68020998D01*
X45517619Y-68020998D02*
X45593809Y-68059093D01*
X45593809Y-68059093D02*
X45746190Y-68059093D01*
X45746190Y-68059093D02*
X45822381Y-68020998D01*
X45822381Y-68020998D02*
X45860476Y-67982902D01*
X45860476Y-67982902D02*
X45898571Y-67906712D01*
D10*
X4904761Y-66961009D02*
X5047618Y-67008628D01*
X5047618Y-67008628D02*
X5095237Y-67056247D01*
X5095237Y-67056247D02*
X5142856Y-67151485D01*
X5142856Y-67151485D02*
X5142856Y-67294342D01*
X5142856Y-67294342D02*
X5095237Y-67389580D01*
X5095237Y-67389580D02*
X5047618Y-67437200D01*
X5047618Y-67437200D02*
X4952380Y-67484819D01*
X4952380Y-67484819D02*
X4571428Y-67484819D01*
X4571428Y-67484819D02*
X4571428Y-66484819D01*
X4571428Y-66484819D02*
X4904761Y-66484819D01*
X4904761Y-66484819D02*
X4999999Y-66532438D01*
X4999999Y-66532438D02*
X5047618Y-66580057D01*
X5047618Y-66580057D02*
X5095237Y-66675295D01*
X5095237Y-66675295D02*
X5095237Y-66770533D01*
X5095237Y-66770533D02*
X5047618Y-66865771D01*
X5047618Y-66865771D02*
X4999999Y-66913390D01*
X4999999Y-66913390D02*
X4904761Y-66961009D01*
X4904761Y-66961009D02*
X4571428Y-66961009D01*
X5714285Y-67484819D02*
X5619047Y-67437200D01*
X5619047Y-67437200D02*
X5571428Y-67341961D01*
X5571428Y-67341961D02*
X5571428Y-66484819D01*
X6523809Y-66818152D02*
X6523809Y-67484819D01*
X6095238Y-66818152D02*
X6095238Y-67341961D01*
X6095238Y-67341961D02*
X6142857Y-67437200D01*
X6142857Y-67437200D02*
X6238095Y-67484819D01*
X6238095Y-67484819D02*
X6380952Y-67484819D01*
X6380952Y-67484819D02*
X6476190Y-67437200D01*
X6476190Y-67437200D02*
X6523809Y-67389580D01*
X7380952Y-67437200D02*
X7285714Y-67484819D01*
X7285714Y-67484819D02*
X7095238Y-67484819D01*
X7095238Y-67484819D02*
X7000000Y-67437200D01*
X7000000Y-67437200D02*
X6952381Y-67341961D01*
X6952381Y-67341961D02*
X6952381Y-66961009D01*
X6952381Y-66961009D02*
X7000000Y-66865771D01*
X7000000Y-66865771D02*
X7095238Y-66818152D01*
X7095238Y-66818152D02*
X7285714Y-66818152D01*
X7285714Y-66818152D02*
X7380952Y-66865771D01*
X7380952Y-66865771D02*
X7428571Y-66961009D01*
X7428571Y-66961009D02*
X7428571Y-67056247D01*
X7428571Y-67056247D02*
X6952381Y-67151485D01*
X7857143Y-66818152D02*
X7857143Y-67818152D01*
X7857143Y-66865771D02*
X7952381Y-66818152D01*
X7952381Y-66818152D02*
X8142857Y-66818152D01*
X8142857Y-66818152D02*
X8238095Y-66865771D01*
X8238095Y-66865771D02*
X8285714Y-66913390D01*
X8285714Y-66913390D02*
X8333333Y-67008628D01*
X8333333Y-67008628D02*
X8333333Y-67294342D01*
X8333333Y-67294342D02*
X8285714Y-67389580D01*
X8285714Y-67389580D02*
X8238095Y-67437200D01*
X8238095Y-67437200D02*
X8142857Y-67484819D01*
X8142857Y-67484819D02*
X7952381Y-67484819D01*
X7952381Y-67484819D02*
X7857143Y-67437200D01*
X8761905Y-67484819D02*
X8761905Y-66818152D01*
X8761905Y-66484819D02*
X8714286Y-66532438D01*
X8714286Y-66532438D02*
X8761905Y-66580057D01*
X8761905Y-66580057D02*
X8809524Y-66532438D01*
X8809524Y-66532438D02*
X8761905Y-66484819D01*
X8761905Y-66484819D02*
X8761905Y-66580057D01*
X9380952Y-67484819D02*
X9285714Y-67437200D01*
X9285714Y-67437200D02*
X9238095Y-67341961D01*
X9238095Y-67341961D02*
X9238095Y-66484819D01*
X9904762Y-67484819D02*
X9809524Y-67437200D01*
X9809524Y-67437200D02*
X9761905Y-67341961D01*
X9761905Y-67341961D02*
X9761905Y-66484819D01*
X10047620Y-67580057D02*
X10809524Y-67580057D01*
X11000001Y-67199104D02*
X11476191Y-67199104D01*
X10904763Y-67484819D02*
X11238096Y-66484819D01*
X11238096Y-66484819D02*
X11571429Y-67484819D01*
X7454819Y-40891904D02*
X8264342Y-40891904D01*
X8264342Y-40891904D02*
X8359580Y-40844285D01*
X8359580Y-40844285D02*
X8407200Y-40796666D01*
X8407200Y-40796666D02*
X8454819Y-40701428D01*
X8454819Y-40701428D02*
X8454819Y-40510952D01*
X8454819Y-40510952D02*
X8407200Y-40415714D01*
X8407200Y-40415714D02*
X8359580Y-40368095D01*
X8359580Y-40368095D02*
X8264342Y-40320476D01*
X8264342Y-40320476D02*
X7454819Y-40320476D01*
X8454819Y-39320476D02*
X8454819Y-39891904D01*
X8454819Y-39606190D02*
X7454819Y-39606190D01*
X7454819Y-39606190D02*
X7597676Y-39701428D01*
X7597676Y-39701428D02*
X7692914Y-39796666D01*
X7692914Y-39796666D02*
X7740533Y-39891904D01*
X55627142Y-72414819D02*
X55293809Y-71938628D01*
X55055714Y-72414819D02*
X55055714Y-71414819D01*
X55055714Y-71414819D02*
X55436666Y-71414819D01*
X55436666Y-71414819D02*
X55531904Y-71462438D01*
X55531904Y-71462438D02*
X55579523Y-71510057D01*
X55579523Y-71510057D02*
X55627142Y-71605295D01*
X55627142Y-71605295D02*
X55627142Y-71748152D01*
X55627142Y-71748152D02*
X55579523Y-71843390D01*
X55579523Y-71843390D02*
X55531904Y-71891009D01*
X55531904Y-71891009D02*
X55436666Y-71938628D01*
X55436666Y-71938628D02*
X55055714Y-71938628D01*
X56055714Y-71891009D02*
X56389047Y-71891009D01*
X56531904Y-72414819D02*
X56055714Y-72414819D01*
X56055714Y-72414819D02*
X56055714Y-71414819D01*
X56055714Y-71414819D02*
X56531904Y-71414819D01*
X56960476Y-72414819D02*
X56960476Y-71414819D01*
X56960476Y-71414819D02*
X57198571Y-71414819D01*
X57198571Y-71414819D02*
X57341428Y-71462438D01*
X57341428Y-71462438D02*
X57436666Y-71557676D01*
X57436666Y-71557676D02*
X57484285Y-71652914D01*
X57484285Y-71652914D02*
X57531904Y-71843390D01*
X57531904Y-71843390D02*
X57531904Y-71986247D01*
X57531904Y-71986247D02*
X57484285Y-72176723D01*
X57484285Y-72176723D02*
X57436666Y-72271961D01*
X57436666Y-72271961D02*
X57341428Y-72367200D01*
X57341428Y-72367200D02*
X57198571Y-72414819D01*
X57198571Y-72414819D02*
X56960476Y-72414819D01*
D11*
X55298571Y-68363855D02*
X55298571Y-67563855D01*
X55298571Y-67563855D02*
X55489047Y-67563855D01*
X55489047Y-67563855D02*
X55603333Y-67601950D01*
X55603333Y-67601950D02*
X55679523Y-67678140D01*
X55679523Y-67678140D02*
X55717618Y-67754331D01*
X55717618Y-67754331D02*
X55755714Y-67906712D01*
X55755714Y-67906712D02*
X55755714Y-68020998D01*
X55755714Y-68020998D02*
X55717618Y-68173379D01*
X55717618Y-68173379D02*
X55679523Y-68249569D01*
X55679523Y-68249569D02*
X55603333Y-68325760D01*
X55603333Y-68325760D02*
X55489047Y-68363855D01*
X55489047Y-68363855D02*
X55298571Y-68363855D01*
X56517618Y-68363855D02*
X56060475Y-68363855D01*
X56289047Y-68363855D02*
X56289047Y-67563855D01*
X56289047Y-67563855D02*
X56212856Y-67678140D01*
X56212856Y-67678140D02*
X56136666Y-67754331D01*
X56136666Y-67754331D02*
X56060475Y-67792426D01*
X57241428Y-67563855D02*
X56860476Y-67563855D01*
X56860476Y-67563855D02*
X56822380Y-67944807D01*
X56822380Y-67944807D02*
X56860476Y-67906712D01*
X56860476Y-67906712D02*
X56936666Y-67868617D01*
X56936666Y-67868617D02*
X57127142Y-67868617D01*
X57127142Y-67868617D02*
X57203333Y-67906712D01*
X57203333Y-67906712D02*
X57241428Y-67944807D01*
X57241428Y-67944807D02*
X57279523Y-68020998D01*
X57279523Y-68020998D02*
X57279523Y-68211474D01*
X57279523Y-68211474D02*
X57241428Y-68287664D01*
X57241428Y-68287664D02*
X57203333Y-68325760D01*
X57203333Y-68325760D02*
X57127142Y-68363855D01*
X57127142Y-68363855D02*
X56936666Y-68363855D01*
X56936666Y-68363855D02*
X56860476Y-68325760D01*
X56860476Y-68325760D02*
X56822380Y-68287664D01*
D10*
X44627142Y-20414819D02*
X44293809Y-19938628D01*
X44055714Y-20414819D02*
X44055714Y-19414819D01*
X44055714Y-19414819D02*
X44436666Y-19414819D01*
X44436666Y-19414819D02*
X44531904Y-19462438D01*
X44531904Y-19462438D02*
X44579523Y-19510057D01*
X44579523Y-19510057D02*
X44627142Y-19605295D01*
X44627142Y-19605295D02*
X44627142Y-19748152D01*
X44627142Y-19748152D02*
X44579523Y-19843390D01*
X44579523Y-19843390D02*
X44531904Y-19891009D01*
X44531904Y-19891009D02*
X44436666Y-19938628D01*
X44436666Y-19938628D02*
X44055714Y-19938628D01*
X45055714Y-19891009D02*
X45389047Y-19891009D01*
X45531904Y-20414819D02*
X45055714Y-20414819D01*
X45055714Y-20414819D02*
X45055714Y-19414819D01*
X45055714Y-19414819D02*
X45531904Y-19414819D01*
X45960476Y-20414819D02*
X45960476Y-19414819D01*
X45960476Y-19414819D02*
X46198571Y-19414819D01*
X46198571Y-19414819D02*
X46341428Y-19462438D01*
X46341428Y-19462438D02*
X46436666Y-19557676D01*
X46436666Y-19557676D02*
X46484285Y-19652914D01*
X46484285Y-19652914D02*
X46531904Y-19843390D01*
X46531904Y-19843390D02*
X46531904Y-19986247D01*
X46531904Y-19986247D02*
X46484285Y-20176723D01*
X46484285Y-20176723D02*
X46436666Y-20271961D01*
X46436666Y-20271961D02*
X46341428Y-20367200D01*
X46341428Y-20367200D02*
X46198571Y-20414819D01*
X46198571Y-20414819D02*
X45960476Y-20414819D01*
D11*
X44679524Y-16363855D02*
X44679524Y-15563855D01*
X44679524Y-15563855D02*
X44870000Y-15563855D01*
X44870000Y-15563855D02*
X44984286Y-15601950D01*
X44984286Y-15601950D02*
X45060476Y-15678140D01*
X45060476Y-15678140D02*
X45098571Y-15754331D01*
X45098571Y-15754331D02*
X45136667Y-15906712D01*
X45136667Y-15906712D02*
X45136667Y-16020998D01*
X45136667Y-16020998D02*
X45098571Y-16173379D01*
X45098571Y-16173379D02*
X45060476Y-16249569D01*
X45060476Y-16249569D02*
X44984286Y-16325760D01*
X44984286Y-16325760D02*
X44870000Y-16363855D01*
X44870000Y-16363855D02*
X44679524Y-16363855D01*
X45898571Y-16363855D02*
X45441428Y-16363855D01*
X45670000Y-16363855D02*
X45670000Y-15563855D01*
X45670000Y-15563855D02*
X45593809Y-15678140D01*
X45593809Y-15678140D02*
X45517619Y-15754331D01*
X45517619Y-15754331D02*
X45441428Y-15792426D01*
D10*
X44627142Y-44414819D02*
X44293809Y-43938628D01*
X44055714Y-44414819D02*
X44055714Y-43414819D01*
X44055714Y-43414819D02*
X44436666Y-43414819D01*
X44436666Y-43414819D02*
X44531904Y-43462438D01*
X44531904Y-43462438D02*
X44579523Y-43510057D01*
X44579523Y-43510057D02*
X44627142Y-43605295D01*
X44627142Y-43605295D02*
X44627142Y-43748152D01*
X44627142Y-43748152D02*
X44579523Y-43843390D01*
X44579523Y-43843390D02*
X44531904Y-43891009D01*
X44531904Y-43891009D02*
X44436666Y-43938628D01*
X44436666Y-43938628D02*
X44055714Y-43938628D01*
X45055714Y-43891009D02*
X45389047Y-43891009D01*
X45531904Y-44414819D02*
X45055714Y-44414819D01*
X45055714Y-44414819D02*
X45055714Y-43414819D01*
X45055714Y-43414819D02*
X45531904Y-43414819D01*
X45960476Y-44414819D02*
X45960476Y-43414819D01*
X45960476Y-43414819D02*
X46198571Y-43414819D01*
X46198571Y-43414819D02*
X46341428Y-43462438D01*
X46341428Y-43462438D02*
X46436666Y-43557676D01*
X46436666Y-43557676D02*
X46484285Y-43652914D01*
X46484285Y-43652914D02*
X46531904Y-43843390D01*
X46531904Y-43843390D02*
X46531904Y-43986247D01*
X46531904Y-43986247D02*
X46484285Y-44176723D01*
X46484285Y-44176723D02*
X46436666Y-44271961D01*
X46436666Y-44271961D02*
X46341428Y-44367200D01*
X46341428Y-44367200D02*
X46198571Y-44414819D01*
X46198571Y-44414819D02*
X45960476Y-44414819D01*
D11*
X44298571Y-40363855D02*
X44298571Y-39563855D01*
X44298571Y-39563855D02*
X44489047Y-39563855D01*
X44489047Y-39563855D02*
X44603333Y-39601950D01*
X44603333Y-39601950D02*
X44679523Y-39678140D01*
X44679523Y-39678140D02*
X44717618Y-39754331D01*
X44717618Y-39754331D02*
X44755714Y-39906712D01*
X44755714Y-39906712D02*
X44755714Y-40020998D01*
X44755714Y-40020998D02*
X44717618Y-40173379D01*
X44717618Y-40173379D02*
X44679523Y-40249569D01*
X44679523Y-40249569D02*
X44603333Y-40325760D01*
X44603333Y-40325760D02*
X44489047Y-40363855D01*
X44489047Y-40363855D02*
X44298571Y-40363855D01*
X45517618Y-40363855D02*
X45060475Y-40363855D01*
X45289047Y-40363855D02*
X45289047Y-39563855D01*
X45289047Y-39563855D02*
X45212856Y-39678140D01*
X45212856Y-39678140D02*
X45136666Y-39754331D01*
X45136666Y-39754331D02*
X45060475Y-39792426D01*
X45784285Y-39563855D02*
X46317619Y-39563855D01*
X46317619Y-39563855D02*
X45974761Y-40363855D01*
%TO.C,D7*%
D13*
X42770000Y-52530306D02*
X42770000Y-55469694D01*
X42770000Y-52530306D02*
G75*
G02*
X42770000Y-55469694I2500000J-1469694D01*
G01*
X47770000Y-54000000D02*
G75*
G02*
X42770000Y-54000000I-2500000J0D01*
G01*
X42770000Y-54000000D02*
G75*
G02*
X47770000Y-54000000I2500000J0D01*
G01*
%TO.C,D2*%
X42770000Y-21530306D02*
X42770000Y-24469694D01*
X42770000Y-21530306D02*
G75*
G02*
X42770000Y-24469694I2500000J-1469694D01*
G01*
X47770000Y-23000000D02*
G75*
G02*
X42770000Y-23000000I-2500000J0D01*
G01*
X42770000Y-23000000D02*
G75*
G02*
X47770000Y-23000000I2500000J0D01*
G01*
%TO.C,D8*%
X42770000Y-59530306D02*
X42770000Y-62469694D01*
X42770000Y-59530306D02*
G75*
G02*
X42770000Y-62469694I2500000J-1469694D01*
G01*
X47770000Y-61000000D02*
G75*
G02*
X42770000Y-61000000I-2500000J0D01*
G01*
X42770000Y-61000000D02*
G75*
G02*
X47770000Y-61000000I2500000J0D01*
G01*
%TO.C,D18*%
X42770000Y-45530306D02*
X42770000Y-48469694D01*
X42770000Y-45530306D02*
G75*
G02*
X42770000Y-48469694I2500000J-1469694D01*
G01*
X47770000Y-47000000D02*
G75*
G02*
X42770000Y-47000000I-2500000J0D01*
G01*
X42770000Y-47000000D02*
G75*
G02*
X47770000Y-47000000I2500000J0D01*
G01*
%TO.C,D5*%
X72770000Y-59530306D02*
X72770000Y-62469694D01*
X72770000Y-59530306D02*
G75*
G02*
X72770000Y-62469694I2500000J-1469694D01*
G01*
X77770000Y-61000000D02*
G75*
G02*
X72770000Y-61000000I-2500000J0D01*
G01*
X72770000Y-61000000D02*
G75*
G02*
X77770000Y-61000000I2500000J0D01*
G01*
%TO.C,D14*%
X62770000Y-14530306D02*
X62770000Y-17469694D01*
X62770000Y-14530306D02*
G75*
G02*
X62770000Y-17469694I2500000J-1469694D01*
G01*
X67770000Y-16000000D02*
G75*
G02*
X62770000Y-16000000I-2500000J0D01*
G01*
X62770000Y-16000000D02*
G75*
G02*
X67770000Y-16000000I2500000J0D01*
G01*
%TO.C,D12*%
X72770000Y-28530306D02*
X72770000Y-31469694D01*
X72770000Y-28530306D02*
G75*
G02*
X72770000Y-31469694I2500000J-1469694D01*
G01*
X77770000Y-30000000D02*
G75*
G02*
X72770000Y-30000000I-2500000J0D01*
G01*
X72770000Y-30000000D02*
G75*
G02*
X77770000Y-30000000I2500000J0D01*
G01*
%TO.C,D6*%
X72770000Y-66530306D02*
X72770000Y-69469694D01*
X72770000Y-66530306D02*
G75*
G02*
X72770000Y-69469694I2500000J-1469694D01*
G01*
X77770000Y-68000000D02*
G75*
G02*
X72770000Y-68000000I-2500000J0D01*
G01*
X72770000Y-68000000D02*
G75*
G02*
X77770000Y-68000000I2500000J0D01*
G01*
%TO.C,D19*%
X72770000Y-38530306D02*
X72770000Y-41469694D01*
X72770000Y-38530306D02*
G75*
G02*
X72770000Y-41469694I2500000J-1469694D01*
G01*
X77770000Y-40000000D02*
G75*
G02*
X72770000Y-40000000I-2500000J0D01*
G01*
X72770000Y-40000000D02*
G75*
G02*
X77770000Y-40000000I2500000J0D01*
G01*
%TO.C,U2*%
X29590000Y-14730000D02*
X31495000Y-14730000D01*
X29590000Y-65530000D02*
X29590000Y-14730000D01*
X31495000Y-14730000D02*
X32130000Y-15365000D01*
X32130000Y-15365000D02*
X32130000Y-65530000D01*
X32130000Y-65530000D02*
X29590000Y-65530000D01*
%TO.C,D16*%
X62770000Y-66530306D02*
X62770000Y-69469694D01*
X62770000Y-66530306D02*
G75*
G02*
X62770000Y-69469694I2500000J-1469694D01*
G01*
X67770000Y-68000000D02*
G75*
G02*
X62770000Y-68000000I-2500000J0D01*
G01*
X62770000Y-68000000D02*
G75*
G02*
X67770000Y-68000000I2500000J0D01*
G01*
%TO.C,D3*%
X42770000Y-28530306D02*
X42770000Y-31469694D01*
X42770000Y-28530306D02*
G75*
G02*
X42770000Y-31469694I2500000J-1469694D01*
G01*
X47770000Y-30000000D02*
G75*
G02*
X42770000Y-30000000I-2500000J0D01*
G01*
X42770000Y-30000000D02*
G75*
G02*
X47770000Y-30000000I2500000J0D01*
G01*
%TO.C,D13*%
X53770000Y-14530306D02*
X53770000Y-17469694D01*
X53770000Y-14530306D02*
G75*
G02*
X53770000Y-17469694I2500000J-1469694D01*
G01*
X58770000Y-16000000D02*
G75*
G02*
X53770000Y-16000000I-2500000J0D01*
G01*
X53770000Y-16000000D02*
G75*
G02*
X58770000Y-16000000I2500000J0D01*
G01*
%TO.C,D10*%
X72770000Y-14530306D02*
X72770000Y-17469694D01*
X72770000Y-14530306D02*
G75*
G02*
X72770000Y-17469694I2500000J-1469694D01*
G01*
X77770000Y-16000000D02*
G75*
G02*
X72770000Y-16000000I-2500000J0D01*
G01*
X72770000Y-16000000D02*
G75*
G02*
X77770000Y-16000000I2500000J0D01*
G01*
%TO.C,D4*%
X72770000Y-52530306D02*
X72770000Y-55469694D01*
X72770000Y-52530306D02*
G75*
G02*
X72770000Y-55469694I2500000J-1469694D01*
G01*
X77770000Y-54000000D02*
G75*
G02*
X72770000Y-54000000I-2500000J0D01*
G01*
X72770000Y-54000000D02*
G75*
G02*
X77770000Y-54000000I2500000J0D01*
G01*
%TO.C,J1*%
X83730000Y-16000000D02*
X85000000Y-14730000D01*
X83730000Y-65530000D02*
X83730000Y-16000000D01*
X85000000Y-14730000D02*
X88810000Y-14730000D01*
X88810000Y-14730000D02*
X88810000Y-65530000D01*
X88810000Y-65530000D02*
X83730000Y-65530000D01*
%TO.C,D20*%
X72770000Y-45530306D02*
X72770000Y-48469694D01*
X72770000Y-45530306D02*
G75*
G02*
X72770000Y-48469694I2500000J-1469694D01*
G01*
X77770000Y-47000000D02*
G75*
G02*
X72770000Y-47000000I-2500000J0D01*
G01*
X72770000Y-47000000D02*
G75*
G02*
X77770000Y-47000000I2500000J0D01*
G01*
%TO.C,D11*%
X72770000Y-21530306D02*
X72770000Y-24469694D01*
X72770000Y-21530306D02*
G75*
G02*
X72770000Y-24469694I2500000J-1469694D01*
G01*
X77770000Y-23000000D02*
G75*
G02*
X72770000Y-23000000I-2500000J0D01*
G01*
X72770000Y-23000000D02*
G75*
G02*
X77770000Y-23000000I2500000J0D01*
G01*
%TO.C,D9*%
X42770000Y-66530306D02*
X42770000Y-69469694D01*
X42770000Y-66530306D02*
G75*
G02*
X42770000Y-69469694I2500000J-1469694D01*
G01*
X47770000Y-68000000D02*
G75*
G02*
X42770000Y-68000000I-2500000J0D01*
G01*
X42770000Y-68000000D02*
G75*
G02*
X47770000Y-68000000I2500000J0D01*
G01*
%TO.C,U1*%
X6730000Y-14730000D02*
X8635000Y-14730000D01*
X6730000Y-65530000D02*
X6730000Y-14730000D01*
X8635000Y-14730000D02*
X9270000Y-15365000D01*
X9270000Y-15365000D02*
X9270000Y-65530000D01*
X9270000Y-65530000D02*
X6730000Y-65530000D01*
%TO.C,D15*%
X53770000Y-66530306D02*
X53770000Y-69469694D01*
X53770000Y-66530306D02*
G75*
G02*
X53770000Y-69469694I2500000J-1469694D01*
G01*
X58770000Y-68000000D02*
G75*
G02*
X53770000Y-68000000I-2500000J0D01*
G01*
X53770000Y-68000000D02*
G75*
G02*
X58770000Y-68000000I2500000J0D01*
G01*
%TO.C,D1*%
X42770000Y-14530306D02*
X42770000Y-17469694D01*
X42770000Y-14530306D02*
G75*
G02*
X42770000Y-17469694I2500000J-1469694D01*
G01*
X47770000Y-16000000D02*
G75*
G02*
X42770000Y-16000000I-2500000J0D01*
G01*
X42770000Y-16000000D02*
G75*
G02*
X47770000Y-16000000I2500000J0D01*
G01*
%TO.C,D17*%
X42770000Y-38530306D02*
X42770000Y-41469694D01*
X42770000Y-38530306D02*
G75*
G02*
X42770000Y-41469694I2500000J-1469694D01*
G01*
X47770000Y-40000000D02*
G75*
G02*
X42770000Y-40000000I-2500000J0D01*
G01*
X42770000Y-40000000D02*
G75*
G02*
X47770000Y-40000000I2500000J0D01*
G01*
%TD*%
M02*
