%TF.GenerationSoftware,KiCad,Pcbnew,10.0.4*%
%TF.CreationDate,2026-07-28T00:21:43+02:00*%
%TF.ProjectId,AmpelKreuzungLernplatine,416d7065-6c4b-4726-9575-7a756e674c65,rev?*%
%TF.SameCoordinates,Original*%
%TF.FileFunction,Soldermask,Bot*%
%TF.FilePolarity,Negative*%
%FSLAX46Y46*%
G04 Gerber Fmt 4.6, Leading zero omitted, Abs format (unit mm)*
G04 Created by KiCad (PCBNEW 10.0.4) date 2026-07-28 00:21:43*
%MOMM*%
%LPD*%
G01*
G04 APERTURE LIST*
G04 Aperture macros list*
%AMRoundRect*
0 Rectangle with rounded corners*
0 $1 Rounding radius*
0 $2 $3 $4 $5 $6 $7 $8 $9 X,Y pos of 4 corners*
0 Add a 4 corners polygon primitive as box body*
4,1,4,$2,$3,$4,$5,$6,$7,$8,$9,$2,$3,0*
0 Add four circle primitives for the rounded corners*
1,1,$1+$1,$2,$3*
1,1,$1+$1,$4,$5*
1,1,$1+$1,$6,$7*
1,1,$1+$1,$8,$9*
0 Add four rect primitives between the rounded corners*
20,1,$1+$1,$2,$3,$4,$5,0*
20,1,$1+$1,$4,$5,$6,$7,0*
20,1,$1+$1,$6,$7,$8,$9,0*
20,1,$1+$1,$8,$9,$2,$3,0*%
G04 Aperture macros list end*
%ADD10R,1.800000X1.800000*%
%ADD11C,1.800000*%
%ADD12C,4.200000*%
%ADD13R,1.700000X1.700000*%
%ADD14C,1.700000*%
%ADD15RoundRect,0.250000X0.262500X0.450000X-0.262500X0.450000X-0.262500X-0.450000X0.262500X-0.450000X0*%
G04 APERTURE END LIST*
D10*
%TO.C,D7*%
X44000000Y-54000000D03*
D11*
X46540000Y-54000000D03*
%TD*%
D12*
%TO.C,MH2*%
X95000000Y-5000000D03*
%TD*%
%TO.C,MH4*%
X5000000Y-75000000D03*
%TD*%
D10*
%TO.C,D2*%
X44000000Y-23000000D03*
D11*
X46540000Y-23000000D03*
%TD*%
D10*
%TO.C,D8*%
X44000000Y-61000000D03*
D11*
X46540000Y-61000000D03*
%TD*%
D10*
%TO.C,D18*%
X44000000Y-47000000D03*
D11*
X46540000Y-47000000D03*
%TD*%
D10*
%TO.C,D5*%
X74000000Y-61000000D03*
D11*
X76540000Y-61000000D03*
%TD*%
D10*
%TO.C,D14*%
X64000000Y-16000000D03*
D11*
X66540000Y-16000000D03*
%TD*%
D10*
%TO.C,D12*%
X74000000Y-30000000D03*
D11*
X76540000Y-30000000D03*
%TD*%
D10*
%TO.C,D6*%
X74000000Y-68000000D03*
D11*
X76540000Y-68000000D03*
%TD*%
D10*
%TO.C,D19*%
X74000000Y-40000000D03*
D11*
X76540000Y-40000000D03*
%TD*%
D13*
%TO.C,U2*%
X30860000Y-16000000D03*
D14*
X30860000Y-18540000D03*
X30860000Y-21080000D03*
X30860000Y-23620000D03*
X30860000Y-26160000D03*
X30860000Y-28700000D03*
X30860000Y-31240000D03*
X30860000Y-33780000D03*
X30860000Y-36320000D03*
X30860000Y-38860000D03*
X30860000Y-41400000D03*
X30860000Y-43940000D03*
X30860000Y-46480000D03*
X30860000Y-49020000D03*
X30860000Y-51560000D03*
X30860000Y-54100000D03*
X30860000Y-56640000D03*
X30860000Y-59180000D03*
X30860000Y-61720000D03*
X30860000Y-64260000D03*
%TD*%
D10*
%TO.C,D16*%
X64000000Y-68000000D03*
D11*
X66540000Y-68000000D03*
%TD*%
D12*
%TO.C,MH1*%
X5000000Y-5000000D03*
%TD*%
D10*
%TO.C,D3*%
X44000000Y-30000000D03*
D11*
X46540000Y-30000000D03*
%TD*%
D10*
%TO.C,D13*%
X55000000Y-16000000D03*
D11*
X57540000Y-16000000D03*
%TD*%
D10*
%TO.C,D10*%
X74000000Y-16000000D03*
D11*
X76540000Y-16000000D03*
%TD*%
D10*
%TO.C,D4*%
X74000000Y-54000000D03*
D11*
X76540000Y-54000000D03*
%TD*%
D12*
%TO.C,MH3*%
X95000000Y-75000000D03*
%TD*%
D13*
%TO.C,J1*%
X85000000Y-16000000D03*
D14*
X87540000Y-16000000D03*
X85000000Y-18540000D03*
X87540000Y-18540000D03*
X85000000Y-21080000D03*
X87540000Y-21080000D03*
X85000000Y-23620000D03*
X87540000Y-23620000D03*
X85000000Y-26160000D03*
X87540000Y-26160000D03*
X85000000Y-28700000D03*
X87540000Y-28700000D03*
X85000000Y-31240000D03*
X87540000Y-31240000D03*
X85000000Y-33780000D03*
X87540000Y-33780000D03*
X85000000Y-36320000D03*
X87540000Y-36320000D03*
X85000000Y-38860000D03*
X87540000Y-38860000D03*
X85000000Y-41400000D03*
X87540000Y-41400000D03*
X85000000Y-43940000D03*
X87540000Y-43940000D03*
X85000000Y-46480000D03*
X87540000Y-46480000D03*
X85000000Y-49020000D03*
X87540000Y-49020000D03*
X85000000Y-51560000D03*
X87540000Y-51560000D03*
X85000000Y-54100000D03*
X87540000Y-54100000D03*
X85000000Y-56640000D03*
X87540000Y-56640000D03*
X85000000Y-59180000D03*
X87540000Y-59180000D03*
X85000000Y-61720000D03*
X87540000Y-61720000D03*
X85000000Y-64260000D03*
X87540000Y-64260000D03*
%TD*%
D10*
%TO.C,D20*%
X74000000Y-47000000D03*
D11*
X76540000Y-47000000D03*
%TD*%
D10*
%TO.C,D11*%
X74000000Y-23000000D03*
D11*
X76540000Y-23000000D03*
%TD*%
D10*
%TO.C,D9*%
X44000000Y-68000000D03*
D11*
X46540000Y-68000000D03*
%TD*%
D13*
%TO.C,U1*%
X8000000Y-16000000D03*
D14*
X8000000Y-18540000D03*
X8000000Y-21080000D03*
X8000000Y-23620000D03*
X8000000Y-26160000D03*
X8000000Y-28700000D03*
X8000000Y-31240000D03*
X8000000Y-33780000D03*
X8000000Y-36320000D03*
X8000000Y-38860000D03*
X8000000Y-41400000D03*
X8000000Y-43940000D03*
X8000000Y-46480000D03*
X8000000Y-49020000D03*
X8000000Y-51560000D03*
X8000000Y-54100000D03*
X8000000Y-56640000D03*
X8000000Y-59180000D03*
X8000000Y-61720000D03*
X8000000Y-64260000D03*
%TD*%
D10*
%TO.C,D15*%
X55000000Y-68000000D03*
D11*
X57540000Y-68000000D03*
%TD*%
D10*
%TO.C,D1*%
X44000000Y-16000000D03*
D11*
X46540000Y-16000000D03*
%TD*%
D10*
%TO.C,D17*%
X44000000Y-40000000D03*
D11*
X46540000Y-40000000D03*
%TD*%
D15*
%TO.C,R14*%
X64912500Y-24000000D03*
X63087500Y-24000000D03*
%TD*%
%TO.C,R2*%
X38912500Y-23000000D03*
X37087500Y-23000000D03*
%TD*%
%TO.C,R5*%
X81912500Y-61000000D03*
X80087500Y-61000000D03*
%TD*%
%TO.C,R7*%
X38912500Y-54000000D03*
X37087500Y-54000000D03*
%TD*%
%TO.C,R9*%
X38912500Y-68000000D03*
X37087500Y-68000000D03*
%TD*%
%TO.C,R20*%
X81912500Y-47000000D03*
X80087500Y-47000000D03*
%TD*%
%TO.C,R19*%
X81912500Y-40000000D03*
X80087500Y-40000000D03*
%TD*%
%TO.C,R8*%
X38912500Y-61000000D03*
X37087500Y-61000000D03*
%TD*%
%TO.C,R18*%
X38912500Y-47000000D03*
X37087500Y-47000000D03*
%TD*%
%TO.C,R16*%
X64912500Y-60000000D03*
X63087500Y-60000000D03*
%TD*%
%TO.C,R6*%
X81912500Y-68000000D03*
X80087500Y-68000000D03*
%TD*%
%TO.C,R17*%
X38912500Y-40000000D03*
X37087500Y-40000000D03*
%TD*%
%TO.C,R12*%
X81912500Y-30000000D03*
X80087500Y-30000000D03*
%TD*%
%TO.C,R1*%
X38912500Y-16000000D03*
X37087500Y-16000000D03*
%TD*%
%TO.C,R11*%
X81912500Y-23000000D03*
X80087500Y-23000000D03*
%TD*%
%TO.C,R3*%
X38912500Y-30000000D03*
X37087500Y-30000000D03*
%TD*%
%TO.C,R10*%
X81912500Y-16000000D03*
X80087500Y-16000000D03*
%TD*%
%TO.C,R4*%
X81912500Y-54000000D03*
X80087500Y-54000000D03*
%TD*%
%TO.C,R15*%
X55912500Y-60000000D03*
X54087500Y-60000000D03*
%TD*%
%TO.C,R13*%
X55912500Y-24000000D03*
X54087500Y-24000000D03*
%TD*%
M02*
